<svg width="120" height="120" viewBox="0 0 120 120" fill="none" xmlns="http://www.w3.org/2000/svg">
<path fill-rule="evenodd" clip-rule="evenodd" d="M40.1905 79.5619H6.51429C2.93333 79.5619 0.0190476 76.6667 0 73.0857C0 73.8857 0.171428 74.6476 0.438094 75.3524C0.495237 75.3524 0.533332 75.3524 0.590475 75.3524C15.7905 75.3524 30.9333 68.2095 40.3238 56.1905C44.4 50.9905 47.4095 45.0667 50.6095 38.7809C53.9238 32.2667 57.3524 25.5238 62.1143 19.5429C66.819 13.6381 72.7619 8.74285 79.3905 5.10476C78.7619 2.30476 76.3429 0.171429 73.3905 0.0190481C76.819 0.190477 79.5619 3.04762 79.5619 6.51429V35.0095C75.0095 37.6381 71.1238 41.4095 68.4762 45.9428C66.4762 49.3905 65.2 53.1428 63.9809 56.7619C62.8 60.2476 61.6952 63.5428 59.9809 66.5333C55.9238 73.6571 48.3238 78.5905 40.1905 79.5619ZM0 73.0857C0 73.0667 0 73.0667 0 73.0667C0 73.0667 0 73.0667 0 73.0857ZM73.3905 0.0190481C73.3714 0.0190481 73.3714 0.0190481 73.3714 0.0190481C73.3714 0.0190481 73.3714 0.0190481 73.3905 0.0190481ZM73.3714 0.0190481C73.3333 0.0190481 73.3143 0.0190481 73.2762 0.0190481C73.3143 0.0190481 73.3333 0.0190481 73.3714 0.0190481ZM73.2762 0.0190481L73.2571 0L73.2762 0.0190481ZM73.2571 0H73.2381H73.2571ZM73.2381 0H73.219H73.2381ZM73.219 0C73.2 0 73.2 0 73.2 0H73.219ZM73.2 0H73.1809H73.2Z" fill="url(#paint0_linear_4_12)"/>
<path fill-rule="evenodd" clip-rule="evenodd" d="M113.486 40.4572H79.6191C76.7238 42.5333 74.2667 45.181 72.4762 48.2667C70.7048 51.3143 69.5619 54.6667 68.3619 58.2286C67.1619 61.7714 65.9238 65.4476 64 68.8381C59.181 77.2952 50.1143 83.1238 40.4572 84.1714V113.486C40.4572 117.086 43.3714 120 46.9714 120H73.0286C76.6286 120 79.5619 117.086 79.5619 113.486V79.5619H113.486C117.086 79.5619 120 76.6476 120 73.0476V46.9714C120 43.3714 117.086 40.4572 113.486 40.4572Z" fill="url(#paint1_linear_4_12)"/>
<path fill-rule="evenodd" clip-rule="evenodd" d="M0 73.0667C0 73.0476 0 73.0476 0 73.0476C0 73.0476 0 73.0476 0 73.0667ZM73.181 0H73.1619H73.181ZM73.1619 0H73.1429H73.1619ZM73.1429 0H73.1238H73.1429ZM73.1238 0H73.1048H73.1238ZM73.1048 0C73.0857 0 73.0857 0 73.0857 0C73.0857 0 73.0857 0 73.1048 0ZM73.0857 0C73.0667 0 73.0667 0 73.0667 0C73.0667 0 73.0667 0 73.0857 0ZM73.0667 0C73.0476 0 73.0476 0 73.0286 0C73.0476 0 73.0476 0 73.0667 0Z" fill="url(#paint2_linear_4_12)"/>
<path fill-rule="evenodd" clip-rule="evenodd" d="M0.590475 75.3524C0.533332 75.3524 0.495237 75.3524 0.438094 75.3524C0.171428 74.6476 0 73.8857 0 73.0857C0 73.0667 0 73.0667 0 73.0667C0 73.0476 0 73.0476 0 73.0476V46.9714C0 43.3714 2.91429 40.4571 6.51429 40.4571H40.4571V6.51429C40.4571 2.93334 43.3714 0 46.9714 0H73.0286C73.0476 0 73.0476 0 73.0667 0C73.0667 0 73.0667 0 73.0857 0C73.0857 0 73.0857 0 73.1048 0H73.1238H73.1429H73.1619H73.181H73.2C73.2 0 73.2 0 73.219 0H73.2381H73.2571L73.2762 0.0190481C73.3143 0.0190481 73.3333 0.0190481 73.3714 0.0190481C73.3714 0.0190481 73.3714 0.0190481 73.3905 0.0190481C76.3429 0.171429 78.7619 2.30476 79.3905 5.10476C72.7619 8.74286 66.819 13.6381 62.1143 19.5429C57.3524 25.5238 53.9238 32.2667 50.6095 38.781C47.4095 45.0667 44.4 50.9905 40.3238 56.1905C30.9333 68.2095 15.7905 75.3524 0.590475 75.3524V75.3524Z" fill="url(#paint3_linear_4_12)"/>
<defs>
<linearGradient id="paint0_linear_4_12" x1="0.380952" y1="0.380952" x2="77.8286" y2="77.8286" gradientUnits="userSpaceOnUse">
<stop stop-color="#48B0E0"/>
<stop offset="1" stop-color="#427CC5"/>
</linearGradient>
<linearGradient id="paint1_linear_4_12" x1="64.781" y1="64.8" x2="117.638" y2="117.638" gradientUnits="userSpaceOnUse">
<stop stop-color="#48B0E0"/>
<stop offset="0.819608" stop-color="#427CC5"/>
<stop offset="1" stop-color="#427CC5"/>
</linearGradient>
<linearGradient id="paint2_linear_4_12" x1="64.781" y1="64.781" x2="117.638" y2="117.638" gradientUnits="userSpaceOnUse">
<stop stop-color="#48B0E0"/>
<stop offset="0.819608" stop-color="#2C62D6"/>
<stop offset="1" stop-color="#2C62D6"/>
</linearGradient>
<linearGradient id="paint3_linear_4_12" x1="0.380952" y1="0.380952" x2="77.8286" y2="77.8286" gradientUnits="userSpaceOnUse">
<stop stop-color="#76C4E8"/>
<stop offset="0.819608" stop-color="#6189E0"/>
<stop offset="1" stop-color="#6189E0"/>
</linearGradient>
</defs>
</svg>
