<svg width="80" height="67" viewBox="0 0 80 67" fill="none" xmlns="http://www.w3.org/2000/svg">
<g clip-path="url(#clip0_324_12)">
<path d="M74.0693 53.4378L45.6769 53.4378H34.3231L5.93072 53.4378C4.44221 53.4665 3.02341 54.1431 1.9799 55.3218C0.936391 56.5004 0.351666 58.0869 0.351664 59.7395C0.351665 61.3921 0.936388 62.9786 1.9799 64.1573C3.02341 65.336 4.44221 66.0125 5.93073 66.0412L34.3231 66.0412H45.6769L74.0693 66.0412C75.5578 66.0125 76.9766 65.336 78.0201 64.1573C79.0636 62.9786 79.6483 61.3921 79.6483 59.7395C79.6483 58.0869 79.0636 56.5004 78.0201 55.3218C76.9766 54.1431 75.5578 53.4665 74.0693 53.4378Z" fill="#00134E"/>
<path d="M74.0693 26.7795L45.6769 26.7795H34.3231L5.93072 26.7795C4.4422 26.8083 3.0234 27.4848 1.97989 28.6635C0.936379 29.8422 0.351655 31.4287 0.351653 33.0813C0.351654 34.7339 0.936377 36.3204 1.97989 37.499C3.0234 38.6777 4.4422 39.3543 5.93072 39.383L34.3231 39.383H45.6769L74.0693 39.383C75.5578 39.3543 76.9766 38.6777 78.0201 37.499C79.0636 36.3204 79.6483 34.7339 79.6483 33.0813C79.6483 31.4287 79.0636 29.8422 78.0201 28.6635C76.9766 27.4848 75.5578 26.8083 74.0693 26.7795Z" fill="#00134E"/>
<path d="M74.0693 0.121254L45.6769 0.12125H34.3231L5.93072 0.121254C4.4422 0.149975 3.0234 0.826527 1.97989 2.0052C0.936379 3.18388 0.351655 4.77036 0.351653 6.42297C0.351654 8.07557 0.936377 9.66206 1.97989 10.8407C3.0234 12.0194 4.44221 12.696 5.93072 12.7247L34.3231 12.7247H45.6769L74.0693 12.7247C75.5578 12.696 76.9766 12.0194 78.0201 10.8407C79.0636 9.66206 79.6483 8.07557 79.6483 6.42297C79.6483 4.77036 79.0636 3.18388 78.0201 2.0052C76.9766 0.826527 75.5578 0.149975 74.0693 0.121254Z" fill="#00134E"/>
</g>
<defs>
<clipPath id="clip0_324_12">
<rect width="80" height="67" fill="white"/>
</clipPath>
</defs>
</svg>
