<svg width="80" height="80" viewBox="0 0 80 80" fill="none" xmlns="http://www.w3.org/2000/svg">
<path d="M2.2364 2.2364C3.6688 0.804433 5.61128 0 7.63669 0C9.66211 0 11.6046 0.804433 13.037 2.2364L40.0461 29.2455L67.0552 2.2364C68.4958 0.845015 70.4253 0.075115 72.428 0.0925183C74.4308 0.109922 76.3466 0.913237 77.7628 2.32944C79.179 3.74565 79.9823 5.66144 79.9997 7.66418C80.0171 9.66693 79.2472 11.5964 77.8558 13.037L50.8467 40.0461L77.8558 67.0552C79.2472 68.4958 80.0171 70.4253 79.9997 72.428C79.9823 74.4308 79.179 76.3466 77.7628 77.7628C76.3466 79.179 74.4308 79.9823 72.428 79.9997C70.4253 80.0171 68.4958 79.2472 67.0552 77.8558L40.0461 50.8467L13.037 77.8558C11.5964 79.2472 9.66693 80.0171 7.66418 79.9997C5.66144 79.9823 3.74565 79.179 2.32944 77.7628C0.913237 76.3466 0.109922 74.4308 0.0925183 72.428C0.075115 70.4253 0.845015 68.4958 2.2364 67.0552L29.2455 40.0461L2.2364 13.037C0.804433 11.6046 0 9.66211 0 7.63669C0 5.61128 0.804433 3.6688 2.2364 2.2364V2.2364Z" fill="#00134E"/>
</svg>
