<svg width="159" height="96" viewBox="0 0 159 96" fill="none" xmlns="http://www.w3.org/2000/svg">
<g clip-path="url(#clip0_255_375)">
<path fill-rule="evenodd" clip-rule="evenodd" d="M158.317 61.7289C157.452 59.4214 153.668 58.081 149.41 58.4543C148.258 58.5825 147.122 58.8211 146.016 59.1669C140.757 60.7618 114.085 69.9069 113.779 70.1614L113.169 70.2971L113.525 70.6534C116.562 73.2154 118.038 75.9132 117.308 78.0849C116.477 81.3934 112.083 83.3446 104.872 83.9554C96.9078 84.3881 88.9216 83.772 81.1182 82.123C82.2227 82.1069 83.3272 82.1522 84.4267 82.2588C91.2135 82.2588 97.576 82.2588 102.564 81.8685C110.267 81.2577 113.915 79.561 114.441 76.6427C114.696 74.6915 113.576 73.0797 110.912 71.8581C107.994 70.4159 102.004 69.5506 96.1678 68.5835C92.6819 68.1357 89.2217 67.5071 85.801 66.7002C76.5371 64.2569 67.0187 61.8307 55.9054 62.696C54.1974 62.8517 52.4984 63.0952 50.8154 63.4255C42.2184 64.8969 33.7192 66.8914 25.3651 69.3979L24.2622 69.5336L37.191 88.0614C39.4577 87.5492 41.7608 87.2145 44.0795 87.0604C46.9586 86.7515 49.8647 86.7971 52.7326 87.1961C56.2957 87.8069 65.1693 89.6393 73.7037 91.336C82.4925 93.2872 90.8911 94.8651 94.0639 95.3402C95.8809 95.5767 97.7177 95.6222 99.5442 95.4759C103.803 95.0348 108.333 92.6934 112.473 90.4538C113.813 89.5884 115.171 88.9776 116.392 88.2481L154.534 67.6842C158.792 65.1562 158.792 62.9335 158.317 61.7289V61.7289ZM82.3059 0.427608H112.846C114.646 0.427608 116.372 1.14264 117.645 2.4154C118.918 3.68816 119.633 5.41439 119.633 7.21435V53.6526C119.611 55.4379 118.886 57.1424 117.615 58.3968C116.345 59.6513 114.632 60.3547 112.846 60.3545H82.3059C80.5205 60.3547 78.807 59.6513 77.5367 58.3968C76.2663 57.1424 75.5414 55.4379 75.5191 53.6526V7.12952C75.5191 5.32956 76.2342 3.60333 77.5069 2.33056C78.7797 1.0578 80.5059 0.342773 82.3059 0.342773V0.427608ZM87.0566 48.851C87.2189 48.8612 87.3815 48.8364 87.5334 48.7784C87.6853 48.7204 87.823 48.6304 87.9372 48.5147C88.0514 48.3989 88.1394 48.2599 88.1953 48.1072C88.2512 47.9545 88.2737 47.7916 88.2612 47.6294C88.2612 46.6623 87.7183 46.5096 86.7512 46.5096H85.801V49.903H86.4458V48.7832L87.0566 48.851ZM107.417 36.2786C105.742 37.9553 103.67 39.181 101.394 39.8416C102.587 38.1378 103.524 36.2686 104.176 34.2935H109.046C108.545 35.0082 107.977 35.6729 107.349 36.2786H107.417ZM95.014 40.0961C93.6442 38.3498 92.5722 36.3892 91.8412 34.2935H97.0161V40.3167C96.3151 40.3084 95.6165 40.2345 94.9292 40.0961H95.014ZM83.8159 27.0486H89.5168C89.5482 29.1542 89.8505 31.247 90.416 33.2754H85.5126C84.4602 31.3642 83.8785 29.2296 83.8159 27.0486V27.0486ZM98.1529 18.7348V12.6946C98.7218 12.6974 99.2894 12.7485 99.8496 12.8473C101.257 14.6048 102.353 16.5903 103.09 18.7179L98.1529 18.7348ZM103.413 19.7529C104.01 21.7759 104.329 23.8706 104.363 25.9797H98.102V19.7529H103.413ZM97.0161 18.7348H91.7564C92.4876 16.6393 93.5596 14.6787 94.9292 12.9322C95.6156 12.7861 96.3145 12.7065 97.0161 12.6946V18.7348ZM97.0161 19.7529V25.9797H90.4839C90.5257 23.8689 90.8568 21.7737 91.468 19.7529H97.0161ZM89.4829 25.9797H83.782C83.825 23.7959 84.4079 21.6566 85.4787 19.7529H90.3482C89.7787 21.7796 89.4876 23.8744 89.4829 25.9797V25.9797ZM90.4839 27.0316H97.0161V33.2585H91.434C90.8513 31.2323 90.5319 29.1394 90.4839 27.0316V27.0316ZM98.119 34.2765H103.056C102.335 36.4111 101.238 38.3994 99.8157 40.147C99.2556 40.247 98.6879 40.2981 98.119 40.2997V34.2765ZM98.119 33.2585V27.0316H104.38C104.325 29.1401 104 31.2329 103.413 33.2585H98.119ZM105.364 27.0316H111.421C111.331 29.2377 110.714 31.3901 109.623 33.3094H104.532C105.1 31.2813 105.402 29.1883 105.432 27.0825L105.364 27.0316ZM105.364 25.9797C105.339 23.8712 105.025 21.7761 104.431 19.7529H109.656C110.7 21.6677 111.281 23.8002 111.353 25.9797H105.364ZM109.012 18.7348H104.125C103.455 16.7674 102.518 14.9008 101.343 13.1867C103.611 13.8469 105.681 15.0594 107.366 16.7158C107.986 17.3409 108.554 18.0162 109.063 18.7348H109.012ZM87.8201 16.7158C89.3911 15.1483 91.3179 13.9841 93.4361 13.3224C92.2784 14.9832 91.3749 16.8075 90.7554 18.7348H86.1743C86.6847 18.0173 87.2521 17.3421 87.871 16.7158H87.8201ZM86.1234 34.2935H90.6705C91.3221 36.2171 92.2417 38.0391 93.4022 39.7059C91.2808 39.0511 89.3525 37.8859 87.7862 36.3125C87.1509 35.7137 86.5821 35.0481 86.0895 34.3274L86.1234 34.2935ZM109.334 47.1204V46.5096H106.789V47.1204H107.756V49.9708H108.401V47.1034L109.334 47.1204ZM106.67 49.9708L105.873 48.5286C106.058 48.4361 106.214 48.2931 106.322 48.116C106.43 47.939 106.486 47.735 106.484 47.5276C106.484 46.7641 105.941 46.5096 105.296 46.5096H104.023V49.903H104.668V48.6135H105.313L106.026 49.903L106.67 49.9708ZM105.126 47.0525C105.669 47.0525 105.805 47.2392 105.805 47.5615C105.805 47.8839 105.686 48.1045 105.109 48.1045H104.668V47.0525H105.126ZM101.733 50.0387C102.092 50.0591 102.449 49.9712 102.758 49.7863C103.067 49.6015 103.313 49.3282 103.465 49.0019C103.617 48.6756 103.668 48.3112 103.61 47.9559C103.553 47.6006 103.39 47.2707 103.143 47.0089C102.896 46.7471 102.576 46.5655 102.225 46.4874C101.873 46.4094 101.507 46.4385 101.172 46.5711C100.837 46.7037 100.55 46.9337 100.348 47.2313C100.145 47.5288 100.037 47.8803 100.036 48.2402C100.022 48.4714 100.056 48.7031 100.135 48.9208C100.214 49.1386 100.337 49.3378 100.496 49.5063C100.655 49.6748 100.846 49.809 101.059 49.9005C101.272 49.9921 101.501 50.0391 101.733 50.0387ZM101.733 47.0525C102.412 47.0525 102.717 47.5615 102.717 48.2402C102.717 48.9189 102.395 49.4279 101.733 49.4279C101.071 49.4279 100.715 48.9528 100.715 48.2402C100.715 47.5276 101.071 47.0525 101.733 47.0525ZM98.5262 48.851C98.6892 48.8641 98.8531 48.8414 99.0063 48.7844C99.1596 48.7274 99.2985 48.6375 99.4133 48.5211C99.5281 48.4047 99.6161 48.2645 99.6709 48.1104C99.7258 47.9564 99.7462 47.7922 99.7308 47.6294C99.7308 46.6623 99.2218 46.5096 98.2547 46.5096H97.2537V49.903H97.8984V48.7832L98.5262 48.851ZM98.4244 47.0525C98.9673 47.0525 99.0861 47.2222 99.0861 47.6294C99.0861 48.0366 98.8995 48.2402 98.4413 48.2402H97.8984V47.0525H98.4244ZM95.4043 50.0387C96.592 50.0387 96.7616 49.4279 96.7616 49.0377C96.7616 48.2741 96.1169 48.0705 95.574 47.9178C95.031 47.7651 94.8613 47.6973 94.8613 47.4088C94.8613 47.1204 95.2516 47.0525 95.5061 47.0525C95.8597 47.0548 96.2037 47.1675 96.4902 47.3749V46.7302C96.1621 46.5349 95.786 46.435 95.4043 46.4417C94.4711 46.4417 94.1487 47.0186 94.1487 47.4937C94.1487 47.9687 94.6917 48.2572 95.1837 48.4268C95.6757 48.5965 95.9812 48.7153 95.9812 49.0716C95.9812 49.4279 95.7266 49.4279 95.3703 49.4279C94.9766 49.449 94.5892 49.3219 94.2845 49.0716V49.7672C94.629 49.9487 95.0152 50.0365 95.4043 50.0217V50.0387ZM92.5538 50.0387C93.7076 50.0387 93.8942 49.4279 93.8942 49.0377C93.8942 48.2741 93.2156 48.0705 92.7065 47.9178C92.1975 47.7651 92.0109 47.6973 92.0109 47.4088C92.0109 47.1204 92.3672 47.0525 92.6557 47.0525C93.0093 47.0548 93.3533 47.1675 93.6397 47.3749V46.7302C93.3116 46.5349 92.9356 46.435 92.5538 46.4417C91.6207 46.4417 91.2983 47.0186 91.2983 47.4937C91.2983 47.9687 91.8073 48.2572 92.3333 48.4268C92.8593 48.5965 93.1307 48.7153 93.1307 49.0716C93.1307 49.4279 92.8762 49.4279 92.5199 49.4279C92.1253 49.456 91.7353 49.328 91.434 49.0716L91.3322 49.7672C91.6902 49.9452 92.0864 50.0326 92.486 50.0217L92.5538 50.0387ZM91.1795 50.0387L89.924 46.6453H89.3471L88.0916 50.0387H88.7533L89.0417 49.2073H90.2294L90.5178 50.0387H91.1795ZM89.9919 48.5965H89.2792L89.6356 47.5955L89.9919 48.5965ZM86.8869 47.1204C87.3959 47.1204 87.5486 47.2901 87.5486 47.6973C87.5486 48.1045 87.362 48.3081 86.8869 48.3081H86.3779V47.1204H86.8869ZM0.729219 68.804H17.8148C18.2814 68.8637 18.7305 69.0197 19.1336 69.2621C19.5366 69.5045 19.8849 69.8281 20.1563 70.2123L36.4105 93.5587C36.9195 94.3222 36.7329 94.933 35.9863 94.933H18.8838C18.4199 94.8774 17.9725 94.7267 17.5696 94.4902C17.1667 94.2537 16.817 93.9366 16.5423 93.5587L0.305048 70.2293C-0.237891 69.4658 -0.051256 68.821 0.729219 68.821V68.804Z" fill="white"/>
</g>
<defs>
<clipPath id="clip0_255_375">
<rect width="158.521" height="95.0653" fill="white" transform="translate(0 0.427734)"/>
</clipPath>
</defs>
</svg>
