<svg width="106" height="99" viewBox="0 0 106 99" fill="none" xmlns="http://www.w3.org/2000/svg">
<g clip-path="url(#clip0_255_381)">
<path fill-rule="evenodd" clip-rule="evenodd" d="M85.8862 67.6809H83.5787C81.4796 67.6453 79.3919 67.9962 77.4198 68.7159C75.3668 63.6258 70.4973 60.5039 65.6448 58.7054C64.8643 58.4509 63.8463 58.1795 63.0658 57.925C62.3309 54.9895 60.6567 52.3746 58.2982 50.4786C55.9397 48.5827 53.0262 47.5095 50.0013 47.4225C47.2675 47.3176 44.5931 48.2373 42.502 50.0014C40.5422 51.3825 38.9544 53.2268 37.8798 55.37C36.8053 57.5132 36.2773 59.8889 36.343 62.2855C34.1172 60.6839 31.4655 59.7804 28.7249 59.6895C26.0205 59.8153 23.4127 60.7331 21.2257 62.3288C19.0387 63.9246 17.3689 66.128 16.4239 68.665H13.828C6.142 68.665 0 73.5175 0 79.422C0 83.2735 2.57896 86.599 6.41347 88.6519C8.71922 89.8153 11.2624 90.4308 13.845 90.4504C14.6254 90.4504 15.6434 90.1959 16.4239 90.1959C17.7835 93.1087 20.0201 95.5233 22.8204 97.1014C24.622 98.118 26.6563 98.65 28.7249 98.6454C30.5677 98.6603 32.392 98.2769 34.0729 97.5213C35.7538 96.7658 37.2516 95.656 38.4639 94.268C40.5434 95.7956 43.0606 96.6108 45.6408 96.5924C47.6945 96.5382 49.7072 96.0053 51.5187 95.0362C53.3302 94.0671 54.8905 92.6886 56.0755 91.0103C57.9827 93.6042 60.689 95.4998 63.7784 96.4058C64.7964 96.4058 65.8314 96.6603 66.8494 96.6603C69.4078 96.5783 71.894 95.792 74.0344 94.388C76.1748 92.9841 77.8863 91.0169 78.9807 88.7029C79.8808 89.023 80.8254 89.2005 81.7802 89.2288C82.3062 89.2288 83.0528 89.4833 83.5787 89.4833C89.4832 89.4833 94.6072 86.4123 96.4226 82.3064C97.1054 81.1388 97.4573 79.8073 97.4406 78.4549C97.4406 73.0764 92.5542 68.7159 85.8862 67.6979V67.6809ZM7.71992 32.3729C8.49779 31.4644 9.5332 30.8136 10.6891 30.5065C12.5385 27.5034 14.9648 27.1132 20.8692 25.9255C34.816 25.4674 48.627 24.9923 62.5738 25.3316L77.1822 18.9691C81.5257 12.6744 86.1407 6.3118 90.5182 0.0849609C92.4015 0.0849609 93.9116 0.0849609 95.6082 0.0849609C94.2 8.29692 92.6899 16.5258 91.2478 24.9244L103.125 21.0221C103.922 20.8015 105.076 20.6149 105.245 20.8524L93.6231 27.6391C93.5971 28.9038 93.1011 30.1136 92.2318 31.0325C86.4122 32.8989 80.5586 34.6295 74.7051 36.2583C69.7168 37.5478 40.0418 41.3484 37.2762 40.5339C37.4681 41.0028 37.498 41.5223 37.361 42.0101C37.2879 42.1836 37.1715 42.3355 37.023 42.4514C36.8745 42.5672 36.6988 42.6431 36.5127 42.6718C35.851 42.8754 35.6983 42.8923 35.0366 43.1299C35.0366 43.3844 34.7142 44.063 34.307 44.08C30.5357 44.8178 26.6399 44.602 22.9731 43.4522C21.9721 42.9432 21.4631 39.7704 22.9731 38.0228C17.7304 37.446 12.5385 38.2434 7.92352 33.6284C7.51632 33.0855 7.39755 33.0855 7.61812 32.2881L7.71992 32.3729ZM8.19499 33.2552L9.89168 31.5585L11.7241 31.304L10.0274 33.0007L8.19499 33.2552ZM21.5818 30.7271H21.8533C21.8725 30.7247 21.892 30.7264 21.9105 30.7321C21.929 30.7379 21.946 30.7475 21.9605 30.7603C21.9749 30.7732 21.9865 30.789 21.9943 30.8067C22.0022 30.8243 22.0062 30.8435 22.006 30.8628L22.0908 31.6942C22.0958 31.7155 22.0961 31.7377 22.0917 31.7591C22.0874 31.7806 22.0785 31.8008 22.0656 31.8185C22.0527 31.8362 22.0362 31.8509 22.0171 31.8617C21.9981 31.8724 21.9769 31.879 21.9551 31.8808H21.6836C21.6411 31.8859 21.5983 31.8748 21.5637 31.8496C21.5291 31.8244 21.5053 31.7871 21.497 31.7451L21.4291 30.8459C21.4284 30.8017 21.4433 30.7587 21.4713 30.7246C21.4993 30.6904 21.5384 30.6673 21.5818 30.6592V30.7271ZM32.8648 30.8628H33.1363C33.1576 30.8579 33.1797 30.8576 33.2012 30.8619C33.2226 30.8663 33.2429 30.8752 33.2606 30.8881C33.2783 30.901 33.293 30.9175 33.3038 30.9366C33.3145 30.9556 33.321 30.9768 33.3229 30.9986V31.8469C33.3278 31.8682 33.3281 31.8904 33.3238 31.9118C33.3194 31.9333 33.3105 31.9535 33.2976 31.9712C33.2848 31.9889 33.2682 32.0036 33.2492 32.0144C33.2301 32.0252 33.209 32.0317 33.1872 32.0336H32.9157C32.8732 32.0386 32.8304 32.0275 32.7957 32.0023C32.7611 31.9771 32.7373 31.9398 32.7291 31.8978V31.0325C32.7291 30.9477 32.7291 30.8798 32.8648 30.8459V30.8628ZM68.1728 31.1173H68.4443C68.4647 31.1121 68.4861 31.1116 68.5067 31.116C68.5273 31.1204 68.5466 31.1296 68.5631 31.1428C68.5796 31.1559 68.5927 31.1728 68.6016 31.1919C68.6104 31.2111 68.6146 31.232 68.614 31.2531L68.6988 32.1184C68.7012 32.1376 68.6995 32.1571 68.6938 32.1755C68.688 32.194 68.6784 32.2111 68.6656 32.2255C68.6527 32.24 68.6369 32.2515 68.6192 32.2594C68.6016 32.2673 68.5824 32.2712 68.5631 32.2711H68.2916C68.2703 32.276 68.2481 32.2763 68.2267 32.272C68.2052 32.2676 68.185 32.2587 68.1673 32.2458C68.1496 32.233 68.1349 32.2164 68.1241 32.1974C68.1134 32.1783 68.1068 32.1572 68.105 32.1353L67.9523 31.304C67.9554 31.2583 67.9739 31.2151 68.0047 31.1812C68.0355 31.1474 68.0768 31.1249 68.1219 31.1173H68.1728ZM66.4761 31.1173H66.7476C66.7689 31.1124 66.7911 31.1121 66.8125 31.1165C66.834 31.1208 66.8542 31.1297 66.8719 31.1426C66.8896 31.1555 66.9043 31.172 66.9151 31.1911C66.9258 31.2101 66.9324 31.2313 66.9342 31.2531L67.0191 32.1014C67.0191 32.1862 67.0191 32.2711 66.8833 32.2711H66.6119C66.527 32.2711 66.4252 32.2711 66.4252 32.1353L66.3404 31.27C66.3353 31.2275 66.3465 31.1847 66.3717 31.1501C66.3968 31.1155 66.4342 31.0917 66.4761 31.0834V31.1173ZM64.7795 31.1173H65.0509C65.1358 31.1173 65.2036 31.1173 65.2036 31.2531L65.2885 32.1184C65.2885 32.2032 65.2885 32.2711 65.1527 32.305H64.8812C64.7964 32.305 64.7286 32.305 64.6946 32.1693L64.6098 31.3209C64.6074 31.2973 64.61 31.2734 64.6175 31.2508C64.6249 31.2282 64.6371 31.2074 64.6531 31.1898C64.6691 31.1722 64.6886 31.1582 64.7104 31.1486C64.7321 31.1391 64.7557 31.1342 64.7795 31.1343V31.1173ZM63.2355 31.1173H63.5069C63.5918 31.1173 63.6596 31.1173 63.6936 31.2531L63.7954 32.1184C63.7954 32.1634 63.7775 32.2065 63.7457 32.2384C63.7139 32.2702 63.6707 32.2881 63.6257 32.2881H63.3542C63.2524 32.2881 63.2015 32.2881 63.1676 32.1523V31.287C63.1676 31.2022 63.1676 31.1343 63.3033 31.1004L63.2355 31.1173ZM61.6406 30.9986H61.9121C61.9334 30.9936 61.9555 30.9933 61.977 30.9977C61.9984 31.002 62.0187 31.011 62.0364 31.0238C62.0541 31.0367 62.0688 31.0532 62.0795 31.0723C62.0903 31.0914 62.0968 31.1125 62.0987 31.1343L62.1835 31.9996C62.1824 32.0408 62.1689 32.0807 62.1447 32.114C62.1204 32.1473 62.0866 32.1725 62.0478 32.1863H61.7763C61.7549 32.195 61.7316 32.1981 61.7087 32.1953C61.6858 32.1925 61.6639 32.1839 61.6452 32.1703C61.6265 32.1568 61.6116 32.1386 61.6019 32.1176C61.5922 32.0967 61.588 32.0736 61.5897 32.0505L61.5049 31.1852C61.5049 31.1852 61.5048 31.0325 61.6406 30.9986ZM59.9439 30.9986H60.2154C60.2367 30.9936 60.2588 30.9933 60.2803 30.9977C60.3017 31.002 60.322 31.011 60.3397 31.0238C60.3574 31.0367 60.3721 31.0532 60.3829 31.0723C60.3936 31.0914 60.4001 31.1125 60.402 31.1343L60.4868 31.9996C60.4919 32.0421 60.4808 32.085 60.4556 32.1196C60.4304 32.1542 60.3931 32.178 60.3511 32.1863H60.0796C60.0583 32.1912 60.0362 32.1915 60.0147 32.1871C59.9933 32.1828 59.973 32.1739 59.9553 32.161C59.9376 32.1481 59.9229 32.1316 59.9122 32.1125C59.9014 32.0935 59.8949 32.0723 59.893 32.0505L59.8082 31.1852C59.8111 31.1485 59.826 31.1137 59.8505 31.0861C59.875 31.0586 59.9078 31.0398 59.9439 31.0325V30.9986ZM58.3999 30.9986H58.6714C58.7732 30.9986 58.8411 30.9986 58.858 31.1343L58.9429 31.9996C58.9391 32.0388 58.9218 32.0755 58.8939 32.1034C58.8661 32.1313 58.8294 32.1486 58.7901 32.1523H58.5187C58.4338 32.1523 58.366 32.1523 58.366 32.0166L58.2811 31.1513C58.2811 31.0495 58.2812 30.9816 58.4169 30.9646L58.3999 30.9986ZM56.8729 30.9986H57.1444C57.1657 30.9936 57.1878 30.9933 57.2093 30.9977C57.2307 31.002 57.251 31.011 57.2687 31.0238C57.2864 31.0367 57.3011 31.0532 57.3119 31.0723C57.3226 31.0914 57.3291 31.1125 57.331 31.1343L57.4158 31.9826C57.4158 32.0675 57.4158 32.1693 57.2801 32.1693H57.0086C56.9238 32.1693 56.822 32.1693 56.822 32.0336L56.7372 31.1682C56.7321 31.1257 56.7432 31.0829 56.7684 31.0483C56.7936 31.0137 56.8309 30.9899 56.8729 30.9816V30.9986ZM55.3968 30.9986H55.6682C55.6896 30.9936 55.7117 30.9933 55.7332 30.9977C55.7546 31.002 55.7749 31.011 55.7926 31.0238C55.8103 31.0367 55.825 31.0532 55.8357 31.0723C55.8465 31.0914 55.853 31.1125 55.8549 31.1343L55.9397 31.9996C55.9368 32.0364 55.9219 32.0711 55.8974 32.0987C55.8729 32.1262 55.8401 32.1451 55.804 32.1523H55.5325C55.5111 32.161 55.4878 32.1642 55.4649 32.1614C55.442 32.1586 55.4201 32.15 55.4014 32.1364C55.3827 32.1228 55.3678 32.1047 55.3581 32.0837C55.3484 32.0627 55.3442 32.0396 55.3459 32.0166L55.261 31.1513C55.2595 31.1094 55.272 31.0683 55.2966 31.0345C55.3212 31.0006 55.3565 30.976 55.3968 30.9646V30.9986ZM53.8019 30.9986H54.0734C54.1582 30.9986 54.2261 30.9986 54.26 31.1343L54.3448 31.9826C54.3472 32.0063 54.3446 32.0302 54.3371 32.0528C54.3297 32.0754 54.3176 32.0961 54.3016 32.1137C54.2856 32.1313 54.266 32.1454 54.2443 32.155C54.2225 32.1645 54.199 32.1694 54.1752 32.1693H53.9037C53.8612 32.1744 53.8184 32.1632 53.7837 32.138C53.7491 32.1129 53.7253 32.0755 53.7171 32.0336V31.1682C53.7121 31.1469 53.7118 31.1248 53.7162 31.1033C53.7205 31.0819 53.7295 31.0616 53.7423 31.0439C53.7552 31.0262 53.7717 31.0115 53.7908 31.0008C53.8098 30.99 53.831 30.9835 53.8528 30.9816L53.8019 30.9986ZM52.3597 30.9986H52.6312C52.716 30.9986 52.8178 30.9986 52.8178 31.1343L52.9027 31.9996C52.9042 32.0414 52.8917 32.0826 52.8671 32.1164C52.8425 32.1503 52.8072 32.1749 52.7669 32.1863H52.4954C52.4741 32.1912 52.452 32.1915 52.4305 32.1871C52.4091 32.1828 52.3888 32.1739 52.3711 32.161C52.3534 32.1481 52.3387 32.1316 52.328 32.1125C52.3172 32.0935 52.3107 32.0723 52.3088 32.0505L52.224 31.1852C52.2216 31.1651 52.2233 31.1448 52.2288 31.1254C52.2344 31.1059 52.2438 31.0878 52.2564 31.072C52.269 31.0562 52.2847 31.0431 52.3024 31.0334C52.3201 31.0237 52.3396 31.0176 52.3597 31.0155V30.9986ZM50.8157 30.9986H51.0872C51.1086 30.9898 51.1319 30.9867 51.1548 30.9895C51.1778 30.9923 51.1996 31.0009 51.2183 31.0145C51.237 31.0281 51.2519 31.0462 51.2616 31.0672C51.2714 31.0882 51.2755 31.1113 51.2738 31.1343L51.3587 31.9826C51.3587 32.0675 51.3587 32.1693 51.2229 32.1693H50.9515C50.8666 32.1693 50.7648 32.1693 50.7648 32.0336L50.68 31.1682C50.6749 31.1257 50.6861 31.0829 50.7112 31.0483C50.7364 31.0137 50.7737 30.9899 50.8157 30.9816V30.9986ZM49.3566 30.9986H49.6281C49.7129 30.9986 49.8147 30.9986 49.8147 31.1343L49.8995 31.9996C49.9045 32.0209 49.9048 32.0431 49.9004 32.0645C49.896 32.086 49.8871 32.1062 49.8743 32.1239C49.8614 32.1416 49.8449 32.1563 49.8258 32.1671C49.8067 32.1779 49.7856 32.1844 49.7638 32.1863H49.4923C49.4075 32.1863 49.3057 32.1862 49.3057 32.0505L49.2887 31.2361C49.2887 31.1513 49.2887 31.0495 49.4245 31.0495L49.3566 30.9986ZM47.8296 30.9986H48.101C48.1859 30.9986 48.2877 30.9986 48.2877 31.1343L48.3725 31.9996C48.3714 32.0408 48.3579 32.0807 48.3336 32.114C48.3094 32.1473 48.2756 32.1725 48.2368 32.1863H47.9653C47.943 32.1886 47.9205 32.1865 47.899 32.1801C47.8775 32.1736 47.8575 32.163 47.8401 32.1488C47.8228 32.1346 47.8084 32.1171 47.7979 32.0973C47.7873 32.0776 47.7808 32.0559 47.7787 32.0336L47.6938 31.1852C47.6938 31.1004 47.6938 30.9986 47.8296 30.9986ZM46.3704 30.8798H46.6419C46.7267 30.8798 46.8116 30.8798 46.8285 31.0155L46.9134 31.8808C46.9088 31.9234 46.8919 31.9637 46.8648 31.9969C46.8376 32.03 46.8015 32.0546 46.7607 32.0675H46.4892C46.47 32.0699 46.4505 32.0682 46.432 32.0625C46.4135 32.0567 46.3965 32.0471 46.382 32.0343C46.3676 32.0214 46.356 32.0056 46.3482 31.9879C46.3403 31.9702 46.3363 31.9511 46.3365 31.9317L46.2516 31.0664C46.2516 30.9646 46.2516 30.8968 46.3874 30.8798H46.3704ZM44.521 30.8798H44.7925C44.835 30.8747 44.8778 30.8859 44.9124 30.9111C44.9471 30.9362 44.9709 30.9735 44.9791 31.0155V31.8808C44.9791 31.9657 44.9791 32.0335 44.8434 32.0505H44.5719C44.5506 32.0555 44.5285 32.0558 44.507 32.0514C44.4856 32.047 44.4653 32.0381 44.4476 32.0253C44.4299 32.0124 44.4152 31.9959 44.4044 31.9768C44.3937 31.9577 44.3872 31.9366 44.3853 31.9148V31.0664C44.3804 31.0451 44.3801 31.023 44.3844 31.0015C44.3888 30.9801 44.3977 30.9598 44.4106 30.9421C44.4234 30.9244 44.44 30.9097 44.459 30.899C44.4781 30.8882 44.4992 30.8817 44.521 30.8798ZM42.9431 30.8798H43.2146C43.2346 30.8774 43.255 30.8791 43.2744 30.8847C43.2939 30.8902 43.312 30.8996 43.3278 30.9122C43.3436 30.9248 43.3567 30.9405 43.3664 30.9582C43.3761 30.976 43.3821 30.9954 43.3843 31.0155L43.4691 31.8808C43.4691 31.9657 43.4691 32.0335 43.3334 32.0505H43.0619C42.977 32.0505 42.9092 32.0505 42.8752 31.9148L42.7904 31.0664C42.7904 30.9816 42.7904 30.8798 42.9261 30.8798H42.9431ZM41.0259 30.8798H41.2973C41.3398 30.8747 41.3827 30.8859 41.4173 30.9111C41.4519 30.9362 41.4757 30.9735 41.484 31.0155L41.5688 31.8808C41.5665 31.9242 41.5505 31.9656 41.523 31.9992C41.4956 32.0328 41.4581 32.0567 41.4161 32.0675H41.1446C41.1254 32.0699 41.1059 32.0682 41.0875 32.0625C41.069 32.0567 41.0519 32.0471 41.0375 32.0343C41.023 32.0214 41.0115 32.0056 41.0036 31.9879C40.9958 31.9702 40.9918 31.9511 40.9919 31.9317L40.9071 31.0834C40.9021 31.0621 40.9018 31.04 40.9062 31.0185C40.9106 30.9971 40.9195 30.9768 40.9323 30.9591C40.9452 30.9414 40.9618 30.9267 40.9808 30.9159C40.9999 30.9052 41.021 30.8986 41.0428 30.8968L41.0259 30.8798ZM39.7024 30.8798H39.9739C39.9931 30.8774 40.0126 30.8791 40.0311 30.8848C40.0496 30.8906 40.0666 30.9002 40.0811 30.913C40.0955 30.9259 40.1071 30.9417 40.1149 30.9594C40.1228 30.977 40.1268 30.9962 40.1266 31.0155L40.2114 31.8639C40.2167 31.8843 40.2172 31.9057 40.2128 31.9263C40.2084 31.9469 40.1992 31.9662 40.186 31.9827C40.1729 31.9991 40.156 32.0123 40.1369 32.0211C40.1177 32.03 40.0968 32.0342 40.0757 32.0336H39.8042C39.7617 32.0386 39.7189 32.0275 39.6843 32.0023C39.6497 31.9771 39.6259 31.9398 39.6176 31.8978L39.5328 31.0325C39.532 30.9884 39.547 30.9454 39.5749 30.9112C39.6029 30.877 39.6421 30.8539 39.6855 30.8459L39.7024 30.8798ZM38.2942 30.8798H38.5657C38.6505 30.8798 38.7523 30.8798 38.7523 31.0155L38.8371 31.8808C38.8422 31.9233 38.8311 31.9662 38.8059 32.0008C38.7807 32.0354 38.7434 32.0592 38.7014 32.0675H38.4299C38.4063 32.0699 38.3824 32.0672 38.3598 32.0598C38.3372 32.0523 38.3164 32.0402 38.2988 32.0242C38.2812 32.0082 38.2672 31.9887 38.2576 31.9669C38.2481 31.9451 38.2432 31.9216 38.2433 31.8978L38.1585 31.0495C38.1585 30.9646 38.1585 30.8628 38.2942 30.8628V30.8798ZM37.0217 30.8798H37.2931C37.378 30.8798 37.4628 30.8798 37.4628 31.0155L37.5477 31.8808C37.5477 31.9657 37.5476 32.0335 37.4119 32.0675H37.1404C37.1191 32.0724 37.097 32.0727 37.0755 32.0684C37.0541 32.064 37.0338 32.0551 37.0161 32.0422C36.9984 32.0294 36.9837 32.0128 36.973 31.9938C36.9622 31.9747 36.9557 31.9536 36.9538 31.9317L36.869 31.0834C36.8666 31.0611 36.8687 31.0386 36.8752 31.0171C36.8816 30.9956 36.8922 30.9756 36.9064 30.9582C36.9206 30.9409 36.9381 30.9265 36.9579 30.916C36.9777 30.9054 36.9994 30.8989 37.0217 30.8968V30.8798ZM35.7152 30.8459H35.9867C36.008 30.8409 36.0302 30.8406 36.0516 30.845C36.073 30.8493 36.0933 30.8583 36.111 30.8711C36.1287 30.884 36.1434 30.9005 36.1542 30.9196C36.1649 30.9386 36.1715 30.9598 36.1733 30.9816L36.2582 31.8469C36.2584 31.8936 36.241 31.9387 36.2096 31.9732C36.1782 32.0078 36.135 32.0293 36.0885 32.0336H35.817C35.7974 32.0398 35.7765 32.0409 35.7563 32.0366C35.7361 32.0323 35.7174 32.0229 35.702 32.0092C35.6866 31.9955 35.675 31.978 35.6684 31.9585C35.6618 31.939 35.6604 31.9181 35.6643 31.8978L35.5795 31.0325C35.5708 31.0111 35.5676 30.9878 35.5704 30.9649C35.5732 30.9419 35.5818 30.9201 35.5954 30.9014C35.609 30.8827 35.6271 30.8678 35.6481 30.8581C35.6691 30.8484 35.6922 30.8442 35.7152 30.8459ZM34.4088 30.8459H34.6803C34.7016 30.8409 34.7237 30.8406 34.7451 30.845C34.7666 30.8493 34.7869 30.8583 34.8046 30.8711C34.8223 30.884 34.837 30.9005 34.8477 30.9196C34.8585 30.9386 34.865 30.9598 34.8669 30.9816L34.9517 31.8469C34.9457 31.8845 34.93 31.9199 34.9062 31.9496C34.8824 31.9794 34.8513 32.0024 34.816 32.0166H34.5445C34.5232 32.0215 34.5011 32.0218 34.4796 32.0175C34.4582 32.0131 34.4379 32.0042 34.4202 31.9913C34.4025 31.9784 34.3878 31.9619 34.377 31.9429C34.3663 31.9238 34.3597 31.9027 34.3579 31.8808L34.273 31.0155C34.268 30.973 34.2791 30.9302 34.3043 30.8956C34.3295 30.861 34.3668 30.8372 34.4088 30.8289V30.8459ZM31.3378 30.8459H31.6093C31.6289 30.8396 31.6498 30.8386 31.67 30.8428C31.6901 30.8471 31.7088 30.8566 31.7243 30.8703C31.7397 30.8839 31.7512 30.9014 31.7578 30.9209C31.7645 30.9405 31.7659 30.9614 31.7619 30.9816L31.8468 31.8469C31.8492 31.8661 31.8475 31.8856 31.8418 31.9041C31.836 31.9226 31.8264 31.9396 31.8136 31.9541C31.8007 31.9685 31.7849 31.9801 31.7672 31.9879C31.7496 31.9958 31.7304 31.9998 31.7111 31.9996H31.4396C31.3547 31.9996 31.2869 31.9996 31.2529 31.8639L31.1681 30.9986C31.1674 30.9544 31.1823 30.9114 31.2103 30.8773C31.2382 30.8431 31.2774 30.82 31.3208 30.8119L31.3378 30.8459ZM29.8277 30.8459H30.0992C30.1417 30.8408 30.1845 30.8519 30.2192 30.8771C30.2538 30.9023 30.2776 30.9396 30.2858 30.9816L30.3707 31.8469C30.3684 31.8902 30.3524 31.9317 30.3249 31.9653C30.2975 31.9988 30.26 32.0228 30.218 32.0336H29.9465C29.9273 32.036 29.9078 32.0343 29.8893 32.0285C29.8709 32.0228 29.8538 32.0132 29.8394 32.0003C29.8249 31.9875 29.8133 31.9717 29.8055 31.954C29.7976 31.9363 29.7936 31.9172 29.7938 31.8978L29.709 31.0664C29.704 31.0451 29.7037 31.023 29.7081 31.0015C29.7124 30.9801 29.7213 30.9598 29.7342 30.9421C29.7471 30.9244 29.7636 30.9097 29.7827 30.899C29.8017 30.8882 29.8229 30.8817 29.8447 30.8798L29.8277 30.8459ZM28.3516 30.8459H28.6231C28.6423 30.8434 28.6618 30.8452 28.6803 30.8509C28.6987 30.8566 28.7158 30.8662 28.7302 30.8791C28.7447 30.8919 28.7562 30.9077 28.7641 30.9254C28.772 30.9431 28.7759 30.9623 28.7758 30.9816L28.8606 31.8469C28.8606 31.8469 28.8606 32.0166 28.7249 32.0336H28.4534C28.3686 32.0336 28.3007 32.0336 28.2668 31.8978L28.1819 31.0325C28.1812 30.9884 28.1962 30.9454 28.2241 30.9112C28.2521 30.877 28.2912 30.8539 28.3347 30.8459H28.3516ZM27.0112 30.8459H27.2827C27.3239 30.847 27.3638 30.8605 27.3971 30.8847C27.4304 30.909 27.4556 30.9428 27.4693 30.9816L27.5542 31.8469C27.5565 31.8692 27.5544 31.8918 27.548 31.9132C27.5416 31.9347 27.5309 31.9547 27.5167 31.9721C27.5025 31.9894 27.4851 32.0038 27.4653 32.0144C27.4455 32.0249 27.4238 32.0314 27.4015 32.0336H27.13C27.0923 32.0338 27.0558 32.02 27.0276 31.995C26.9994 31.9699 26.9815 31.9353 26.9773 31.8978L26.8925 31.0325C26.8875 31.0112 26.8872 30.989 26.8916 30.9676C26.8959 30.9462 26.9049 30.9259 26.9177 30.9082C26.9306 30.8905 26.9471 30.8758 26.9662 30.865C26.9852 30.8543 27.0064 30.8477 27.0282 30.8459H27.0112ZM25.5351 30.8459H25.8066C25.8491 30.8408 25.8919 30.8519 25.9265 30.8771C25.9611 30.9023 25.985 30.9396 25.9932 30.9816L26.0781 31.8469C26.0758 31.8902 26.0598 31.9317 26.0323 31.9653C26.0048 31.9988 25.9674 32.0228 25.9254 32.0336H25.6539C25.6326 32.0385 25.6104 32.0388 25.589 32.0344C25.5675 32.0301 25.5473 32.0212 25.5296 32.0083C25.5119 31.9954 25.4972 31.9789 25.4864 31.9598C25.4756 31.9408 25.4691 31.9196 25.4672 31.8978V31.0495C25.4495 31.0134 25.4467 30.9718 25.4594 30.9337C25.4721 30.8956 25.4993 30.8641 25.5351 30.8459ZM24.2287 30.8459H24.5001C24.585 30.8459 24.6528 30.8459 24.6868 30.9816L24.7716 31.8469C24.7718 31.8936 24.7545 31.9387 24.7231 31.9732C24.6917 32.0078 24.6484 32.0293 24.6019 32.0336H24.3305C24.3113 32.036 24.2918 32.0343 24.2733 32.0285C24.2548 32.0228 24.2378 32.0132 24.2233 32.0003C24.2089 31.9875 24.1973 31.9717 24.1895 31.954C24.1816 31.9363 24.1776 31.9172 24.1778 31.8978L24.0929 31.0325C24.0929 31.0325 24.0929 30.8798 24.2287 30.8459ZM22.7695 30.761H23.041C23.0623 30.7561 23.0844 30.7558 23.1059 30.7601C23.1273 30.7645 23.1476 30.7734 23.1653 30.7863C23.183 30.7992 23.1977 30.8157 23.2085 30.8348C23.2192 30.8538 23.2258 30.875 23.2276 30.8968L23.3125 31.7621C23.3127 31.7998 23.299 31.8363 23.2739 31.8645C23.2488 31.8927 23.2142 31.9106 23.1767 31.9148H22.9053C22.8839 31.9197 22.8618 31.92 22.8404 31.9157C22.8189 31.9113 22.7986 31.9024 22.7809 31.8895C22.7632 31.8766 22.7485 31.8601 22.7378 31.8411C22.727 31.822 22.7205 31.8008 22.7186 31.779V30.8459C22.7197 30.8047 22.7333 30.7648 22.7575 30.7315C22.7817 30.6981 22.8155 30.673 22.8543 30.6592L22.7695 30.761ZM90.1449 4.73388L81.8311 20.2246L81.373 20.004L89.6868 4.47938L90.1449 4.73388ZM92.9784 5.93853L84.6646 21.4293L84.2065 21.1748L92.5372 5.66706L92.9784 5.93853ZM92.4015 4.03824L84.0877 19.5459L83.6296 19.3254L91.9434 3.8007L92.4015 4.03824Z" fill="white"/>
</g>
<defs>
<clipPath id="clip0_255_381">
<rect width="105.279" height="98.6792" fill="white" transform="translate(0 0.0341797)"/>
</clipPath>
</defs>
</svg>
