<svg width="45" height="98" viewBox="0 0 45 98" fill="none" xmlns="http://www.w3.org/2000/svg">
<g clip-path="url(#clip0_255_377)">
<path fill-rule="evenodd" clip-rule="evenodd" d="M5.49726 11.3523H18.6635V10.0119H25.7557V11.3523H38.922C40.3799 11.3523 41.7782 11.9314 42.8091 12.9624C43.8401 13.9933 44.4192 15.3916 44.4192 16.8495V97.8154H39.3292V22.3298H4.98825V97.8154H0V16.8495C-6.93025e-06 15.3945 0.576835 13.9988 1.60411 12.9684C2.63138 11.9379 4.02527 11.3567 5.48029 11.3523H5.49726ZM26.9603 4.68428C27.0103 4.72006 27.0526 4.76553 27.0847 4.818C27.1168 4.87047 27.138 4.92886 27.147 4.98969C27.1508 5.11613 27.1152 5.24063 27.0452 5.34599C26.9674 5.44093 26.8597 5.50672 26.7398 5.53263L25.5521 5.71926C25.4252 5.72675 25.2996 5.69085 25.1958 5.61746C25.1405 5.58754 25.0941 5.54353 25.0613 5.48989C25.0286 5.43626 25.0106 5.3749 25.0091 5.31206C24.965 5.19154 24.965 5.0593 25.0091 4.93879C25.0944 4.83568 25.2157 4.76894 25.3485 4.75215L26.5022 4.58248C26.5681 4.56997 26.6359 4.57264 26.7006 4.59028C26.7653 4.60792 26.8251 4.64007 26.8755 4.68428H26.9603ZM24.4323 3.71717C24.3652 3.72505 24.2972 3.71853 24.2328 3.69805C24.1685 3.67757 24.1092 3.6436 24.059 3.59841L23.9402 3.47964C23.9437 3.42313 23.9437 3.36647 23.9402 3.30997C23.9297 3.24251 23.9297 3.17383 23.9402 3.10637C23.9713 3.03914 24.0113 2.97637 24.059 2.91973L24.8395 2.02049C24.9248 1.93438 25.0407 1.88558 25.1619 1.88475C25.2264 1.87298 25.2929 1.87769 25.3552 1.89845C25.4175 1.91921 25.4735 1.95535 25.5182 2.00352C25.5695 2.04039 25.6116 2.08872 25.641 2.14467C25.6705 2.20063 25.6865 2.26267 25.6878 2.32589C25.6919 2.38754 25.6835 2.44938 25.6631 2.5077C25.6427 2.56601 25.6107 2.6196 25.5691 2.66523L24.7886 3.56447C24.7068 3.66019 24.5914 3.72091 24.4662 3.73414L24.4323 3.71717ZM22.5829 2.75006C22.5434 2.79621 22.4937 2.83251 22.4378 2.85607C22.3818 2.87963 22.3211 2.88981 22.2605 2.8858C22.1472 2.88689 22.0379 2.84436 21.9551 2.76703C21.8629 2.6969 21.8019 2.59329 21.7854 2.47859V1.20608C21.7787 1.14273 21.7875 1.07869 21.8111 1.01954C21.8348 0.960386 21.8726 0.907926 21.9212 0.866741C21.966 0.822833 22.019 0.788233 22.0773 0.764936C22.1355 0.741639 22.1978 0.730107 22.2605 0.731006C22.3232 0.730107 22.3855 0.741639 22.4438 0.764936C22.502 0.788233 22.5551 0.822833 22.5999 0.866741C22.645 0.914114 22.6803 0.970029 22.7036 1.03121C22.7269 1.09239 22.7378 1.15761 22.7356 1.22304V2.41072C22.737 2.47681 22.7222 2.54224 22.6927 2.60136C22.6631 2.66048 22.6196 2.71152 22.5659 2.75006H22.5829ZM19.7325 3.42874L18.9689 2.51253C18.9689 2.51253 18.9689 2.51253 18.9689 2.39376C18.9689 2.39376 18.9689 2.39376 18.9689 2.27499C18.9586 2.19615 18.9586 2.1163 18.9689 2.03745C19.0179 1.95838 19.0747 1.88448 19.1386 1.81688C19.1882 1.77691 19.2452 1.7473 19.3064 1.72981C19.3676 1.71232 19.4317 1.70732 19.4949 1.71508C19.6136 1.73384 19.7217 1.79394 19.8003 1.88475L20.5638 2.8349C20.6429 2.93586 20.6794 3.0637 20.6656 3.1912C20.6618 3.25151 20.6446 3.3102 20.6152 3.36302C20.5859 3.41585 20.5451 3.46148 20.496 3.4966C20.3959 3.57869 20.269 3.62098 20.1397 3.61537C20.0125 3.59613 19.8973 3.52944 19.8173 3.42874H19.7325ZM19.3931 5.12542C19.3603 5.24668 19.2888 5.35391 19.1895 5.43083C19.0752 5.47705 18.9475 5.47705 18.8332 5.43083L17.6455 5.19329C17.5531 5.17679 17.4692 5.12884 17.408 5.05755C17.3555 5.02021 17.3096 4.97433 17.2723 4.92182C17.3039 4.80003 17.3756 4.69245 17.4759 4.61642C17.5901 4.57019 17.7179 4.57019 17.8322 4.61642L19.0198 4.85395C19.0817 4.86594 19.1406 4.89011 19.193 4.92507C19.2454 4.96002 19.2904 5.00506 19.3252 5.05755C19.349 5.11393 19.3613 5.17451 19.3613 5.23571C19.3613 5.2969 19.349 5.35748 19.3252 5.41386L19.3931 5.12542ZM22.2096 3.0894C22.595 3.09155 22.976 3.17044 23.3306 3.32148C23.6851 3.47252 24.006 3.69267 24.2745 3.96908C24.543 4.24549 24.7538 4.57263 24.8945 4.93139C25.0352 5.29015 25.103 5.67334 25.094 6.0586V9.85918H19.3252V6.0586C19.3214 5.67947 19.3946 5.30351 19.5405 4.95352C19.6863 4.60353 19.9017 4.28681 20.1736 4.02258C20.4396 3.75301 20.7566 3.53915 21.1062 3.39349C21.4558 3.24783 21.8309 3.17329 22.2096 3.17423V3.0894ZM22.0399 32.6966C23.0888 32.6999 24.1132 33.0138 24.984 33.5986C25.8547 34.1835 26.5327 35.013 26.9326 35.9827C27.3324 36.9524 27.4362 38.0188 27.2307 39.0474C27.0253 40.076 26.5198 41.0207 25.7781 41.7623C25.0365 42.504 24.0917 43.0095 23.0632 43.2149C22.0346 43.4204 20.9682 43.3166 19.9985 42.9168C19.0288 42.5169 18.1992 41.8389 17.6144 40.9682C17.0296 40.0975 16.7157 39.073 16.7124 38.0242C16.7101 37.3239 16.8464 36.6301 17.1133 35.9827C17.3803 35.3353 17.7726 34.7471 18.2678 34.252C18.7629 33.7568 19.3511 33.3645 19.9985 33.0975C20.6459 32.8306 21.3397 32.6943 22.0399 32.6966ZM14.4727 52.5478V68.9378C14.4727 69.3878 14.294 69.8193 13.9758 70.1375C13.6576 70.4557 13.226 70.6345 12.776 70.6345C12.3261 70.6345 11.8945 70.4557 11.5763 70.1375C11.2581 69.8193 11.0794 69.3878 11.0794 68.9378V49.5277C11.0838 48.7146 11.4088 47.936 11.9838 47.3611C12.5587 46.7861 13.3373 46.4611 14.1504 46.4567H30.4216C31.2347 46.4611 32.0132 46.7861 32.5882 47.3611C33.1631 47.936 33.4881 48.7146 33.4926 49.5277V68.9887C33.4926 69.4387 33.3138 69.8702 32.9956 70.1884C32.6774 70.5066 32.2459 70.6854 31.7959 70.6854C31.3459 70.6854 30.9143 70.5066 30.5962 70.1884C30.278 69.8702 30.0992 69.4387 30.0992 68.9887V52.5987H29.5732L28.9794 94.914C28.9749 95.6821 28.6678 96.4175 28.1247 96.9607C27.5815 97.5038 26.8462 97.8109 26.0781 97.8154C25.307 97.8154 24.5673 97.5103 24.0205 96.9666C23.4737 96.423 23.1642 95.6851 23.1598 94.914V70.5327H20.8183V94.914C20.8139 95.6821 20.5068 96.4175 19.9636 96.9607C19.4205 97.5038 18.6851 97.8109 17.917 97.8154C17.1489 97.8109 16.4135 97.5038 15.8704 96.9607C15.3272 96.4175 15.0201 95.6821 15.0157 94.914V52.5987L14.4727 52.5478Z" fill="white"/>
</g>
<defs>
<clipPath id="clip0_255_377">
<rect width="44.4192" height="97.0844" fill="white" transform="translate(0 0.730957)"/>
</clipPath>
</defs>
</svg>
