<svg width="66" height="99" viewBox="0 0 66 99" fill="none" xmlns="http://www.w3.org/2000/svg">
<g clip-path="url(#clip0_255_379)">
<path fill-rule="evenodd" clip-rule="evenodd" d="M56.5847 11.1473C56.8901 6.71899 54.396 -1.0179 46.5064 0.152815C40.6189 1.8495 3.93653 11.4188 1.7478 13.7263C0.627055 14.9114 0.0175944 16.4899 0.0511179 18.1207L1.10306 92.4016C1.11992 93.2188 1.29797 94.0247 1.62697 94.773C1.95598 95.5213 2.42948 96.1972 3.02032 96.7621C3.60254 97.3189 4.28888 97.7553 5.04003 98.0465C5.79118 98.3376 6.59239 98.4777 7.39777 98.4588L59.4521 97.6613C60.2652 97.6569 61.0694 97.4916 61.8183 97.1747C62.5672 96.8579 63.246 96.396 63.8154 95.8155C64.3848 95.235 64.8337 94.5475 65.136 93.7927C65.4384 93.0378 65.5883 92.2306 65.5771 91.4175L64.3555 17.0179C64.3198 15.3948 63.643 13.8518 62.473 12.7263C61.303 11.6008 59.7349 10.9843 58.1117 11.0116L56.5847 11.1473ZM15.8642 12.0635L46.7439 3.15595C52.8689 2.0531 53.1065 8.44961 52.9707 11.0795L15.8642 12.0635ZM20.1229 65.0341H25.3657C26.1011 67.2588 27.1402 69.3714 28.4536 71.3118C26.0266 70.5319 23.8217 69.1822 22.0232 67.3755C21.3 66.6757 20.6517 65.9023 20.089 65.068L20.1229 65.0341ZM44.5043 67.3416C42.5928 69.264 40.2215 70.6658 37.6157 71.4136C38.9834 69.4596 40.0581 67.316 40.8055 65.051H46.4215C45.8641 65.8845 45.2216 66.6579 44.5043 67.3585V67.3416ZM30.2861 71.719C28.6801 69.7191 27.4186 67.4656 26.5533 65.051H32.6614V72.0075C31.8525 71.9682 31.0474 71.8718 30.2521 71.719H30.2861ZM17.3912 56.7203H23.9404C23.9806 59.1424 24.3342 61.5491 24.9924 63.8803H19.3933C18.1628 61.6882 17.4762 59.2328 17.3912 56.7203ZM33.8661 47.1849V40.2625C34.5195 40.297 35.1708 40.3649 35.8172 40.4661C37.4228 42.5071 38.6785 44.8005 39.533 47.2528L33.8661 47.1849ZM39.9063 48.3557C40.6014 50.6866 40.9781 53.1008 41.0261 55.5326H33.8661V48.3557H39.9063ZM32.6614 47.1849H26.5533C27.4008 44.7849 28.6328 42.5386 30.2012 40.5339C30.9967 40.3824 31.8017 40.286 32.6105 40.2455L32.6614 47.1849ZM32.6614 48.3557V55.5326H25.0942C25.1443 53.1009 25.5209 50.687 26.214 48.3557H32.6614ZM23.9404 55.5326H17.3912C17.4768 53.0149 18.1632 50.5541 19.3933 48.3557H24.9924C24.3329 50.6924 23.9793 53.1049 23.9404 55.5326ZM25.0942 56.7203H32.6614V63.8803H26.214C25.5354 61.552 25.1646 59.1449 25.1112 56.7203H25.0942ZM33.8491 65.0341H39.516C38.6677 67.4891 37.4115 69.7835 35.8003 71.8208C35.1555 71.9056 34.4938 71.9735 33.8491 72.0244V65.0341ZM33.8491 63.8634V56.7203H41.0091C40.9619 59.1467 40.5851 61.5554 39.8893 63.8803L33.8491 63.8634ZM42.1629 56.7033H49.1193C49.0217 59.2442 48.3116 61.7239 47.0493 63.9312H41.1279C41.7844 61.5996 42.138 59.1931 42.1798 56.7712L42.1629 56.7033ZM42.1629 55.5157C42.1275 53.0864 41.768 50.6728 41.0939 48.3387H47.0832C48.3175 50.5435 49.0151 53.008 49.1193 55.5326L42.1629 55.5157ZM46.3537 47.168H40.7546C39.9994 44.8956 38.9255 42.7419 37.5648 40.7715C40.1675 41.5089 42.5386 42.8988 44.4534 44.8096C45.1582 45.5217 45.7997 46.2938 46.3706 47.1171L46.3537 47.168ZM22.0232 44.8944C23.8201 43.0972 26.0269 41.7638 28.4536 41.009C27.1306 42.9133 26.0905 44.9993 25.3657 47.2019H20.1229C20.6946 46.3792 21.3361 45.6071 22.0402 44.8944H22.0232Z" fill="white"/>
</g>
<defs>
<clipPath id="clip0_255_379">
<rect width="65.4921" height="98.4247" fill="white" transform="translate(0 0.0341797)"/>
</clipPath>
</defs>
</svg>
