<svg width="113" height="97" viewBox="0 0 113 97" fill="none" xmlns="http://www.w3.org/2000/svg">
<g clip-path="url(#clip0_255_383)">
<path fill-rule="evenodd" clip-rule="evenodd" d="M21.2261 12.302L20.2421 13.0316L17.5274 15.1185L15.5762 16.8152C14.7994 17.4718 14.0682 18.1804 13.3875 18.9361C12.6409 19.7335 11.8604 20.6328 11.063 21.4641L8.72157 24.4503C7.94109 25.5192 7.24545 26.7069 6.46498 27.8437C6.07438 28.4541 5.72302 29.0889 5.41303 29.744C5.05673 30.3717 4.70043 31.0334 4.36109 31.7121C3.69938 33.0695 3.15644 34.5286 2.54563 35.9878C2.3081 36.7682 2.0536 37.5148 1.81606 38.2783C1.54652 39.0556 1.32553 39.8489 1.15435 40.6536C0.757343 42.2728 0.46827 43.9166 0.289041 45.574C0.204207 46.4224 0.0684724 47.2707 0.0345387 48.1021C0.000604994 48.9335 0.0345387 49.7988 0.0345387 50.6811C0.00997147 51.1162 0.00997147 51.5524 0.0345387 51.9875L0.153306 53.277C0.255107 54.1423 0.289042 54.9737 0.40781 55.8899L0.950749 58.5876C1.02359 59.0223 1.11988 59.4528 1.23919 59.8771L1.66336 61.1157C1.95179 61.9301 2.18933 62.8124 2.5117 63.6098L3.59758 65.9852C3.94305 66.7778 4.35751 67.5386 4.83616 68.2587C5.31123 69.0222 5.70147 69.7348 6.21048 70.4983L7.73749 72.4835L9.43418 74.3838C10.5657 75.6085 11.791 76.7431 13.099 77.7771C15.5668 79.6781 18.2629 81.2627 21.1243 82.4939C23.6781 83.5445 26.3333 84.3291 29.0479 84.8353C30.2548 85.0603 31.4723 85.2246 32.6957 85.3274C33.2726 85.3274 33.8495 85.4461 34.3924 85.4631H35.9873H37.4974H38.9056H40.1951L41.3488 85.3274C42.0954 85.2425 42.7571 85.1916 43.317 85.0898L44.7761 84.8353C45.5566 84.7166 45.9638 84.6317 45.9638 84.6317L44.7422 84.8014L43.3679 84.8523C42.791 84.8523 42.1293 84.9371 41.3997 85.022H40.229H37.4804C37.0053 85.022 36.5133 85.022 36.0043 85.022L34.4094 84.9202L32.7127 84.7166C31.559 84.5978 30.3882 84.2924 29.1666 84.0888C26.5301 83.4587 23.9615 82.5722 21.4976 81.442C17.3396 79.5148 13.6296 76.7409 10.6049 73.2979L9.12877 71.4485C8.6537 70.7698 8.1956 70.0911 7.70356 69.4125C5.99324 66.6383 4.69044 63.6327 3.83512 60.4879L3.51274 59.3172C3.42318 58.9139 3.35522 58.5061 3.30914 58.0956L2.90194 55.7033C2.90194 54.8888 2.80014 54.0066 2.7662 53.26V52.0554C2.7415 51.6485 2.7415 51.2406 2.7662 50.8338C2.7662 50.0363 2.7662 49.2389 2.88497 48.4414C3.00374 47.644 3.12251 46.8805 3.20734 46.1C3.45851 44.5715 3.79842 43.0589 4.22535 41.5699C4.42304 40.839 4.66094 40.1197 4.93796 39.4151C5.19246 38.7025 5.43 38.0068 5.6845 37.2942C6.31228 35.9708 6.88915 34.6474 7.55086 33.4258C7.90716 32.815 8.2465 32.2381 8.58583 31.6443C8.9045 31.0595 9.2557 30.493 9.63778 29.9476C10.4183 28.8956 11.0969 27.8097 11.8774 26.8426C12.6579 25.8755 13.4214 25.0441 14.134 24.1958L16.3906 21.9731C17.0201 21.3212 17.6948 20.7146 18.4096 20.1577L20.1063 18.6816C21.294 17.8163 22.2951 17.1546 22.9228 16.7134L23.9408 16.0178L21.2261 12.302ZM66.5955 94.7609C66.7301 94.5328 66.9401 94.3587 67.1894 94.2689C67.5117 93.5563 68.0547 93.4206 69.3272 92.9964C72.3643 92.5213 75.3674 92.0802 78.4384 91.7917L81.4755 90.0102C82.2559 88.5341 83.1721 87.0071 83.9017 85.531C84.3259 85.531 84.6313 85.531 85.0215 85.3952C84.9367 87.2446 84.801 89.077 84.7161 90.9604C85.5645 90.5701 86.4128 90.2138 87.2103 89.7897C87.3969 89.7897 87.6344 89.6709 87.6853 89.7897L85.31 91.4864C85.3378 91.7678 85.2657 92.0501 85.1064 92.2838C83.8848 92.8437 82.6462 93.3527 81.3906 93.8787C78.7507 94.7162 76.0508 95.3515 73.3144 95.779C73.3433 95.8845 73.3433 95.9958 73.3144 96.1013C73.3037 96.1421 73.2824 96.1793 73.2526 96.2092C73.2227 96.239 73.1855 96.2603 73.1447 96.271L72.8393 96.4067C72.8393 96.4067 72.8393 96.6273 72.7036 96.6443C71.901 96.889 71.051 96.9356 70.2264 96.78C70.0654 96.6311 69.9631 96.4293 69.9382 96.2113C69.9133 95.9934 69.9674 95.7738 70.0907 95.5923C68.92 95.5923 67.8171 95.9147 66.6973 95.0324C66.5786 94.9137 66.5616 94.9137 66.5955 94.744V94.7609ZM66.7143 94.9306L67.0197 94.5234L67.4099 94.4216L67.1045 94.8119L66.7143 94.9306ZM69.5817 94.0314V94.218V94.0314ZM72.0419 93.7769H72.2116V93.9635V93.7769H72.0419ZM79.7957 92.9285V93.1152V92.9285ZM79.4394 92.9285V93.1152V92.9285ZM79.0831 92.9285V93.1152V92.9285ZM78.7268 92.9285V93.1152V92.9285ZM78.3705 92.9285V93.0982V92.9116V92.9285ZM78.0142 92.9285H78.116V93.1152V92.9285H78.0142ZM77.6579 92.9285H77.7767V93.1152V92.9285H77.6579ZM77.3355 92.9285V93.1152V92.9285ZM77.0132 92.9285H77.115V93.1152H77.0301V92.9285H77.0132ZM76.6569 92.9285V93.1152H76.572V92.9285H76.6569ZM76.3515 92.9285V93.1152V92.9285ZM75.9952 92.9285V93.1152V92.9285ZM75.6898 92.9285V93.1152H75.571V93.5054L75.6898 92.9285ZM75.3674 92.9285V93.1152V92.9285ZM75.0281 92.9285H75.1299V93.1152H75.0111V93.5054L75.0281 92.9285ZM74.6039 92.9285V93.1152V92.9455V92.9285ZM74.2815 92.9285V93.1152H74.1627V93.5054L74.2815 92.9285ZM73.8573 92.9285V93.1152V92.9455V92.9285ZM73.5689 92.9285V93.0982V92.9116V92.9285ZM73.2635 92.9285V93.1152V92.9285ZM72.9751 92.9285V93.1152V92.9285ZM72.6527 92.9285V93.1152V92.9285ZM72.3643 92.9285V93.1152H72.2455V92.9285H72.3643ZM71.6856 92.9285V93.1152V92.9285ZM71.3632 92.9285H71.482V93.1152V92.9285H71.3632ZM71.0239 92.9285V93.1152V92.9285ZM70.7524 92.9285V93.1152H70.6336V92.9285H70.7524ZM70.447 92.9285V93.1152V92.9285ZM70.1586 92.9285H70.2604V93.1152H70.1416V92.9285H70.1586ZM69.8362 92.9285V93.1152V92.9285ZM83.9017 85.497L82.5104 90.112H82.3917L83.8338 86.4981L83.9017 85.497ZM84.5634 85.6837L83.1382 89.2976H83.0364L84.4616 86.7187L84.5634 85.6837ZM84.3768 85.2934L82.9685 88.9074H82.8498L84.292 85.2934H84.3768ZM90.8072 86.2775L91.7743 85.531C92.4021 85.0559 93.3523 84.3772 94.523 83.4441C95.1168 82.9181 95.7616 82.3412 96.4742 81.7474C97.2491 81.0888 97.9802 80.3803 98.6629 79.6265C99.3925 78.8291 100.19 77.9298 100.987 77.1154C101.785 76.301 102.497 75.1642 103.312 74.1123C104.126 73.0603 104.788 71.8557 105.585 70.7189C105.947 70.4084 106.298 70.0859 106.637 69.7518C106.96 69.0901 107.316 68.4284 107.672 67.7497C108.334 66.4093 108.86 64.9332 109.505 63.4741C109.742 62.7275 109.98 61.947 110.234 61.1666C110.489 60.3861 110.743 59.6396 110.896 58.8251C111.294 57.1946 111.583 55.5396 111.761 53.8708C111.761 53.0225 111.982 52.1741 111.999 51.3428C112.016 50.5114 111.999 49.6461 111.999 48.7638C111.999 48.3396 111.999 47.8985 111.999 47.4743L111.88 46.1679C111.778 45.3026 111.744 44.4712 111.592 43.5889L111.066 41.01C110.947 40.5858 110.896 40.1446 110.76 39.7374L110.37 38.4649C110.082 37.6505 109.844 36.7682 109.522 36.0047L108.419 33.6124C108.076 32.8187 107.661 32.0577 107.18 31.3388C106.705 30.5923 106.315 29.8797 105.789 29.1162C105.263 28.3527 104.805 27.8097 104.279 27.148C103.753 26.4863 103.159 25.8586 102.582 25.2138C101.435 24.0248 100.205 22.9191 98.9004 21.9053C96.444 19.9784 93.746 18.3813 90.8751 17.1546C88.3062 16.1057 85.6411 15.3102 82.9176 14.7792C81.6451 14.5926 80.4574 14.355 79.2867 14.2872L77.59 14.1514H75.8934H74.3833H72.992H71.7026L70.5318 14.2702C69.8023 14.372 69.1406 14.4059 68.5807 14.5077L67.1215 14.7622L65.9338 14.9828L67.1215 14.8131L68.5807 14.6265C69.1406 14.6265 69.8192 14.5247 70.5488 14.4908L71.7195 14.4059H74.3663C74.8584 14.4059 75.3504 14.4059 75.8764 14.4059L77.4543 14.5247L79.151 14.7453C80.3047 14.864 81.4755 15.1355 82.714 15.373C85.3469 15.9891 87.9107 16.8703 90.3661 18.0029C93.0751 19.2972 95.6068 20.9338 97.8994 22.8724C99.1021 23.8932 100.236 24.9929 101.293 26.164L102.803 28.0133C103.278 28.675 103.736 29.3707 104.211 30.0663C106.007 32.8893 107.352 35.9747 108.198 39.2115L108.521 40.4161C108.639 40.7894 108.656 41.2136 108.758 41.6208L109.131 44.047C109.233 44.8445 109.25 45.7437 109.301 46.4563V47.6779C109.301 48.0682 109.301 48.4754 109.301 48.8826C109.301 49.68 109.216 50.4775 109.165 51.2749C109.114 52.0723 108.945 52.8528 108.826 53.6163C108.594 55.1233 108.265 56.6138 107.842 58.0786C107.644 58.8094 107.406 59.5288 107.129 60.2334C106.875 60.946 106.62 61.6416 106.383 62.3203C105.721 63.6607 105.178 64.9671 104.499 66.2227C104.143 66.7996 103.821 67.4104 103.465 67.9194C103.147 68.5047 102.796 69.0712 102.413 69.6161C101.632 70.668 100.953 71.7539 100.173 72.6871C99.3925 73.6202 98.6459 74.5195 97.9163 75.3678L95.6937 77.6075C95.0578 78.2537 94.3775 78.8547 93.6577 79.4059L91.961 80.8821C90.7903 81.7304 89.8062 82.3921 89.1784 82.8332L88.1604 83.5289L90.8751 87.3464L90.8072 86.2775ZM23.0077 8.67113L24.1275 8.04335C25.909 8.39966 27.6227 8.8408 29.5738 9.0444C31.1178 8.24696 32.6957 7.50041 34.2228 6.70297L32.2037 6.3297C32.4985 6.09822 32.8315 5.9202 33.1878 5.80373C34.2906 5.68496 35.3765 5.63406 36.4624 5.51529L38.7868 4.34458L39.9745 3.78467C46.88 -1.50899 51.1557 1.08694 42.2311 5.27776C41.6712 5.65103 41.1452 5.93946 40.6362 6.21093L40.8907 6.04126C40.9893 5.97684 41.0708 5.88952 41.1283 5.78676C41.1474 5.74109 41.1573 5.69206 41.1573 5.64254C41.1573 5.59302 41.1474 5.544 41.1283 5.49833C41.0793 5.47003 41.0237 5.45514 40.9671 5.45514C40.9105 5.45514 40.8549 5.47003 40.8059 5.49833C40.6121 5.55929 40.4245 5.63884 40.246 5.73586C40.0763 5.83766 39.8897 5.9225 39.737 6.04126C38.3287 6.92354 36.8526 7.73795 35.4953 8.73899C35.4953 8.73899 35.4953 8.73899 35.3595 8.87473C32.4947 10.1946 29.4893 11.185 26.401 11.827C25.9769 12.0475 25.4679 12.336 25.1116 12.5565C25.6715 12.2172 26.2144 11.8948 26.8082 11.5894L28.0977 10.8429C28.2335 10.758 28.4031 10.6732 28.5219 10.5884L28.6576 10.4866C28.6576 10.4866 28.6576 10.4866 28.6576 10.3848C28.6576 10.283 28.5558 10.3848 28.488 10.3848H28.2844C28.0754 10.4494 27.8713 10.5288 27.6735 10.6223L27.1815 10.8429L26.9949 10.9447H26.8761L25.6715 11.7591C25.4339 11.5385 25.2643 11.1822 25.8072 10.8938L23.0077 8.67113ZM39.8049 6.71994C39.7334 6.77341 39.653 6.81363 39.5673 6.83871L37.3107 8.19605L36.1061 8.8917C35.4783 9.2989 34.8166 9.67217 34.1888 10.0454C33.4932 10.4017 32.2037 10.9786 31.6608 11.284C31.1178 11.5894 30.8803 11.5725 30.5579 11.6912L33.1878 10.2321C33.9728 9.7985 34.7269 9.31095 35.4444 8.77293C36.8526 7.83975 38.2778 6.97444 39.754 6.10913C40.077 5.87909 40.4312 5.69627 40.8059 5.56619C41.1622 5.56619 41.1452 5.8716 40.8059 6.09216L39.9745 6.6351H39.8558L39.8049 6.71994ZM24.7043 12.6074L24.9928 12.4038C25.6545 11.9797 26.2823 11.5216 26.91 11.1144C27.4385 10.8046 28.0104 10.5758 28.6067 10.4357C28.6067 10.4357 25.892 12.0645 25.0946 12.5396H24.7383L24.7043 12.6074ZM25.2812 8.82383H25.5188H25.8072L25.909 9.02743L26.0108 9.248L25.909 9.38373L25.7902 9.57037H25.2134L25.1116 9.36677L25.0098 9.1462L25.1116 8.97653L25.2473 8.7899L25.2812 8.82383ZM25.4848 8.9426H25.2812L25.1625 9.12923L25.0267 9.31587L25.1116 9.5025L25.2134 9.72307H25.6545L25.7733 9.5534L25.909 9.36677L25.8072 9.16317L25.7054 8.97653L25.4848 8.9426ZM47.0667 1.15481C46.6009 1.35942 46.1253 1.54062 45.6415 1.69775C45.3824 1.73151 45.12 1.73151 44.861 1.69775C44.1314 1.59595 45.0476 0.645804 47.0667 1.15481ZM42.0614 2.98723L42.3159 2.86846L42.4856 3.22477L42.2481 3.34353L42.0614 2.98723ZM42.6723 2.69879L42.9098 2.58003L43.0795 2.93633L42.8419 3.0551L42.6723 2.69879ZM43.3679 2.41036L43.6054 2.29159L43.7751 2.64789L43.3679 2.76666V2.41036ZM39.9745 6.80477C40.1553 6.81618 40.3367 6.81618 40.5175 6.80477C40.5484 6.97654 40.6056 7.1425 40.6871 7.29681C40.7634 7.44864 40.8484 7.59593 40.9416 7.73795C40.742 7.85838 40.5319 7.9606 40.3139 8.04335C40.3139 8.04335 40.2121 8.04335 40.1442 8.04335C39.7709 8.16212 38.719 8.63719 38.4475 8.51842C38.176 8.39966 38.7359 8.16212 38.9904 7.92459L37.667 8.21302L39.6691 6.97444C39.7155 6.92586 39.7741 6.89069 39.8388 6.87264L39.9745 6.80477ZM36.5812 8.80686C36.8866 8.80686 37.2089 8.72203 37.5483 8.63719C37.5898 8.79505 37.6466 8.94847 37.7179 9.0953C37.7796 9.24053 37.8594 9.37735 37.9555 9.5025C37.7132 9.66563 37.4509 9.79679 37.175 9.89274L36.3097 10.266C36.1547 10.318 35.9958 10.3577 35.8346 10.3848C35.7158 10.3848 35.5801 10.3848 35.5292 10.3848C35.4783 10.3848 35.7158 10.0794 35.8346 9.96061C35.4478 9.89279 35.0499 9.9279 34.6809 10.0624L36.3775 9.07833L36.6151 8.9426L36.5812 8.80686ZM40.6193 6.73691C40.8059 6.73691 41.1622 7.46648 41.0434 7.61918C41.0079 7.28162 40.872 6.96247 40.6532 6.70297L40.6193 6.73691ZM37.4804 8.67113C37.5992 8.67113 37.9215 9.21407 37.8876 9.48554C37.8443 9.17359 37.7151 8.87985 37.5143 8.63719L37.4804 8.67113ZM29.3363 10.6223C33.4253 8.58629 36.9205 6.75387 41.2131 4.56515C41.8069 4.24278 46.7782 1.64685 46.9818 1.64685C46.7273 2.37642 41.4167 4.90448 40.4157 5.48136L34.1549 8.67113C32.4582 9.57037 31.2875 10.1303 29.8623 10.775L29.3533 10.5884L29.3363 10.6223ZM84.8349 76.3858C80.4839 80.7445 75.0853 83.9113 69.1575 85.5819C72.2786 81.1544 74.7259 76.2886 76.4193 71.1431H89.1784C87.9169 73.0223 86.4734 74.7726 84.8688 76.3689L84.8349 76.3858ZM52.5979 86.2945C49.0192 81.7455 46.2264 76.6302 44.335 71.1601H58.0612V86.9392C56.2273 86.8622 54.4014 86.6524 52.5979 86.3115V86.2945ZM23.4488 52.3608H38.2778C38.3898 57.8467 39.1936 63.2965 40.6702 68.5811H27.979C25.2037 63.6092 23.6455 58.0508 23.4318 52.3608H23.4488ZM60.7759 30.728V14.9319C62.2656 14.9835 63.7504 15.1308 65.2212 15.373C68.8857 19.9511 71.7536 25.1132 73.7046 30.6432L60.7759 30.728ZM74.4851 33.3579C76.0475 38.6335 76.8977 44.0943 77.0132 49.5952H60.7759V33.29L74.4851 33.3579ZM58.0442 30.728H44.318C46.212 25.2694 49.0048 20.1657 52.5809 15.6275C54.3811 15.2651 56.2087 15.0551 58.0442 14.9998V30.728ZM58.0442 33.3579V49.5952H40.9416C41.0076 44.0753 41.8238 38.59 43.3679 33.29L58.0442 33.3579ZM38.2778 49.5273H23.4318C23.6474 43.8278 25.2178 38.2617 28.0129 33.29H40.7211C39.2152 38.5756 38.3941 44.0326 38.2778 49.5273ZM40.9247 52.259H58.0442V68.4793H43.3679C41.8157 63.2082 40.9768 57.7529 40.8738 52.259H40.9247ZM60.7759 71.1092H73.6198C71.675 76.6419 68.8066 81.8051 65.1364 86.3793C63.6772 86.5999 62.2011 86.7526 60.6911 86.8205L60.7759 71.1092ZM60.7759 68.4793V52.259H77.0132C76.8943 57.7528 76.05 63.2067 74.5021 68.4793H60.7759ZM79.643 52.259H95.3713C95.1762 58.0211 93.5743 63.648 90.7054 68.649V68.4793H77.3016C78.8036 63.2001 79.6078 57.747 79.6939 52.259H79.643ZM79.643 49.5273C79.5839 44.0352 78.7965 38.5751 77.3016 33.29H90.8751C93.68 38.2577 95.251 43.8262 95.4561 49.5273H79.643ZM89.1784 30.728H76.4024C74.7082 25.5998 72.2731 20.7468 69.1745 16.3232C75.0922 18.0084 80.486 21.1665 84.8519 25.5022C86.4562 27.1033 87.9049 28.8531 89.1784 30.728ZM33.9683 25.4174C38.0408 21.3326 43.0412 18.2939 48.5428 16.5607C45.5403 20.9256 43.1751 25.6959 41.5185 30.728H29.6417C30.9276 28.8577 32.3815 27.1085 33.9852 25.5022L33.9683 25.4174ZM29.6078 71.1092H41.4846C43.1641 76.1243 45.5339 80.8812 48.5258 85.2425C43.0226 83.4958 38.0227 80.4458 33.9513 76.3519C32.3287 74.7583 30.8681 73.0078 29.5908 71.1261L29.6078 71.1092Z" fill="white"/>
</g>
<defs>
<clipPath id="clip0_255_383">
<rect width="112.049" height="96.0833" fill="white" transform="translate(0 0.815918)"/>
</clipPath>
</defs>
</svg>
