<svg width="22" height="31" viewBox="0 0 22 31" fill="none" xmlns="http://www.w3.org/2000/svg">
<path d="M10.9999 18.2416C14.0332 18.2416 16.4999 15.5145 16.4999 12.1611C16.4999 8.80769 14.0332 6.08057 10.9999 6.08057C7.96672 6.08057 5.5 8.80769 5.5 12.1611C5.5 15.5145 7.96672 18.2416 10.9999 18.2416ZM10.9999 9.12084C12.5165 9.12084 13.7499 10.4844 13.7499 12.1611C13.7499 13.8378 12.5165 15.2014 10.9999 15.2014C9.48333 15.2014 8.24997 13.8378 8.24997 12.1611C8.24997 10.4844 9.48333 9.12084 10.9999 9.12084Z" fill="#E3061D"/>
<path d="M10.2025 30.1199C10.4352 30.3037 10.714 30.4024 11 30.4024C11.286 30.4024 11.5648 30.3037 11.7975 30.1199C12.2155 29.7931 22.0398 21.9507 21.9999 12.1611C21.9999 5.45576 17.0651 0 11 0C4.93494 0 0.000121051 5.45576 0.000121051 12.1535C-0.0397535 21.9507 9.78451 29.7931 10.2025 30.1199ZM11 3.04027C15.5498 3.04027 19.2499 7.13095 19.2499 12.1687C19.2788 18.915 13.2165 24.9728 11 26.9596C8.7849 24.9712 2.72122 18.912 2.75009 12.1611C2.75009 7.13095 6.45018 3.04027 11 3.04027Z" fill="#E3061D"/>
</svg>
