<svg id="Слой_1" data-name="Слой 1" xmlns="http://www.w3.org/2000/svg" viewBox="0 0 74.07 58.64"><defs><style>.cls-1{fill:#262626;fill-rule:evenodd;}</style></defs><title>icon-6</title><path class="cls-1" d="M22.19,51.18c8.58,7.69,21.72,8.7,32.14,3.14v-.12c.11,0,.26,0,.45,0l-.16,5.5c2.17-.47,1.78-.16,3-3.94,1.13-3.32-.11-2.26,3.08-3.71,2.81-1.27,6.7-3.91,8.93-4.89.92,1.6,1.66,10.21,2.59,12.84.56-.29,1-.56,1.61-.89,1-.54.83-.33,1-1.71.32-3,1.27-12.46,1.69-14.24C78.6,42,84.32,39,85.39,37.3c.53-.8,1.19-2.23,0-2.65-2.79-1-7.1,2.25-10.24,4.1-1.25.75-1,.53-2.37-.08s-12.17-5.55-13-5.43a18.15,18.15,0,0,0-2.32,1.27A25.23,25.23,0,0,0,60,36.75l5,4.3a25.71,25.71,0,0,1,2.43,2.17c-1.48.82-2.94,1.69-4.45,2.52C55.39,50,58.3,50.3,53.76,49.34c-2.53-.54-3.65-1.36-4.72.72l3.68,2.2c-7.92,4.45-19.61,3.85-26.77-1-9.26-6.2-13.89-16.64-11.75-27.6A26.85,26.85,0,0,1,33.67,3.1C45.24,0,55.09,4.67,62.18,13c-1.12-3.82-9.5-9.13-14.83-10.56-28-7.54-48.59,27.77-25.16,48.78Z" transform="translate(-12 -1.36)"/></svg>