<svg id="Слой_1" data-name="Слой 1" xmlns="http://www.w3.org/2000/svg" viewBox="0 0 26.18 57.22"><defs><style>.cls-1{fill:#262626;fill-rule:evenodd;}</style></defs><title>icon-2</title><path class="cls-1" d="M38.06,9.12h7.76V8.33H50v.79h7.76A3.24,3.24,0,0,1,61,12.36V60.08H58V15.59H37.76V60.08H34.82V12.36a3.24,3.24,0,0,1,3.23-3.24ZM50.71,5.19a.27.27,0,0,1,.11.18h0a.36.36,0,0,1-.06.21.32.32,0,0,1-.18.11h0l-.7.11a.33.33,0,0,1-.21-.06.21.21,0,0,1-.11-.18h0a.32.32,0,0,1,0-.22.31.31,0,0,1,.2-.11l.68-.1h0a.26.26,0,0,1,.22.06Zm-1.49-.57A.28.28,0,0,1,49,4.55h0l-.07-.07a.82.82,0,0,0,0-.1h0a.39.39,0,0,1,0-.12A.49.49,0,0,1,49,4.15h0l.46-.53h0a.27.27,0,0,1,.19-.08.23.23,0,0,1,.21.07.24.24,0,0,1,.1.19.27.27,0,0,1-.07.2l-.46.53h0a.29.29,0,0,1-.19.1Zm-1.09-.57a.23.23,0,0,1-.19.08.26.26,0,0,1-.18-.07h0a.26.26,0,0,1-.1-.17V3.14h0a.23.23,0,0,1,.08-.2.28.28,0,0,1,.2-.08h0a.28.28,0,0,1,.2.08.29.29,0,0,1,.08.21v.7h0a.24.24,0,0,1-.1.2Zm-1.68.4h0L46,3.91h0s0,0,0-.07h0s0,0,0-.07h0a.54.54,0,0,1,0-.14h0a.81.81,0,0,1,.1-.13h0a.28.28,0,0,1,.21-.06.3.3,0,0,1,.18.1l.45.56h0a.29.29,0,0,1,.06.21.24.24,0,0,1-.1.18h0a.31.31,0,0,1-.21.07.3.3,0,0,1-.19-.11Zm-.2,1h0a.34.34,0,0,1-.12.18.28.28,0,0,1-.21,0h0l-.7-.14a.24.24,0,0,1-.14-.08A.34.34,0,0,1,45,5.33h0v0h0v0h0v0h0a.33.33,0,0,1,.12-.18.28.28,0,0,1,.21,0h0l.7.14h0a.28.28,0,0,1,.18.12h0a.27.27,0,0,1,0,.21Zm1.66-1.2A1.71,1.71,0,0,1,49.61,6V8.24h-3.4V6a1.65,1.65,0,0,1,.5-1.2,1.68,1.68,0,0,1,1.2-.5Zm-.1,17.45a3.13,3.13,0,1,1-3.14,3.14,3.13,3.13,0,0,1,3.14-3.14Zm-4.46,11.7v9.66a1,1,0,0,1-1,1h0a1,1,0,0,1-1-1V31.62h0a1.82,1.82,0,0,1,1.81-1.81h9.59a1.82,1.82,0,0,1,1.81,1.81h0V43.09a1,1,0,0,1-1,1h0a1,1,0,0,1-1-1V33.43h-.31L51.9,58.37a1.72,1.72,0,0,1-1.71,1.71h0a1.72,1.72,0,0,1-1.72-1.71V44H47.09V58.37a1.72,1.72,0,0,1-1.71,1.71h0a1.72,1.72,0,0,1-1.71-1.71V33.43Z" transform="translate(-34.82 -2.86)"/></svg>