<svg id="Слой_1" data-name="Слой 1" xmlns="http://www.w3.org/2000/svg" viewBox="0 0 66.04 56.63"><defs><style>.cls-1{fill:#262626;fill-rule:evenodd;}</style></defs><title>icon-5</title><path class="cls-1" d="M26.95,9.14l-.58.43-1.6,1.23-1.15,1a13.24,13.24,0,0,0-1.29,1.25c-.44.47-.9,1-1.37,1.49l-1.38,1.76c-.46.63-.87,1.33-1.33,2a10.07,10.07,0,0,0-.62,1.12c-.21.37-.42.76-.62,1.16-.39.8-.71,1.66-1.07,2.52-.14.46-.29.9-.43,1.35a11.71,11.71,0,0,0-.39,1.4,22.2,22.2,0,0,0-.51,2.9c-.05.5-.13,1-.15,1.49s0,1,0,1.52a6.83,6.83,0,0,0,0,.77l.07.76c.06.51.08,1,.15,1.54L15,36.42a7.21,7.21,0,0,0,.17.76l.25.73c.17.48.31,1,.5,1.47l.64,1.4a8.7,8.7,0,0,0,.73,1.34c.28.45.51.87.81,1.32L19,44.61l1,1.12a18.89,18.89,0,0,0,2.16,2,22,22,0,0,0,4.73,2.78,23.69,23.69,0,0,0,4.67,1.38,21.6,21.6,0,0,0,2.15.29c.34,0,.68.07,1,.08l.94,0h.89l.83,0,.76,0,.68-.08c.44-.05.83-.08,1.16-.14l.86-.15c.46-.07.7-.12.7-.12l-.72.1L40,51.9c-.34,0-.73.05-1.16.1l-.69,0H36.53c-.28,0-.57,0-.87,0l-.94-.06-1-.12c-.68-.07-1.37-.25-2.09-.37a24.5,24.5,0,0,1-4.52-1.56,19.41,19.41,0,0,1-6.42-4.8L19.82,44c-.28-.4-.55-.8-.84-1.2a20.05,20.05,0,0,1-2.28-5.26l-.19-.69a6.84,6.84,0,0,1-.12-.72l-.24-1.41c0-.48-.06-1-.08-1.44l0-.71a5.94,5.94,0,0,1,0-.72c0-.47,0-.94.07-1.41s.14-.92.19-1.38a23.53,23.53,0,0,1,.6-2.67,12.12,12.12,0,0,1,.42-1.27c.15-.42.29-.83.44-1.25.37-.78.71-1.56,1.1-2.28.21-.36.41-.7.61-1.05a10.5,10.5,0,0,1,.62-1c.46-.62.86-1.26,1.32-1.83s.91-1.06,1.33-1.56l1.33-1.31a11.35,11.35,0,0,1,1.19-1.07l1-.87c.7-.51,1.29-.9,1.66-1.16l.6-.41L26.95,9.14Zm26.74,48.6a.67.67,0,0,1,.35-.29c.19-.42.51-.5,1.26-.75,1.79-.28,3.56-.54,5.37-.71l1.79-1.05c.46-.87,1-1.77,1.43-2.64.25,0,.43,0,.66-.08-.05,1.09-.13,2.17-.18,3.28.5-.23,1-.44,1.47-.69.11,0,.25-.07.28,0l-1.4,1a.71.71,0,0,1-.12.47c-.72.33-1.45.63-2.19.94a32.15,32.15,0,0,1-4.76,1.12.36.36,0,0,1,0,.19.14.14,0,0,1-.1.1l-.18.08s0,.13-.08.14a3.06,3.06,0,0,1-1.46.08.54.54,0,0,1-.08-.7c-.69,0-1.34.19-2-.33-.07-.07-.08-.07-.06-.17Zm.07.1.18-.24.23-.06-.18.23Zm1.69-.53h0s0,0,0,0l0,.11a0,0,0,0,1,0,0h0s0,0,0,0l0-.11s0,0,0,0Zm1.45-.15H57l0,.11a0,0,0,0,1,0,0l0,0s0,0,0,0l0-.11a0,0,0,0,1,0,0Zm4.57-.5,0,0s0,0,0,0l0,.11s0,0,0,0l0,0a0,0,0,0,1,0,0l0-.11a0,0,0,0,1,0,0Zm-.21,0,0,0a0,0,0,0,1,0,0l0,.11s0,0,0,0h0s0,0,0,0l0-.11s0,0,0,0Zm-.21,0h0s0,0,0,0l0,.11a0,0,0,0,1,0,0h0s0,0,0,0l0-.11Zm-.21,0h0s0,0,0,0l0,.11s0,0,0,0h0s0,0,0,0l0-.11s0,0,0,0Zm-.21,0,0,0a.05.05,0,0,1,0,0l0,.1s0,0,0,0h0s0,0,0,0l0-.11s0,0,0,0Zm-.21,0h.06l0,.11a0,0,0,0,1,0,0l0,0,0,0,0-.11s0,0,0,0Zm-.21,0h.07v.11s0,0,0,0l0,0s0,0,0,0l0-.11s0,0,0,0Zm-.19,0h0s0,0,0,0l0,.11s0,0,0,0h0s0,0,0,0l0-.11s0,0,0,0Zm-.19,0h.06l0,.11s0,0,0,0h-.05l0-.11s0,0,0,0Zm-.21,0,0,0,0,0,0,.11s0,0,0,0h-.05l0-.11s0,0,0,0Zm-.18,0h0s0,0,0,0l0,.11s0,0,0,0h0s0,0,0,0l0-.11a0,0,0,0,1,0,0Zm-.21,0h0s0,0,0,0l0,.11s0,0,0,0h0s0,0,0,0l0-.11s0,0,0,0Zm-.18,0h0s0,0,0,0l0,.11s0,0,0,0h-.07V57s0,0,0,0Zm-.19,0h0s0,0,0,0l0,.11s0,0,0,0h0s0,0,0,0l0-.11s0,0,0,0Zm-.2,0h.06l0,.11s0,0,0,0h-.07V57s0,0,0,0Zm-.25,0h0s0,0,0,0l0,.11a0,0,0,0,1,0,0l0,0a0,0,0,0,1,0,0l0-.1a.05.05,0,0,1,0,0Zm-.19,0h0s0,0,0,0l0,.11s0,0,0,0h-.07V57s0,0,0,0Zm-.25,0,0,0s0,0,0,0l0,.11s0,0,0,0h0a0,0,0,0,1,0,0l0-.1s0,0,0,0Zm-.17,0h0a0,0,0,0,1,0,0l0,.1a0,0,0,0,1,0,0h0s0,0,0,0l0-.11a0,0,0,0,1,0,0Zm-.18,0,0,0,0,0,0,.11a.05.05,0,0,1,0,0h0s0,0,0,0l0-.11a0,0,0,0,1,0,0Zm-.17,0h0s0,0,0,0l0,.11a0,0,0,0,1,0,0h0s0,0,0,0l0-.11Zm-.19,0h0a0,0,0,0,1,0,0l0,.11a0,0,0,0,1,0,0l0,0a0,0,0,0,1,0,0l0-.11s0,0,0,0Zm-.17,0,0,0,0,0,0,.11s0,0,0,0h-.07v-.11s0,0,0,0Zm-.4,0h0a0,0,0,0,1,0,0l0,.11s0,0,0,0h0s0,0,0,0l0-.11s0,0,0,0Zm-.19,0h.07v.11s0,0,0,0h0s0,0,0,0l0-.11a0,0,0,0,1,0,0Zm-.2,0h0a0,0,0,0,1,0,0l0,.11s0,0,0,0h0s0,0,0,0l0-.11s0,0,0,0Zm-.16,0h0s0,0,0,0l0,.11s0,0,0,0h-.07l0-.11s0,0,0,0Zm-.18,0h0s0,0,0,0l0,.11a0,0,0,0,1,0,0h0l0,0,0-.11s0,0,0,0Zm-.17,0h.06l0,.11a0,0,0,0,1,0,0h-.07v-.11s0,0,0,0Zm-.19,0h0a0,0,0,0,1,0,0l0,.11s0,0,0,0h0s0,0,0,0l0-.11a0,0,0,0,1,0,0Zm8.29-4.38L63.07,55,63,55l.85-2.13Zm.39.11-.84,2.13-.06,0L64.22,53Zm-.11-.23-.83,2.13-.07,0,.85-2.13Zm3.79.58.57-.44c.37-.28.93-.68,1.62-1.23.35-.31.73-.65,1.15-1a13.77,13.77,0,0,0,1.29-1.25c.43-.47.9-1,1.37-1.48s.89-1.15,1.37-1.77.87-1.33,1.34-2A12.53,12.53,0,0,0,77.29,43c.19-.39.4-.78.61-1.18.39-.79.7-1.66,1.08-2.52.14-.44.28-.9.43-1.36s.3-.9.39-1.38a22.39,22.39,0,0,0,.51-2.92c0-.5.13-1,.14-1.49s0-1,0-1.52c0-.25,0-.51,0-.76l-.07-.77c-.06-.51-.08-1-.17-1.52l-.31-1.52c-.07-.25-.1-.51-.18-.75l-.23-.75c-.17-.48-.31-1-.5-1.45l-.65-1.41a8.43,8.43,0,0,0-.73-1.34c-.28-.44-.51-.86-.82-1.31s-.58-.77-.89-1.16-.66-.76-1-1.14a20.47,20.47,0,0,0-2.17-1.95A21.09,21.09,0,0,0,68,12a25.13,25.13,0,0,0-4.69-1.4c-.75-.11-1.45-.25-2.14-.29l-1-.08-1,0h-.89l-.82,0-.76,0-.69.07c-.43.06-.82.08-1.15.14l-.86.15-.7.13.7-.1.86-.11c.33,0,.73-.06,1.16-.08l.69-.05h1.56c.29,0,.58,0,.89,0l.93.07,1,.13c.68.07,1.37.23,2.1.37a23.61,23.61,0,0,1,4.51,1.55,20.69,20.69,0,0,1,4.44,2.87,21,21,0,0,1,2,1.94l.89,1.09c.28.39.55.8.83,1.21A19,19,0,0,1,78.21,25l.19.71c.07.22.08.47.14.71l.22,1.43c.06.47.07,1,.1,1.42l0,.72c0,.23,0,.47,0,.71,0,.47-.05.94-.08,1.41s-.13.93-.2,1.38A21,21,0,0,1,78,36.12a12.11,12.11,0,0,1-.42,1.27c-.15.42-.3.83-.44,1.23-.39.79-.71,1.56-1.11,2.3-.21.34-.4.7-.61,1a10.21,10.21,0,0,1-.62,1c-.46.62-.86,1.26-1.32,1.81s-.9,1.08-1.33,1.58l-1.31,1.32a11.45,11.45,0,0,1-1.2,1.06l-1,.87c-.69.5-1.27.89-1.64,1.15l-.6.41L68,53.37ZM28,7l.66-.37c1.05.21,2.06.47,3.21.59.91-.47,1.84-.91,2.74-1.38l-1.19-.22A1.89,1.89,0,0,1,34,5.31c.65-.07,1.29-.1,1.93-.17l1.37-.69L38,4.12C42.07,1,44.59,2.53,39.33,5c-.33.22-.64.39-.94.55l.15-.1a.43.43,0,0,0,.14-.15.22.22,0,0,0,0-.17.19.19,0,0,0-.19,0h0a1.86,1.86,0,0,0-.33.14c-.1.06-.21.11-.3.18-.83.52-1.7,1-2.5,1.59h0s0,0-.08.08A24.57,24.57,0,0,1,30,8.86c-.25.13-.55.3-.76.43,0,0,0,0,0,0,.33-.2.65-.39,1-.57L31,8.28c.08-.05.18-.1.25-.15l.08-.06s0,0,0-.06-.06,0-.1,0l-.12,0a2.72,2.72,0,0,0-.36.14l-.29.13-.11.06-.07,0-.71.48c-.14-.13-.24-.34.08-.51L28,7Zm9.9-1.15h0a.44.44,0,0,1-.14.07l-1.33.8h0l-.71.41h0c-.37.24-.76.46-1.13.68h0c-.41.21-1.17.55-1.49.73s-.46.17-.65.24L34,7.92s0,0,0,0a11.42,11.42,0,0,0,1.33-.86h0C36.16,6.51,37,6,37.87,5.49a2.46,2.46,0,0,1,.62-.32c.21,0,.2.18,0,.31L38,5.8l-.07,0ZM29,9.32l.17-.12c.39-.25.76-.52,1.13-.76a3.61,3.61,0,0,1,1-.4S29.7,9,29.23,9.28l-.21,0Zm.34-2.23.14,0h.17l.06.12.06.13h0v0h0l-.06.08h0l0,0-.07.11H29.3v0h0l-.06-.12-.06-.13h0v0h0l.06-.1h0l.08-.11h0v0h0Zm.12.07h0l-.12,0-.07.11h0l-.08.11.05.11.06.13h.26l.07-.1h0l.08-.11-.06-.12-.06-.11ZM42.18,2.57a9,9,0,0,1-.84.32,1.78,1.78,0,0,1-.46,0c-.43-.06.11-.62,1.3-.32ZM39.23,3.65l.15-.07.1.21-.14.07Zm.36-.17.14-.07.1.21-.14.07ZM40,3.31l.14-.07.1.21L40,3.52Zm-2,2.59a2.54,2.54,0,0,0,.32,0,1,1,0,0,0,.1.29,2.6,2.6,0,0,0,.15.26,2.29,2.29,0,0,1-.37.18s-.06,0-.1,0c-.22.07-.84.35-1,.28s.17-.21.32-.35l-.78.17L37.82,6a.22.22,0,0,1,.1-.06Zm-2,1.18c.18,0,.37-.05.57-.1a1.48,1.48,0,0,0,.1.27,1.1,1.1,0,0,0,.14.24,2,2,0,0,1-.46.23l0,0-.51.22a1.84,1.84,0,0,1-.28.07c-.07,0-.15,0-.18,0s.11-.18.18-.25a1.32,1.32,0,0,0-.68.06l1-.58h0l0,0,.14-.08Zm2.38-1.22c.11,0,.32.43.25.52v0a1,1,0,0,0-.23-.54ZM36.53,7c.07,0,.26.32.24.48,0,0,0,0,0,0a1,1,0,0,0-.22-.5Zm-4.8,1.15c2.41-1.2,4.47-2.28,7-3.57.35-.19,3.28-1.72,3.4-1.72-.15.43-3.28,1.92-3.87,2.26h0L34.57,7c-1,.53-1.69.86-2.53,1.24l-.3-.11Zm9.79,43.59Zm22.92-4.83a21.17,21.17,0,0,1-9.24,5.42,32.29,32.29,0,0,0,4.28-8.51H67a20.32,20.32,0,0,1-2.54,3.08Zm-19,5.84h0a30.6,30.6,0,0,1-4.87-8.92h8.09v9.3a22.39,22.39,0,0,1-3.22-.37Zm-17.18-20H37a38.44,38.44,0,0,0,1.41,9.56H30.93a21.25,21.25,0,0,1-2.68-9.56ZM50.26,20h0V10.69a20.49,20.49,0,0,1,2.62.26,30.8,30.8,0,0,1,5,9Zm8.08,1.55h0a36.39,36.39,0,0,1,1.49,9.57H50.26V21.51ZM48.65,20H40.56a30.57,30.57,0,0,1,4.87-8.9,19.26,19.26,0,0,1,3.22-.37Zm0,1.55h0v9.57H38.57A35.89,35.89,0,0,1,40,21.51ZM37,31.08H28.25a21.16,21.16,0,0,1,2.7-9.57h7.49A37.85,37.85,0,0,0,37,31.08Zm1.56,1.61H48.65v9.56H40a36.25,36.25,0,0,1-1.47-9.56ZM50.26,43.8h7.57a30.59,30.59,0,0,1-5,9c-.86.13-1.73.22-2.62.26Zm0-1.55h0V32.69h9.57a36.76,36.76,0,0,1-1.48,9.56Zm11.12-9.56h9.27a20.83,20.83,0,0,1-2.75,9.66v-.1H60a37.06,37.06,0,0,0,1.41-9.56Zm0-1.61h0A36.61,36.61,0,0,0,60,21.51h8a21,21,0,0,1,2.7,9.57ZM67,20H59.47a32.65,32.65,0,0,0-4.26-8.49,21.45,21.45,0,0,1,9.24,5.41A21.1,21.1,0,0,1,67,20ZM34.46,16.87h0a21.07,21.07,0,0,1,8.59-5.22A32.87,32.87,0,0,0,38.91,20h-7a22,22,0,0,1,2.56-3.08ZM31.89,43.8h7a33.57,33.57,0,0,0,4.15,8.33,21.13,21.13,0,0,1-8.59-5.24,20.29,20.29,0,0,1-2.57-3.08Z" transform="translate(-14.44 -2.37)"/></svg>