<svg id="Слой_1" data-name="Слой 1" xmlns="http://www.w3.org/2000/svg" viewBox="0 0 93.43 56.03"><defs><style>.cls-1{fill:#262626;fill-rule:evenodd;}</style></defs><title>icon-1</title><path class="cls-1" d="M94.13,38.07c-.51-1.36-2.74-2.15-5.25-1.93a10.65,10.65,0,0,0-2,.42c-3.1.94-18.82,6.33-19,6.48l-.36.08.21.21c1.79,1.51,2.66,3.1,2.23,4.38-.49,1.95-3.08,3.1-7.33,3.46a53.64,53.64,0,0,1-14-1.08,17.57,17.57,0,0,1,1.95.08c4,0,7.75,0,10.69-.23,4.54-.36,6.69-1.36,7-3.08.15-1.15-.51-2.1-2.08-2.82-1.72-.85-5.25-1.36-8.69-1.93A59.78,59.78,0,0,1,51.39,41c-5.46-1.44-11.07-2.87-17.62-2.36a29.46,29.46,0,0,0-3,.43,126.4,126.4,0,0,0-15,3.52l-.65.08,7.62,10.92A26.35,26.35,0,0,1,26.8,53a20.86,20.86,0,0,1,5.1.08c2.1.36,7.33,1.44,12.36,2.44,5.18,1.15,10.13,2.08,12,2.36a15.46,15.46,0,0,0,3.23.08C62,57.7,64.67,56.32,67.11,55c.79-.51,1.59-.87,2.31-1.3L91.9,41.58c2.51-1.49,2.51-2.8,2.23-3.51ZM49.33,1.94h18a4,4,0,0,1,4,4V33.31a4,4,0,0,1-4,3.95h-18a4,4,0,0,1-4-3.95V5.89a4,4,0,0,1,4-4Zm2.8,28.54a.67.67,0,0,0,.71-.72c0-.57-.32-.66-.89-.66h-.56v2h.38v-.66Zm12-7.41a8.28,8.28,0,0,1-3.55,2.1,12.57,12.57,0,0,0,1.64-3.27h2.87a8,8,0,0,1-1,1.17Zm-7.31,2.25h0a11.88,11.88,0,0,1-1.87-3.42H58v3.55a6.63,6.63,0,0,1-1.23-.13Zm-6.6-7.69h3.36a14.47,14.47,0,0,0,.53,3.67H51.22a8.09,8.09,0,0,1-1-3.67Zm8.45-4.9h0V9.17a5.92,5.92,0,0,1,1,.09,11.62,11.62,0,0,1,1.91,3.46Zm3.1.6h0A13.73,13.73,0,0,1,62.33,17H58.64V13.33ZM58,12.73h-3.1a11.89,11.89,0,0,1,1.87-3.42A6.43,6.43,0,0,1,58,9.17Zm0,.6h0V17H54.15a13.61,13.61,0,0,1,.58-3.67ZM53.56,17H50.2a7.8,7.8,0,0,1,1-3.67h2.87A13.68,13.68,0,0,0,53.56,17Zm.59.62H58v3.67H54.71a14.47,14.47,0,0,1-.56-3.67Zm4.5,4.27h2.91a11.12,11.12,0,0,1-1.91,3.46,5.78,5.78,0,0,1-1,.09Zm0-.6h0V17.62h3.69a14.51,14.51,0,0,1-.57,3.67Zm4.27-3.67h3.57a8.16,8.16,0,0,1-1.06,3.7v0h-3a14.38,14.38,0,0,0,.53-3.67Zm0-.62h0a13.6,13.6,0,0,0-.55-3.67h3.08a8.24,8.24,0,0,1,1,3.67Zm2.15-4.27H62.19a13.46,13.46,0,0,0-1.64-3.27,8.42,8.42,0,0,1,3.55,2.08,9.41,9.41,0,0,1,1,1.19ZM52.58,11.54h0a8.11,8.11,0,0,1,3.31-2,12,12,0,0,0-1.58,3.19h-2.7a9.66,9.66,0,0,1,1-1.19Zm-1,10.36h2.68a12.73,12.73,0,0,0,1.61,3.19,8,8,0,0,1-3.31-2,7.16,7.16,0,0,1-1-1.17Zm13.68,7.56v-.36H63.76v.36h.57v1.68h.38V29.45Zm-1.57,1.68-.47-.85a.65.65,0,0,0,.36-.59c0-.45-.32-.6-.7-.6h-.75v2h.38v-.76h.38l.42.76Zm-.91-1.72c.32,0,.4.11.4.3s-.07.32-.41.32h-.26v-.62Zm-2,1.76a1.06,1.06,0,1,0-1-1.06,1,1,0,0,0,1,1.06Zm0-1.76c.4,0,.58.3.58.7s-.19.7-.58.7-.6-.28-.6-.7.21-.7.6-.7Zm-1.89,1.06a.66.66,0,0,0,.71-.72c0-.57-.3-.66-.87-.66h-.59v2h.38v-.66Zm-.06-1.06c.32,0,.39.1.39.34s-.11.36-.38.36h-.32v-.7Zm-1.78,1.76c.7,0,.8-.36.8-.59,0-.45-.38-.57-.7-.66s-.42-.13-.42-.3.23-.21.38-.21a1,1,0,0,1,.58.19l0-.38a1.21,1.21,0,0,0-.64-.17c-.55,0-.74.34-.74.62s.32.45.61.55.47.17.47.38-.15.21-.36.21a.93.93,0,0,1-.64-.21l0,.41a1.31,1.31,0,0,0,.66.15Zm-1.68,0c.68,0,.79-.36.79-.59,0-.45-.4-.57-.7-.66s-.41-.13-.41-.3.21-.21.38-.21a1,1,0,0,1,.58.19l0-.38a1.21,1.21,0,0,0-.64-.17c-.55,0-.74.34-.74.62s.3.45.61.55.47.17.47.38-.15.21-.36.21a.89.89,0,0,1-.64-.21l-.06.41a1.44,1.44,0,0,0,.68.15Zm-.81,0-.74-2h-.34l-.74,2h.39l.17-.49H54l.17.49Zm-.7-.85h-.42l.21-.59Zm-1.83-.87c.3,0,.39.1.39.34s-.11.36-.39.36h-.3v-.7ZM1.25,42.24H11.32a2,2,0,0,1,1.38.83l9.58,13.76c.3.45.19.81-.25.81H11.95a2,2,0,0,1-1.38-.81L1,43.08c-.32-.45-.21-.83.25-.83Z" transform="translate(-0.82 -1.94)"/></svg>