<svg id="Слой_1" data-name="Слой 1" xmlns="http://www.w3.org/2000/svg" viewBox="0 0 38.6 58.01"><defs><style>.cls-1{fill:#262626;fill-rule:evenodd;}</style></defs><title>icon-3</title><path class="cls-1" d="M61.7,8.54c.18-2.61-1.29-7.17-5.94-6.48-3.47,1-25.09,6.64-26.38,8a3.66,3.66,0,0,0-1,2.59L29,56.43A3.66,3.66,0,0,0,30.13,59a3.61,3.61,0,0,0,2.58,1l30.68-.47A3.63,3.63,0,0,0,67,55.85L66.28,12A3.62,3.62,0,0,0,62.6,8.46Zm-24,.54L55.9,3.83c3.61-.65,3.75,3.12,3.67,4.67Zm2.51,31.22h3.09A15,15,0,0,0,45.12,44a9.41,9.41,0,0,1-3.79-2.32,8.53,8.53,0,0,1-1.14-1.36Zm4.26,3.48Zm10.11-2.12a9.37,9.37,0,0,1-4.06,2.4,14.42,14.42,0,0,0,1.88-3.75h3.31a8.53,8.53,0,0,1-1.13,1.36Zm-8.38,2.58h0A13.61,13.61,0,0,1,44,40.31H47.6v4.1a10.13,10.13,0,0,1-1.42-.17ZM38.6,35.4h3.86a16.54,16.54,0,0,0,.62,4.22h-3.3A9.26,9.26,0,0,1,38.6,35.4Zm9.71-5.62h0V25.7a11.29,11.29,0,0,1,1.15.12,13.83,13.83,0,0,1,2.19,4Zm3.56.69h0a15.9,15.9,0,0,1,.66,4.23H48.31V30.47Zm-4.27-.69H44a13.84,13.84,0,0,1,2.15-3.92,10.35,10.35,0,0,1,1.42-.17Zm0,.69h0V34.7H43.14a16,16,0,0,1,.66-4.23ZM42.46,34.7H38.6a9.31,9.31,0,0,1,1.18-4.23h3.3a16.55,16.55,0,0,0-.62,4.23Zm.68.7H47.6v4.22h-3.8a16.37,16.37,0,0,1-.65-4.22Zm5.16,4.9h3.34a13.62,13.62,0,0,1-2.19,4c-.38.05-.77.09-1.15.12Zm0-.69h0V35.4h4.22a15.79,15.79,0,0,1-.66,4.22Zm4.9-4.22H57.3a9.3,9.3,0,0,1-1.22,4.26v0H52.59a16.63,16.63,0,0,0,.62-4.22Zm0-.7h0a16.09,16.09,0,0,0-.63-4.23h3.53A9.48,9.48,0,0,1,57.3,34.7Zm2.47-4.92H52.37A14.91,14.91,0,0,0,50.49,26a9.36,9.36,0,0,1,4.06,2.38,10.18,10.18,0,0,1,1.13,1.36ZM41.33,28.43h0a9.24,9.24,0,0,1,3.79-2.29,14.15,14.15,0,0,0-1.82,3.65H40.21a10.29,10.29,0,0,1,1.13-1.36Z" transform="translate(-28.35 -1.99)"/></svg>