<svg id="Слой_1" data-name="Слой 1" xmlns="http://www.w3.org/2000/svg" viewBox="0 0 62.05 58.16"><defs><style>.cls-1{fill:#262626;fill-rule:evenodd;}</style></defs><title>icon-4</title><path class="cls-1" d="M69.57,41.71H68.21a10.09,10.09,0,0,0-3.63.61c-1.21-3-4.08-4.84-6.94-5.9-.46-.15-1.06-.31-1.52-.46a8.18,8.18,0,0,0-7.7-6.19A6.47,6.47,0,0,0,44,31.29a8.57,8.57,0,0,0-3.63,7.24A8.15,8.15,0,0,0,35.88,37a8.14,8.14,0,0,0-7.25,5.29H27.1c-4.53,0-8.15,2.86-8.15,6.34,0,2.27,1.52,4.23,3.78,5.44a9.89,9.89,0,0,0,4.38,1.06c.46,0,1.06-.15,1.52-.15a9.08,9.08,0,0,0,3.77,4.07,7.05,7.05,0,0,0,3.48.91,7.54,7.54,0,0,0,5.74-2.58,7.06,7.06,0,0,0,4.23,1.37A7.78,7.78,0,0,0,52,55.46a8.66,8.66,0,0,0,4.54,3.18c.6,0,1.21.15,1.81.15A8.2,8.2,0,0,0,65.5,54.1a5.4,5.4,0,0,0,1.65.31c.31,0,.75.15,1.06.15,3.48,0,6.5-1.81,7.57-4.23a4.39,4.39,0,0,0,.6-2.27c0-3.17-2.88-5.74-6.81-6.34ZM23.5,20.9a3.48,3.48,0,0,1,1.75-1.1c1.09-1.77,2.52-2,6-2.7,8.22-.27,16.36-.55,24.58-.35L64.44,13C67,9.29,69.72,5.54,72.3,1.87c1.11,0,2,0,3,0-.83,4.84-1.72,9.69-2.57,14.64l7-2.3c.47-.13,1.15-.24,1.25-.1l-6.85,4a3,3,0,0,1-.82,2c-3.43,1.1-6.88,2.12-10.33,3.08-2.94.76-20.43,3-22.06,2.52a1.34,1.34,0,0,1,.05.87.65.65,0,0,1-.5.39c-.39.12-.48.13-.87.27,0,.15-.19.55-.43.56a13.6,13.6,0,0,1-6.68-.37c-.59-.3-.89-2.17,0-3.2-3.09-.34-6.15.13-8.87-2.59-.24-.32-.31-.32-.18-.79Zm.28.52,1-1,1.08-.15-1,1Zm7.89-1.49h.16a.08.08,0,0,1,.09.08l.05.49a.09.09,0,0,1-.08.11l-.16,0a.1.1,0,0,1-.11-.08L31.58,20a.11.11,0,0,1,.09-.11Zm6.65.08h.16a.09.09,0,0,1,.11.08l0,.5a.09.09,0,0,1-.08.11l-.16,0a.1.1,0,0,1-.11-.08l0-.51c0-.05,0-.09.08-.11Zm20.81.15h.16a.08.08,0,0,1,.1.08l.05.51a.08.08,0,0,1-.08.09l-.16,0a.09.09,0,0,1-.11-.08L59,20.27a.12.12,0,0,1,.1-.11Zm-1,0h.16a.09.09,0,0,1,.11.08l.05.5c0,.05,0,.1-.08.1l-.16,0c-.05,0-.11,0-.11-.08l-.05-.51a.1.1,0,0,1,.08-.11Zm-1,0,.16,0c.05,0,.09,0,.09.08l.05.51c0,.05,0,.09-.08.11h-.16c-.05,0-.09,0-.11-.08l-.05-.5a.1.1,0,0,1,.1-.11Zm-.91,0h.16c.05,0,.09,0,.11.08l.06.51a.1.1,0,0,1-.1.1l-.16,0c-.06,0-.09,0-.11-.08l0-.51c0-.05,0-.09.08-.11Zm-.94-.07h.16a.09.09,0,0,1,.11.08l.05.51a.12.12,0,0,1-.08.11h-.16a.08.08,0,0,1-.11-.08l-.05-.51s0-.09.08-.11Zm-1,0,.16,0a.09.09,0,0,1,.11.08l.05.51a.1.1,0,0,1-.08.11h-.16a.09.09,0,0,1-.11-.08l-.05-.51a.1.1,0,0,1,.08-.09Zm-.91,0h.16c.06,0,.1,0,.11.08l.05.51a.1.1,0,0,1-.09.09l-.16,0c-.05,0-.09,0-.09-.08l-.05-.51c0-.06,0-.1.08-.11Zm-.9,0,.16,0a.09.09,0,0,1,.11.08l.05.5c0,.05,0,.11-.08.11l-.16,0c-.05,0-.11,0-.11-.08l-.05-.51a.1.1,0,0,1,.08-.11Zm-.87,0h.16a.09.09,0,0,1,.11.08l.05.51a.1.1,0,0,1-.08.09l-.16,0a.08.08,0,0,1-.11-.08l-.05-.51a.11.11,0,0,1,.08-.11Zm-.94,0,.16,0c.05,0,.09,0,.11.08l.05.5a.1.1,0,0,1-.1.11l-.16,0a.1.1,0,0,1-.11-.08l0-.51a.09.09,0,0,1,.08-.11Zm-.85,0,.16,0c.05,0,.11,0,.11.08l.05.51a.11.11,0,0,1-.08.11l-.16,0a.09.09,0,0,1-.11-.08l-.05-.51a.09.09,0,0,1,.08-.1Zm-.91,0h.16a.08.08,0,0,1,.11.08l.05.5c0,.05,0,.11-.08.11l-.16,0c-.05,0-.11,0-.11-.08l-.05-.51a.1.1,0,0,1,.08-.11Zm-.86,0,.16,0c.05,0,.11,0,.11.08l.05.51a.09.09,0,0,1-.08.11l-.16,0c-.05,0-.11,0-.11-.08L48,20.23c0-.05,0-.11.08-.11Zm-.9,0,.16,0c.05,0,.11,0,.11.08l.05.51a.12.12,0,0,1-.08.11l-.16,0a.1.1,0,0,1-.11-.09l-.05-.5c0-.05,0-.11.08-.11Zm-.86-.07h.16c.05,0,.1,0,.11.08l.05.51a.13.13,0,0,1-.09.11h-.16a.08.08,0,0,1-.09-.08l-.05-.51c0-.06,0-.1.08-.11Zm-1.09,0,.16,0a.1.1,0,0,1,.11.08l0,.51c0,.05,0,.09-.08.1l-.16,0a.09.09,0,0,1-.11-.08l0-.5a.09.09,0,0,1,.08-.11Zm-.93,0,.16,0a.09.09,0,0,1,.1.08l.05.51c0,.05,0,.09-.08.1l-.16,0c-.05,0-.09,0-.11-.08l-.05-.5c0-.05,0-.11.08-.11Zm-1.13,0,.16,0a.1.1,0,0,1,.11.08l.05.51a.12.12,0,0,1-.09.11h-.16a.08.08,0,0,1-.09-.08l-.05-.5a.09.09,0,0,1,.08-.11Zm-.78,0h.16a.08.08,0,0,1,.09.08l.05.5a.08.08,0,0,1-.08.1l-.16,0a.1.1,0,0,1-.11-.08l-.05-.51a.11.11,0,0,1,.09-.11Zm-.83,0,.16,0c.05,0,.11,0,.11.08l.05.51a.1.1,0,0,1-.08.11l-.16,0a.1.1,0,0,1-.11-.1l-.05-.5c0-.05,0-.11.08-.11Zm-.75,0,.16,0c.05,0,.1,0,.1.08l.05.51c0,.05,0,.09-.08.11h-.16a.09.09,0,0,1-.11-.08l-.05-.5a.1.1,0,0,1,.09-.11ZM40,20l.16,0a.09.09,0,0,1,.11.08l.05.51a.11.11,0,0,1-.1.11h-.16a.07.07,0,0,1-.09-.08l-.05-.51A.08.08,0,0,1,40,20Zm-.77,0h.16a.09.09,0,0,1,.11.08l.05.51a.13.13,0,0,1-.08.1l-.16,0a.09.09,0,0,1-.11-.08l-.05-.51a.1.1,0,0,1,.08-.11ZM37.42,20h.16a.07.07,0,0,1,.09.08l.05.51a.08.08,0,0,1-.08.09l-.16,0c-.05,0-.09,0-.11-.08l-.05-.51a.11.11,0,0,1,.09-.11Zm-.89,0,.16,0a.1.1,0,0,1,.11.08l.05.51a.12.12,0,0,1-.09.11H36.6a.08.08,0,0,1-.09-.08l-.05-.49a.09.09,0,0,1,.08-.11ZM35.66,20h.16a.08.08,0,0,1,.09.08l.05.51s0,.1-.08.11h-.16c-.05,0-.09,0-.11-.08l-.05-.51a.11.11,0,0,1,.09-.11Zm-.79,0,.16,0a.12.12,0,0,1,.11.08l.05.51a.1.1,0,0,1-.09.11l-.16,0a.09.09,0,0,1-.09-.08l-.05-.51a.09.09,0,0,1,.08-.11ZM34,20l.16,0a.1.1,0,0,1,.11.08l.05.51a.12.12,0,0,1-.09.11h-.16a.09.09,0,0,1-.11-.08l0-.5A.09.09,0,0,1,34,20Zm-.77,0,.16,0c.05,0,.09,0,.11.08l.05.51a.11.11,0,0,1-.1.11h-.16a.08.08,0,0,1-.09-.08l-.05-.51s0-.09.08-.11Zm-.86-.05h.16a.09.09,0,0,1,.11.08l.05.51a.09.09,0,0,1-.08.09l-.16,0a.09.09,0,0,1-.11-.08L32.34,20a.12.12,0,0,1,.08-.11ZM72.08,4.61l-4.9,9.13-.27-.13,4.9-9.15Zm1.67.71-4.9,9.13-.27-.15,4.91-9.14Zm-.34-1.12-4.9,9.14-.27-.13,4.9-9.15Z" transform="translate(-18.95 -1.84)"/></svg>