<svg width="19" height="21" viewBox="0 0 19 21" fill="none" xmlns="http://www.w3.org/2000/svg">
<path d="M9.27197 0C7.76926 0 4.05205 0.167331 2.07481 2.1753C0.651191 3.59761 0.0975631 5.77291 0.0184734 8.36653C-0.139706 12.4661 0.730281 15.0598 2.1539 16.3984C2.47025 16.6494 3.26115 17.3187 4.76385 17.8207V19.9123C4.76385 19.9123 4.76386 20.749 5.23839 20.9163C5.31748 20.9163 5.39657 21 5.47566 21C5.9502 21 6.34565 20.4143 6.89928 19.8287C7.37381 19.243 7.76926 18.8247 8.00653 18.4064H9.7465C11.2492 18.4064 14.9664 18.239 16.9437 16.2311C18.3673 14.7251 18.9209 12.5498 18.9209 9.78884C19 9.37052 19 8.86853 19 8.36653C18.9209 5.27092 18.0509 3.17928 16.8646 2.00797C16.39 1.58964 14.3337 0 9.90469 0H9.27197ZM9.11379 1.58964H9.82559C14.0173 1.58964 15.5991 3.01195 15.7573 3.17928C16.7064 4.01594 17.26 5.85657 17.3391 8.28287V8.61753C17.4182 9.11952 17.4182 9.53785 17.4182 9.78884C17.3391 12.2988 16.8646 13.9721 15.9155 15.0598C14.2546 16.6494 10.7747 16.7331 9.82559 16.7331H8.32289L7.05746 18.239L6.26656 19.1594L6.10838 19.4104C5.9502 19.5777 5.71293 19.9123 5.55475 19.996V16.2311C3.97296 15.8127 3.34024 15.2271 3.18206 15.0598C2.07481 14.0558 1.44209 11.6295 1.60027 8.36653V7.52988C1.75845 5.52191 2.23299 4.18327 3.02388 3.26295C4.68477 1.67331 8.16471 1.58964 9.11379 1.58964ZM9.0347 3.43028C8.63925 3.43028 8.63925 4.01594 9.0347 4.01594C11.961 4.01594 14.4919 6.10757 14.4919 10.0398C14.4919 10.4582 15.0455 10.4582 15.0455 10.0398C15.0455 5.77291 12.3565 3.34661 9.0347 3.43028ZM5.90037 4.20418C5.72117 4.18146 5.54067 4.2337 5.39736 4.34976C4.60647 4.76809 3.81478 5.60641 4.05205 6.52673C4.05205 6.52673 4.21023 7.27888 5.08021 8.86853C5.55475 9.62151 5.9502 10.2908 6.34565 10.7928C6.7411 11.3785 7.37382 12.0478 8.00653 12.5498C9.27197 13.6374 11.2492 14.7251 12.1192 14.9761C12.9101 15.2271 13.7801 14.3904 14.1755 13.5538C14.3337 13.2191 14.2546 12.8008 13.9383 12.5498C13.4637 12.0478 12.6728 11.4622 12.1192 11.1275C11.7237 10.8765 11.2492 11.0438 11.091 11.2948L10.6956 11.7968C10.5374 12.0478 10.142 12.0478 10.142 12.0478C7.53199 11.2948 6.82019 8.4502 6.82019 8.4502C6.82019 8.4502 6.82019 8.11554 7.05746 7.86454L7.53199 7.44621C7.76926 7.27888 7.92744 6.77689 7.69017 6.35857C7.53199 6.10757 7.29472 5.60558 7.05746 5.35458C6.82019 5.01992 6.34565 4.43426 6.34565 4.43426C6.22565 4.30715 6.06891 4.22616 5.90037 4.20418ZM9.58833 5.10359C9.19288 5.01992 9.11379 5.68924 9.50924 5.68924C11.7237 5.85657 12.9892 7.44621 12.9101 9.45418C12.831 9.87251 13.4637 9.87251 13.4637 9.45418C13.5428 7.11155 12.1192 5.18725 9.58833 5.10359ZM9.82559 6.69323C9.43015 6.60956 9.43015 7.27888 9.82559 7.27888C10.7747 7.27888 11.2492 7.86454 11.2492 8.86853C11.3283 9.28685 11.8819 9.28685 11.8819 8.86853C11.8028 7.52988 11.091 6.69323 9.82559 6.69323Z" fill="white"/>
</svg>
