<svg width="20" height="21" viewBox="0 0 20 21" fill="none" xmlns="http://www.w3.org/2000/svg">
<path fill-rule="evenodd" clip-rule="evenodd" d="M17.0859 3.05219C16.1634 2.08181 15.0658 1.31238 13.8567 0.788458C12.6476 0.26454 11.3511 -0.00344308 10.0421 3.33954e-05C4.55351 3.33954e-05 0.0854131 4.66811 0.0831946 10.4061C0.0831946 12.24 0.541319 14.0298 1.41209 15.6086L0 21L5.27897 19.5522C6.73919 20.3828 8.37513 20.8184 10.0377 20.8192H10.0421C15.5296 20.8192 19.9977 16.1511 20 10.4131C20.0037 9.04579 19.7481 7.69128 19.248 6.42784C18.7478 5.16439 18.013 4.01707 17.0859 3.05219ZM10.0421 19.063H10.0388C8.5563 19.0631 7.10108 18.6463 5.82583 17.8563L5.52412 17.6685L2.39156 18.5274L3.22684 15.3362L3.0305 15.0093C2.20165 13.6303 1.76287 12.0345 1.76483 10.4061C1.76705 5.6372 5.47974 1.75737 10.0455 1.75737C11.1328 1.75485 12.2098 1.97771 13.2142 2.41307C14.2186 2.84843 15.1304 3.48763 15.8968 4.29369C16.6673 5.0959 17.278 6.04975 17.6937 7.1001C18.1093 8.15045 18.3216 9.27647 18.3183 10.4131C18.3161 15.182 14.6034 19.063 10.0421 19.063ZM14.5823 12.5842C14.3327 12.4533 13.1103 11.825 12.8818 11.738C12.6544 11.6511 12.4892 11.6082 12.3228 11.8679C12.1564 12.1275 11.6794 12.7129 11.5341 12.8868C11.3888 13.0607 11.2435 13.0815 10.995 12.9517C10.7465 12.8219 9.94452 12.5472 8.99388 11.6615C8.254 10.9718 7.75484 10.121 7.60952 9.86014C7.46421 9.59932 7.59399 9.45906 7.71934 9.32923C7.83138 9.21331 7.96782 9.02552 8.09205 8.87367C8.21629 8.72181 8.25733 8.61401 8.34053 8.44013C8.42372 8.26625 8.38268 8.11439 8.31945 7.98456C8.25733 7.85358 7.75927 6.57382 7.55184 6.05335C7.35107 5.5491 7.14585 5.61633 6.99278 5.60938C6.83424 5.6026 6.67557 5.59951 6.5169 5.6001C6.39073 5.60346 6.26658 5.63403 6.15225 5.68988C6.03791 5.74573 5.93584 5.82567 5.85246 5.92468C5.62395 6.18549 4.98169 6.81378 4.98169 8.09353C4.98169 9.37328 5.87353 10.6101 5.99777 10.784C6.12201 10.9579 7.75262 13.5835 10.2485 14.7102C10.843 14.978 11.3067 15.138 11.6672 15.2585C12.2629 15.4567 12.8053 15.4278 13.2346 15.3617C13.7127 15.2875 14.7066 14.7334 14.914 14.126C15.1214 13.5186 15.1214 12.9981 15.0593 12.8891C14.9972 12.7802 14.8297 12.7141 14.5823 12.5842Z" fill="white"/>
</svg>
