<svg width="300" height="90" viewBox="0 0 300 90" fill="none" xmlns="http://www.w3.org/2000/svg">
<path fill-rule="evenodd" clip-rule="evenodd" d="M28.1 44.77H10.42C8.54 44.77 7.01 43.25 7 41.37C7 41.79 7.09 42.19 7.23 42.56C7.26 42.56 7.28 42.56 7.31 42.56C15.29 42.56 23.24 38.81 28.17 32.5C30.31 29.77 31.89 26.66 33.57 23.36C35.31 19.94 37.11 16.4 39.61 13.26C42.08 10.16 45.2 7.59 48.68 5.68C48.35 4.21 47.08 3.09 45.53 3.01C47.33 3.1 48.77 4.6 48.77 6.42V21.38C46.38 22.76 44.34 24.74 42.95 27.12C41.9 28.93 41.23 30.9 40.59 32.8C39.97 34.63 39.39 36.36 38.49 37.93C36.36 41.67 32.37 44.26 28.1 44.77ZM7 41.37C7 41.36 7 41.36 7 41.36C7 41.36 7 41.36 7 41.37ZM45.53 3.01C45.52 3.01 45.52 3.01 45.52 3.01C45.52 3.01 45.52 3.01 45.53 3.01ZM45.52 3.01C45.5 3.01 45.49 3.01 45.47 3.01C45.49 3.01 45.5 3.01 45.52 3.01ZM45.47 3.01L45.46 3L45.47 3.01ZM45.46 3H45.45H45.46ZM45.45 3H45.44H45.45ZM45.44 3C45.43 3 45.43 3 45.43 3H45.44ZM45.43 3H45.42H45.43Z" fill="url(#paint0_linear_2_2)"/>
<path fill-rule="evenodd" clip-rule="evenodd" d="M66.58 24.24H48.8C47.28 25.33 45.99 26.72 45.05 28.34C44.12 29.94 43.52 31.7 42.89 33.57C42.26 35.43 41.61 37.36 40.6 39.14C38.07 43.58 33.31 46.64 28.24 47.19V62.58C28.24 64.47 29.77 66 31.66 66H45.34C47.23 66 48.77 64.47 48.77 62.58V44.77H66.58C68.47 44.77 70 43.24 70 41.35V27.66C70 25.77 68.47 24.24 66.58 24.24Z" fill="url(#paint1_linear_2_2)"/>
<path fill-rule="evenodd" clip-rule="evenodd" d="M7 41.36C7 41.35 7 41.35 7 41.35C7 41.35 7 41.35 7 41.36ZM45.42 3H45.41H45.42ZM45.41 3H45.4H45.41ZM45.4 3H45.39H45.4ZM45.39 3H45.38H45.39ZM45.38 3C45.37 3 45.37 3 45.37 3C45.37 3 45.37 3 45.38 3ZM45.37 3C45.36 3 45.36 3 45.36 3C45.36 3 45.36 3 45.37 3ZM45.36 3C45.35 3 45.35 3 45.34 3C45.35 3 45.35 3 45.36 3Z" fill="url(#paint2_linear_2_2)"/>
<path fill-rule="evenodd" clip-rule="evenodd" d="M7.31 42.56C7.28 42.56 7.26 42.56 7.23 42.56C7.09 42.19 7 41.79 7 41.37C7 41.36 7 41.36 7 41.36C7 41.35 7 41.35 7 41.35V27.66C7 25.77 8.53 24.24 10.42 24.24H28.24V6.42C28.24 4.54 29.77 3 31.66 3H45.34C45.35 3 45.35 3 45.36 3C45.36 3 45.36 3 45.37 3C45.37 3 45.37 3 45.38 3H45.39H45.4H45.41H45.42H45.43C45.43 3 45.43 3 45.44 3H45.45H45.46L45.47 3.01C45.49 3.01 45.5 3.01 45.52 3.01C45.52 3.01 45.52 3.01 45.53 3.01C47.08 3.09 48.35 4.21 48.68 5.68C45.2 7.59 42.08 10.16 39.61 13.26C37.11 16.4 35.31 19.94 33.57 23.36C31.89 26.66 30.31 29.77 28.17 32.5C23.24 38.81 15.29 42.56 7.31 42.56V42.56Z" fill="url(#paint3_linear_2_2)"/>
<path d="M90.2886 41V12.0055H95.7226L109.145 21.4135H109.348L122.771 12.0055H128.204V41H121.716V20.1159L112.511 26.2797V41H106.023V26.2797L96.7769 20.1159V41H90.2886ZM133.89 41V12.0055H165.682V17.2772H140.378V23.6844H163.33V28.9561H140.378V35.7283H165.682V41H133.89ZM167.692 41L178.56 26.523L167.692 12.0055H175.599L184.318 23.8872H188.049L196.767 12.0055H204.675L193.807 26.523L204.675 41H196.727L188.049 29.1589H184.318L175.64 41H167.692ZM207.904 41V12.0055H214.393V41H207.904ZM234.985 41.2028C229.632 41.2028 225.537 39.9727 222.698 37.5126C219.859 35.0254 218.44 31.3487 218.44 26.4825C218.44 21.6433 219.859 17.9801 222.698 15.493C225.537 13.0058 229.632 11.7757 234.985 11.8028L249.584 11.8839V17.0745H235.431C231.917 17.0745 229.308 17.8179 227.605 19.3048C225.902 20.7917 225.05 23.1843 225.05 26.4825C225.05 29.7807 225.902 32.1868 227.605 33.7007C229.308 35.1876 231.917 35.931 235.431 35.931H249.989V41.2028H234.985ZM267.887 41.2028C262.724 41.2028 258.722 39.9727 255.884 37.5126C253.045 35.0254 251.626 31.3487 251.626 26.4825C251.626 21.6433 253.045 17.9937 255.884 15.5335C258.722 13.0463 262.818 11.8028 268.171 11.8028H275.47C280.823 11.8028 284.919 13.0463 287.757 15.5335C290.596 17.9937 292.015 21.6433 292.015 26.4825C292.015 31.3487 290.596 35.0254 287.757 37.5126C284.919 39.9727 280.891 41.2028 275.673 41.2028H267.887ZM268.617 17.0745C265.616 17.0745 263.278 17.6152 261.602 18.6966C259.925 19.7779 258.871 21.4946 258.439 23.8466H285.203C284.77 21.4946 283.716 19.7779 282.04 18.6966C280.364 17.6152 278.025 17.0745 275.024 17.0745H268.617ZM268.739 35.931H275.024C278.052 35.931 280.391 35.3903 282.04 34.309C283.716 33.2276 284.77 31.4974 285.203 29.1183H258.439C258.871 31.4974 259.925 33.2276 261.602 34.309C263.278 35.3903 265.657 35.931 268.739 35.931Z" fill="#394657"/>
<path d="M93.864 45.864C96.104 45.864 97.736 46.304 98.76 47.184C99.784 48.064 100.296 49.304 100.296 50.904C100.296 51.608 100.176 52.288 99.936 52.944C99.712 53.584 99.336 54.16 98.808 54.672C98.28 55.184 97.576 55.592 96.696 55.896C95.816 56.184 94.736 56.328 93.456 56.328H91.488V63H89.328V45.864H93.864ZM93.672 47.712H91.488V54.48H93.216C94.304 54.48 95.208 54.368 95.928 54.144C96.648 53.904 97.184 53.528 97.536 53.016C97.888 52.504 98.064 51.832 98.064 51C98.064 49.896 97.712 49.072 97.008 48.528C96.304 47.984 95.192 47.712 93.672 47.712ZM115.475 56.544C115.475 57.616 115.331 58.568 115.043 59.4C114.771 60.216 114.371 60.912 113.843 61.488C113.331 62.064 112.699 62.504 111.947 62.808C111.211 63.096 110.387 63.24 109.475 63.24C108.627 63.24 107.843 63.096 107.123 62.808C106.403 62.504 105.779 62.064 105.251 61.488C104.723 60.912 104.307 60.216 104.003 59.4C103.715 58.568 103.571 57.616 103.571 56.544C103.571 55.12 103.811 53.92 104.291 52.944C104.771 51.952 105.459 51.2 106.355 50.688C107.251 50.16 108.315 49.896 109.547 49.896C110.715 49.896 111.739 50.16 112.619 50.688C113.515 51.2 114.211 51.952 114.707 52.944C115.219 53.92 115.475 55.12 115.475 56.544ZM105.755 56.544C105.755 57.552 105.883 58.432 106.139 59.184C106.411 59.92 106.827 60.488 107.387 60.888C107.947 61.288 108.659 61.488 109.523 61.488C110.387 61.488 111.099 61.288 111.659 60.888C112.219 60.488 112.627 59.92 112.883 59.184C113.155 58.432 113.291 57.552 113.291 56.544C113.291 55.52 113.155 54.648 112.883 53.928C112.611 53.208 112.195 52.656 111.635 52.272C111.091 51.872 110.379 51.672 109.499 51.672C108.187 51.672 107.235 52.104 106.643 52.968C106.051 53.832 105.755 55.024 105.755 56.544ZM129.095 50.136V61.224H130.967V67.464H128.927V63H119.975V67.464H117.959V61.224H118.991C119.727 60.2 120.335 59.088 120.815 57.888C121.311 56.672 121.679 55.408 121.919 54.096C122.175 52.768 122.311 51.448 122.327 50.136H129.095ZM124.199 51.792C124.135 52.88 123.967 54.008 123.695 55.176C123.423 56.328 123.071 57.432 122.639 58.488C122.223 59.544 121.735 60.456 121.175 61.224H127.055V51.792H124.199ZM134.208 63V50.136H136.32V55.416H139.656C140.776 55.416 141.696 55.552 142.416 55.824C143.136 56.096 143.672 56.504 144.024 57.048C144.376 57.576 144.552 58.248 144.552 59.064C144.552 59.864 144.376 60.56 144.024 61.152C143.688 61.744 143.152 62.2 142.416 62.52C141.696 62.84 140.744 63 139.56 63H134.208ZM139.368 61.296C140.28 61.296 141.024 61.144 141.6 60.84C142.176 60.52 142.464 59.968 142.464 59.184C142.464 58.4 142.2 57.872 141.672 57.6C141.144 57.312 140.384 57.168 139.392 57.168H136.32V61.296H139.368ZM146.688 63V50.136H148.8V63H146.688ZM173.062 53.376C173.062 54.176 172.822 54.8 172.342 55.248C171.862 55.696 171.246 56 170.494 56.16V56.256C171.294 56.368 171.99 56.656 172.582 57.12C173.174 57.568 173.47 58.272 173.47 59.232C173.47 59.776 173.366 60.28 173.158 60.744C172.966 61.208 172.662 61.608 172.246 61.944C171.83 62.28 171.294 62.544 170.638 62.736C169.982 62.912 169.19 63 168.262 63H162.718V50.136H168.238C169.15 50.136 169.966 50.24 170.686 50.448C171.422 50.64 171.998 50.976 172.414 51.456C172.846 51.92 173.062 52.56 173.062 53.376ZM171.286 59.232C171.286 58.496 171.006 57.968 170.446 57.648C169.886 57.328 169.062 57.168 167.974 57.168H164.83V61.296H168.022C169.078 61.296 169.886 61.144 170.446 60.84C171.006 60.52 171.286 59.984 171.286 59.232ZM170.926 53.64C170.926 53.032 170.702 52.592 170.254 52.32C169.822 52.032 169.11 51.888 168.118 51.888H164.83V55.416H167.734C168.774 55.416 169.566 55.272 170.11 54.984C170.654 54.696 170.926 54.248 170.926 53.64ZM194.225 63L188.585 47.976H188.489C188.521 48.296 188.545 48.704 188.561 49.2C188.593 49.696 188.617 50.24 188.633 50.832C188.649 51.408 188.657 52 188.657 52.608V63H186.665V45.864H189.857L195.137 59.904H195.233L200.609 45.864H203.777V63H201.641V52.464C201.641 51.904 201.649 51.352 201.665 50.808C201.681 50.248 201.705 49.728 201.737 49.248C201.769 48.752 201.793 48.336 201.809 48H201.713L196.001 63H194.225ZM213.838 49.896C214.942 49.896 215.886 50.136 216.67 50.616C217.47 51.096 218.078 51.776 218.494 52.656C218.926 53.52 219.142 54.536 219.142 55.704V56.976H210.334C210.366 58.432 210.734 59.544 211.438 60.312C212.158 61.064 213.158 61.44 214.438 61.44C215.254 61.44 215.974 61.368 216.598 61.224C217.238 61.064 217.894 60.84 218.566 60.552V62.4C217.91 62.688 217.262 62.896 216.622 63.024C215.982 63.168 215.222 63.24 214.342 63.24C213.126 63.24 212.046 62.992 211.102 62.496C210.174 62 209.446 61.264 208.918 60.288C208.406 59.296 208.15 58.088 208.15 56.664C208.15 55.256 208.382 54.048 208.846 53.04C209.326 52.032 209.99 51.256 210.838 50.712C211.702 50.168 212.702 49.896 213.838 49.896ZM213.814 51.624C212.806 51.624 212.006 51.952 211.414 52.608C210.838 53.248 210.494 54.144 210.382 55.296H216.934C216.934 54.56 216.822 53.92 216.598 53.376C216.374 52.832 216.03 52.408 215.566 52.104C215.118 51.784 214.534 51.624 213.814 51.624ZM230.745 50.136H233.049L227.553 56.328L233.505 63H231.057L225.249 56.472V63H223.137V50.136H225.249V56.376L230.745 50.136ZM241.252 63.24C240.116 63.24 239.1 63.008 238.204 62.544C237.324 62.08 236.628 61.36 236.116 60.384C235.62 59.408 235.372 58.16 235.372 56.64C235.372 55.056 235.636 53.768 236.164 52.776C236.692 51.784 237.404 51.056 238.3 50.592C239.212 50.128 240.244 49.896 241.396 49.896C242.052 49.896 242.684 49.968 243.292 50.112C243.9 50.24 244.396 50.4 244.78 50.592L244.132 52.344C243.748 52.2 243.3 52.064 242.788 51.936C242.276 51.808 241.796 51.744 241.348 51.744C240.484 51.744 239.772 51.928 239.212 52.296C238.652 52.664 238.236 53.208 237.964 53.928C237.692 54.648 237.556 55.544 237.556 56.616C237.556 57.64 237.692 58.512 237.964 59.232C238.236 59.952 238.644 60.496 239.188 60.864C239.732 61.232 240.412 61.416 241.228 61.416C241.932 61.416 242.548 61.344 243.076 61.2C243.62 61.056 244.116 60.88 244.564 60.672V62.544C244.132 62.768 243.652 62.936 243.124 63.048C242.612 63.176 241.988 63.24 241.252 63.24ZM250.335 57.984C250.335 58.128 250.327 58.336 250.311 58.608C250.311 58.864 250.303 59.144 250.287 59.448C250.271 59.736 250.255 60.016 250.239 60.288C250.223 60.544 250.207 60.752 250.191 60.912L257.079 50.136H259.671V63H257.703V55.416C257.703 55.16 257.703 54.824 257.703 54.408C257.719 53.992 257.735 53.584 257.751 53.184C257.767 52.768 257.783 52.456 257.799 52.248L250.959 63H248.343V50.136H250.335V57.984ZM272.093 50.136H274.397L268.901 56.328L274.853 63H272.405L266.597 56.472V63H264.485V50.136H266.597V56.376L272.093 50.136ZM282.407 49.896C283.511 49.896 284.455 50.136 285.239 50.616C286.039 51.096 286.647 51.776 287.063 52.656C287.495 53.52 287.711 54.536 287.711 55.704V56.976H278.903C278.935 58.432 279.303 59.544 280.007 60.312C280.727 61.064 281.727 61.44 283.007 61.44C283.823 61.44 284.543 61.368 285.167 61.224C285.807 61.064 286.463 60.84 287.135 60.552V62.4C286.479 62.688 285.831 62.896 285.191 63.024C284.551 63.168 283.791 63.24 282.911 63.24C281.695 63.24 280.615 62.992 279.671 62.496C278.743 62 278.015 61.264 277.487 60.288C276.975 59.296 276.719 58.088 276.719 56.664C276.719 55.256 276.951 54.048 277.415 53.04C277.895 52.032 278.559 51.256 279.407 50.712C280.271 50.168 281.271 49.896 282.407 49.896ZM282.383 51.624C281.375 51.624 280.575 51.952 279.983 52.608C279.407 53.248 279.063 54.144 278.951 55.296H285.503C285.503 54.56 285.391 53.92 285.167 53.376C284.943 52.832 284.599 52.408 284.135 52.104C283.687 51.784 283.103 51.624 282.383 51.624Z" fill="#394657"/>
<defs>
<linearGradient id="paint0_linear_2_2" x1="7.2" y1="3.2" x2="47.86" y2="43.86" gradientUnits="userSpaceOnUse">
<stop stop-color="#48B0E0"/>
<stop offset="1" stop-color="#427CC5"/>
</linearGradient>
<linearGradient id="paint1_linear_2_2" x1="41.01" y1="37.02" x2="68.76" y2="64.76" gradientUnits="userSpaceOnUse">
<stop stop-color="#48B0E0"/>
<stop offset="0.819608" stop-color="#427CC5"/>
<stop offset="1" stop-color="#427CC5"/>
</linearGradient>
<linearGradient id="paint2_linear_2_2" x1="41.01" y1="37.01" x2="68.76" y2="64.76" gradientUnits="userSpaceOnUse">
<stop stop-color="#48B0E0"/>
<stop offset="0.819608" stop-color="#2C62D6"/>
<stop offset="1" stop-color="#2C62D6"/>
</linearGradient>
<linearGradient id="paint3_linear_2_2" x1="7.2" y1="3.2" x2="47.86" y2="43.86" gradientUnits="userSpaceOnUse">
<stop stop-color="#76C4E8"/>
<stop offset="0.819608" stop-color="#6189E0"/>
<stop offset="1" stop-color="#6189E0"/>
</linearGradient>
</defs>
</svg>
