<svg id="Слой_1" data-name="Слой 1" xmlns="http://www.w3.org/2000/svg" viewBox="0 0 1892.11 1064.48"><defs><style>.cls-1{fill:#fff;}.cls-2{fill:#006649;}.cls-3{fill:#e3001c;}.cls-4{fill:#8f4620;}.cls-5{fill:#ab6d29;}.cls-6{fill:#fbc110;}</style></defs><title>logo-0</title><path class="cls-1" d="M660,539.6c.47,7.9-17.39,16.51-21.4,23.34-3.89,6.63-5.68,22.64-9.73,29.18-1.81,2.92-8.31,6.59-9.73,9.73-.18.37-.25,33.36-.23,63.57,0,7.62,0,15.07,0,21.77C592.5,714.49,569,738.33,553,753.56c-26.16,24.92-71,73.14-114.69,121.26h0c-53.24-36.47-100.1-70.14-101.21-74.58-1.44-5.84,9.14-18.3,5.84-23.34s-18.3-.8-23.34-3.89c-16-9.78-40.75-42-44.74-60.3-1.48-6.81,3.13-20.81,5.84-27.23,7.51-17.76,42.4-44.91,42.79-64.19.41-20.52-31.86-52.66-42.79-70-5.25-8.34-21.4-33.07-21.4-33.07s-39.66-55.42-53.65-79.75C388,309.62,426.54,265.33,426.54,265.33c3.72,9,25.19,87.51,35,89.48,7,1.4,21.61-7.45,25.29-13.62,2.49-4.18-3.6-16.16,0-19.45,7.94-7.24,33.24-1,42.79,3.89,4,2.06,9,10,11.67,13.62,4.82,6.5,14.26,19.82,17.51,27.23,5.45,12.43,6.61,40.91,13.62,52.52,3.73,6.19,18.48,12.84,21.4,19.45,5.5,12.45-6.71,42.62,0,54.46,4.18,7.41,22.12,12.76,29.18,17.51,6,4.07,17.64,12.94,23.34,17.51C649.84,530.73,659.68,535.12,660,539.6Z" transform="translate(-14.18 -20.44)"/><path class="cls-2" d="M418.76,245.88S380.24,290.17,197.83,419c-2.59-4.47-4.28-7.9-4.71-9.73-1.36-5.85,3.75-17.7,5.84-23.34,1.52-4.08,8.13-11.22,7.78-15.56-.54-6.59-11.26-16.36-15.56-21.4-5.37-6.28-20.19-15.72-23.34-23.34s4.75-26.3,0-33.07c-3.27-4.67-17.72-3.44-21.4-7.78-8.64-10.19-6.94-39.47-9.73-52.52C134.1,220,126.73,196,125,183.64c-1.91-14,4-43.63-1.95-56.41-2.76-5.93-15-12.72-19.45-17.51-5.91-6.32-12.82-28.42-21.4-27.23-8.85,1.23-11.69,24.33-13.62,33.07-2.31,10.46-3.33,32.17-1.95,42.79,1.05,8.09,7,23.44,9.73,31.12,6.56,18.28,26.65,52.71,29.18,72,1,7.78-5.85,23.54-3.89,31.12,1.65,6.4,12.59,15.48,15.56,21.4,4.36,8.66,10.35,27.37,11.67,37,2.2,15.91-7.37,49.08-1.95,64.19,1.75,4.86,13.23,10.41,13.62,15.56.49,6.32-15.13,15.25-13.62,21.4,1.89,7.61,22.31,9.45,27.23,15.56,6.09,7.55,14.57,27.72,11.67,37-2.39,7.61-17.31,19.53-25.29,19.45-6.22-.06-16.75-9.94-19.45-15.56-3.79-7.9,3.35-26.92,0-35C118,465.84,103.64,456,97.81,450.12c-9.73-9.73-37.37-25.23-38.9-38.9C57.17,395.79,91,374.18,92,358.7c.45-6.94-7.59-19.65-11.67-25.29-5.85-8.09-22.19-20.11-29.18-27.23C42,296.84,24.69,279.49,20,267.28c-2.43-6.36-8.89-22.6-3.89-27.23,4.65-4.3,25.5,8.77,31.12,5.84,6-3.13,7.62-20.48,7.78-27.23.27-11.53-6.52-24-13.62-33.07-3.6-4.61-17.06-12.16-19.45-17.51-4.78-10.64,0-33.07,0-50.57,0-24.06-5.08-68.1-7.72-91A5.53,5.53,0,0,1,22.12,21c6.67,3.13,16.61,8.52,21.22,10.93C54.94,38,87.13,34.33,93.92,45.53,97.81,70.82,265.09,199.2,298.16,181.69c0,0-1.95-11.67,5.84-15.56,5.27-2.65,20.46-1.28,27.48-.47a8.89,8.89,0,0,1,5.87,3.27l2,2.57a11.71,11.71,0,0,0,9.08,4.36h14.43a12,12,0,0,1,6.19,1.71l2.33,1.4a15,15,0,0,1,6.32,7.7c2,5.56,5,17.14,7.94,22.25,4.14,7.18,15.79,19.2,21.4,25.29C409.89,237.24,417.18,242.07,418.76,245.88Z" transform="translate(-14.18 -20.44)"/><path class="cls-3" d="M1033.42,848.88c-6.19,10.13-22.62,28-27.23,38.9-4,9.57-4.75,30.91-7.78,40.85-2.16,7.08-4.3,26.49-11.67,27.23-7.64.78-9.82-24.92-17.51-25.29-8.27-.41-14.88,20.17-21.4,25.29-6,4.71-19.63,13.46-27.23,13.62-10.66.21-28.55-14.9-38.9-17.51-6.61-1.67-20.93-4.57-27.23-1.95-4.14,1.73-10,9.45-11.67,13.62-2.94,7.22-4.1,23.63-1.95,31.12,3,10.37,30.21,25.4,25.29,35-5.76,11.26-38.53-3.85-50.57,0-8,2.55-23,12.23-27.23,19.45-4.45,7.61,1.95,40.85-3.89,35-60.81-60.81-54.46-83.64-85.12-86-5.45-.41-7.8-7.62-13.25-7.82-7.49-.27-17.68-.45-22.23.43-7.72,1.48-21.32,11.5-29.18,11.67-11.85.27-34.47-9.67-44.74-15.56-25.27-14.51-87-55.09-141.92-92.71C491.72,846.15,536.54,797.93,562.7,773c16-15.23,39.53-39.08,65.92-66.39,0,15.44.1,26.92.21,27.48,2.53,13.46,13.11,39,15.56,52.52s-1.26,41.82,3.89,54.46c3.13,7.66,14.94,20.09,21.4,25.29,8.15,6.54,31.57,10.5,37,19.45,3,5-4.12,19.22,0,23.34,7.92,7.92,34.66,4.84,44.74,0,2.8-1.34,4.94-8.46,7.78-9.73,7.12-3.15,23.32,1.69,31.12,1.95,6.32.19,20.79-4.45,25.29,0,3.11,3.07-3.09,14.41,0,17.51,4.8,4.8,21.82,4.14,27.23,0,6-4.59,2.92-23.4,7.78-29.18,4.47-5.33,20.25-6.87,25.29-11.67,8.34-7.94,18.63-29.64,21.4-40.85,1.75-7.08-1.67-22.08,0-29.18,1-4.24,2-7.88,5.84-5.84,33.07,17.51,79.95-11.77,105-5.84,11.44,2.7,39,8.33,42.79,19.45C1053.94,824.66,1038.31,840.9,1033.42,848.88Z" transform="translate(-14.18 -20.44)"/><path class="cls-4" d="M589,556.46,594.44,574a75,75,0,0,1,0,32.91L586.77,642c3.38,24.61-2.55,38.8-8.78,52.66,1.13-20.28.19-39.16-5.48-54.85,2.27-8.64,2.48-21.38,2.19-35.1-.37-7.31-3.78-12.44-8.78-16.45,3.73,35.1,5,74.71,2.19,87.76l-3.29,8.78-3.29-36.2c-2.51-6.89-5.06-13.67-8.78-17.55,2-4.56,1.45-10.29,0-16.45,1.59-2.68.87-6.79,0-11l-4.39-13.16,3.29,54.85-1.1,26.33c-.27-9.68-1.39-18.86-5.48-26.33l-6.58-16.45c.84-7.85-.41-16.3-3.29-25.23l-4.39-13.16c-1.48-2.73-2.94-3.14-4.39-2.19l4.39,15.36q4.92,18.41,3.29,34l-8.78-26.33-5.48-7.68-7.68-13.16,3.29,18.65c1.24,7.14,4.37,14.89,8.78,23L508.88,613.5c.23-5.92-3-12.67-7.68-19.75A21.27,21.27,0,0,0,488,586.08l8.78,20.84,8.78,15.36c-3.65.15-8.08-3-13.16-8.78-1.06-4.83-4.07-9.19-8.78-13.16a23.33,23.33,0,0,0-13.16-9.87l-7.68-6.58-4.39-6.58c-1.37,4.93-2.94,9-5.48,8.78l4.39,9.87c2.6,2,4,5.42,4.39,9.87a24.29,24.29,0,0,1-1.1,14.26L555,691.39,547.27,698a14.52,14.52,0,0,1-15.36,0c-.13,4.74-3.62,7.3-8.78,8.78-4.57,1.59-9.34.45-14.26-3.29-.24,3.17-2.76,5.2-6.58,6.58-4.88,1.82-9.3.19-13.16-5.48a6.47,6.47,0,0,1-5.48,5.48l-26.33-25.23c1.8,4.72,1.51,9.12-1.1,13.16l-4.39-4.39c1.21,4.06.59,7.39-2.19,9.87L443.06,698a13.19,13.19,0,0,1,0,12.07c-2.36-4-6.85-8-13.16-12.07l-3.29,6.58c-6.79-12.58-21.05-28.58-36.2-45,.63,8.77-.25,16.9-3.29,24.13l-11-11-12.07,7.68a15.52,15.52,0,0,1-13.16,0l3.29-7.68-14.26,5.48-1.1-9.87c.82-5.5,3.57-8.64,8.78-8.78-2.74-4.57-7.55-6.18-13.16-6.58L352,645.31l1.1-3.29A20.26,20.26,0,0,0,341,633.25l3.29-5.48,5.48-2.19c-2.84-.25-5.35-2.8-7.68-6.58L341,604.73c1.54-1.82.27-3.65-2.19-5.48-3.14,1.34-6.89-.21-11-3.29a31.47,31.47,0,0,0,0-16.45l-4.39,4.39a20.89,20.89,0,0,0,1.1-15.36c-1.48-.72-2.94.25-4.39,2.19,3.14-12.42,6.87-23.63,13.16-29.62-.57-3.38-4-4-7.68-4.39,4.56-.11,9.36-7.79,14.26-18.65,1.55-3.35.15-5.21-2.19-6.58,3.61-3.47,5.73-7.39,5.48-12.07-.16-3.91-3.17-4.7-7.13-4.42l.55-6.68a6.63,6.63,0,0,1-6,1.91c-3.85-.66-2.19-2.74-8.91-4.18s-14.55,2-14.55,2a22.2,22.2,0,0,1-6.44-1.1,19.61,19.61,0,0,1-5.34-2.87l-4.8,1h-2.44c.22-2.48.24-5.42.24-5.42l14.26-16.45a31.89,31.89,0,0,0,7.68-21.94c3.44,4.12,5.33,8.15,5.48,12.07a35.47,35.47,0,0,0,5.48-17.55,32.19,32.19,0,0,1,3.29,15.36c5-4.8,8.3-12.51,9.87-23a15,15,0,0,1,5.48,11c3-1.71,4.57-5.18,4.39-11,5.18,3.38,8.32,7.55,7.68,13.16,10.67-.57,20.45,2.76,29.62,8.78,2.53-.09,4.55-1.2,5.48-4.39,1.23,7.48,7.33,16.59,15.36,26.33,1.91-9.14-.2-18-9.87-26.33-4.41-6.38-14-8.91-24.13-11-6.25-2.42-8.07-7.39-6.58-14.26,3.29-5.13,7.62-9,14.26-9.87H386c1.44-3.64,3.37-6.81,6.58-8.78a106.37,106.37,0,0,1,60.33,6.58c14.83,4.78,30.72,13,47.17,23,7,1.92,13.37,2.5,18.65,1.1,0,5.06-1.44,9-5.48,11,15.81,10.33,29.71,21.65,37.3,36.2,12.55,16,24.31,36.17,35.1,61.43l12.07,11C596.47,555.31,593.34,556.55,589,556.46Z" transform="translate(-14.18 -20.44)"/><path class="cls-5" d="M427.16,501.42c-4.75,7.32-11.7,13.16-15,14.63s-1.1-21.58-1.1-21.58l4.39,1.1-13-23.59c1.08,1.39-1.17-1.43,0,0,1.91-9.14-.2-18-9.87-26.33-4.41-6.38-14-8.91-24.13-11-6.25-2.42-8.07-7.39-6.58-14.26,3.29-5.13,7.62-9,14.26-9.87H386s-2.74,4.94.91,12.62,9.51,2.56,19,11.33,18.65,13.16,21.21,28.16S431.91,494.11,427.16,501.42Z" transform="translate(-14.18 -20.44)"/><path class="cls-6" d="M336.65,488.31,336.1,495c-.18,0-.36,0-.55,0-3.69,4.88-10,8.12-18.65,9.87-9.16-2.5-16.35-.56-21.82,5.21a4.4,4.4,0,0,0-1.22,3v6s-12.14-3.27-14.26-6.58c-8.78-7.68,0-15.36,0-15.36s6.55-9.24,7.68-8.78c.44.19.71-1.45.86-3.36h2.44l4.8-1a19.61,19.61,0,0,0,5.34,2.87,22.2,22.2,0,0,0,6.44,1.1s7.82-3.42,14.55-2,5.06,3.52,8.91,4.18A6.63,6.63,0,0,0,336.65,488.31Z" transform="translate(-14.18 -20.44)"/><path class="cls-6" d="M301.94,481.62a7.17,7.17,0,0,1,0-5.76c1.37-3,10.42-5.76,10.42-5.76s1.92,1.92,0,5.76S305.23,482.17,301.94,481.62Z" transform="translate(-14.18 -20.44)"/><path class="cls-2" d="M676.64,227.67V428.85H646.45V227.67Z" transform="translate(-14.18 -20.44)"/><path class="cls-2" d="M809.23,356.62q-.34-16.41-.5-37.31-.17-18.8-.17-43.58h-.5q-2.5,18.51-5.84,41.19-3,19.41-6,37.61L785,424.68H761.53l-9.34-70.15Q750,339,747.52,317.22q-2.34-20-4.34-41.49h-.33l-1.67,80.89-1.83,72.24H711.66l7-201.19H759.2L766.53,282q2.5,17.32,4.67,35.82,2.5,20,4.17,37.61h.5l5-38.21q3-21.79,5.17-35.82l8.51-53.73h39.53l5.67,201.19H810.56Z" transform="translate(-14.18 -20.44)"/><path class="cls-2" d="M970.18,356.62q-.34-16.41-.5-37.31-.17-18.8-.17-43.58H969q-2.5,18.51-5.84,41.19-3,19.41-6,37.61L946,424.68H922.48l-9.34-70.15Q911,339,908.47,317.22q-2.34-20-4.34-41.49h-.33l-1.67,80.89-1.83,72.24H872.61l7-201.19h40.53L927.48,282q2.5,17.32,4.67,35.82,2.5,20,4.17,37.61h.5l5-38.21q3-21.79,5.17-35.82l8.51-53.73H995l5.67,201.19H971.51Z" transform="translate(-14.18 -20.44)"/><path class="cls-2" d="M1066.08,227.67V428.85h-30.19V227.67Z" transform="translate(-14.18 -20.44)"/><path class="cls-2" d="M1200.83,419.6a78.6,78.6,0,0,1-17.18,7.46,69.14,69.14,0,0,1-21.68,3.88q-31.19,0-47.2-27.16t-16-72.54q.16-50.74,19.35-79.1,17.84-26.56,46.37-26.57a63.89,63.89,0,0,1,19.85,3,38.11,38.11,0,0,1,12.68,6.87l-6,43.28a37.74,37.74,0,0,0-11-6.27,47.5,47.5,0,0,0-15.68-2.39q-14.85,0-23.85,13.73-10,15.22-10,44.48,0,27.47,9,43.88,8.84,15.52,22.85,15.52,7.34,0,9.51-1.79V351.25h-15V309.46h44Z" transform="translate(-14.18 -20.44)"/><path class="cls-2" d="M1264.88,224.08l.17.3v89.25h9q10.67,0,15.51-14a41.18,41.18,0,0,0,1.33-9.85v-2.69q0-13.73-7.67-20a13.13,13.13,0,0,0-7.84-2.39h-2.33l-.17-.3v-39.7l.17-.6h.5q36.36,0,44.87,34.63a106.18,106.18,0,0,1,2.83,25.67q0,26.87-14.68,45.07-4.17,4.18-4.84,4.18v.6a32.74,32.74,0,0,1,5.67,6.87q6.34,11,9.84,35.82,5.34,37.91,8.34,52.54h-31q-2.17-5.67-6.17-32.83-3-24.47-5-31.34Q1280.05,353,1271,353h-6v76.12l-.33.3H1235l-.33-.3V228.86q0-.59,10.17-2.39Q1259.21,224.09,1264.88,224.08Z" transform="translate(-14.18 -20.44)"/><path class="cls-2" d="M1429.33,226.77q.5,0,3.17,17.31l30.69,184.17-.17.3h-32.36q-.34,0-2.67-16.42l-4.67-30.45h-22.68v-.3l4.5-39.7h14l-10.84-75.82h-.17L1388,428.26l-.17.3h-30.86l-.33-.6,32.69-201.19Z" transform="translate(-14.18 -20.44)"/><path class="cls-2" d="M1501.38,273h-28.69V227.67h88.06V273h-29.19V428.85h-30.19Z" transform="translate(-14.18 -20.44)"/><path class="cls-2" d="M1621.46,227.67V428.85h-30.19V227.67Z" transform="translate(-14.18 -20.44)"/><path class="cls-2" d="M1748.55,399Q1733,430.35,1708,430.35q-25.52,0-40.36-31.34-13.51-28.66-13.51-72.54,0-46.86,13.51-75.82Q1681,222,1704.35,218.71v43.88q-8.84,3.29-13.84,20.3-4.84,16.42-4.84,41.79,0,27.17,6,44.18,6.5,17.91,17,17.91,10.67,0,17-17.91,6.17-17.31,6.17-44.48,0-25.67-5.17-42.39-5.34-16.71-14.68-19.7V218.41q24,1.5,38,32.24,13.34,29,13.34,72.54Q1763.39,369.16,1748.55,399Z" transform="translate(-14.18 -20.44)"/><path class="cls-2" d="M1796.08,428.85V227.67h35.52l17.85,61.79q4.33,14.33,9.34,33.73,4.33,17.91,8.34,36.72h.5q-2.34-37.31-2.33-84.48V227.67h27.52V428.85h-31.69L1841.95,362q-5.17-17.61-9.67-35.22-5.5-20.3-9.17-37.31h-.67q1.16,37.91,1.17,89.85v49.55Z" transform="translate(-14.18 -20.44)"/><path class="cls-3" d="M682.59,505.06V636.7q0,54.65,20.36,54.65,20.55,0,20.55-54.65V505.06h34.76V632.92q0,107.59-56.27,107.58-54.16,0-54.16-109V505.06Z" transform="translate(-14.18 -20.44)"/><path class="cls-3" d="M786.1,674.85a54,54,0,0,0,14.79,10,45.26,45.26,0,0,0,18.82,4.47q17.67,0,17.67-18.9,0-14.09-20.36-26.47-17.48-11.34-26.5-27.15-10-17.87-10-42.62,0-31.62,13.83-51.56,14.21-21,38.22-21a58.41,58.41,0,0,1,20.17,3.44,50.5,50.5,0,0,1,14.79,8.25l-7.3,49.84a15.31,15.31,0,0,0-2.3-1.72,18,18,0,0,0-2.69-1.72,28,28,0,0,0-6.34-3.78,39.83,39.83,0,0,0-16.71-3.78q-16.33,0-16.32,17.19,0,11.34,23.24,27.15,33.61,22.35,33.61,69.78,0,32-13.44,51.9-14.6,22-41.67,22a59,59,0,0,1-22.09-4.47,53.21,53.21,0,0,1-15.94-9.62Z" transform="translate(-14.18 -20.44)"/><path class="cls-3" d="M969.12,504q.58,0,3.65,19.94L1008.11,736l-.19.34H970.66q-.39,0-3.07-18.9l-5.38-35.06H936.09v-.34l5.19-45.71h16.13l-12.48-87.3h-.19L921.49,736l-.19.34H885.77l-.38-.69L923,504Z" transform="translate(-14.18 -20.44)"/><path class="cls-2" d="M1122.12,634.89q4.16.26,8.29.39t8.44.13q3.73,0,7-.13t6.17-.39l.22,5.75-9.13,4.05q-1.46.66-1.24,3,.44,6.67.44,12.29,0,27.19-7.45,46.8,4.82,12,8.76,17.65t9.2,5.62a14.46,14.46,0,0,0,4.46-.78l.58,5.75q-6.43,5.88-13.37,5.88-11.54,0-19.65-17.52-13.09,17-29.15,17-15,0-25.34-13.07T1060,691.89q0-30.32,21.18-50.2-8-16.73-10.19-26.41a88.24,88.24,0,0,1-2.23-19.87q0-18.69,8-29.94t19.8-11.24q10.41,0,17.51,9.54t7.1,26.27q0,27.06-22.38,45.75l31.14,61q4.82-15.29,4.82-34.77,0-8-.44-12.94a8,8,0,0,0-.91-3.53,4.18,4.18,0,0,0-2.08-1.57l-9.06-3.27Zm-35.72,14.25Q1076,664.44,1076,687.44q0,18,6.1,28.63t17,10.59q10.44,0,19.14-12.29ZM1094.9,629q10.28-16.47,10.28-38.17,0-11.77-2.88-18.89t-7.28-7.12q-4.58,0-7.4,6.21t-2.82,16.54A88.84,88.84,0,0,0,1092,622Z" transform="translate(-14.18 -20.44)"/><path class="cls-3" d="M1318.44,653.54q-.39-18.9-.58-43-.19-21.65-.19-50.18h-.58q-2.88,21.31-6.72,47.43-3.46,22.35-6.91,43.31l-12.87,80.77h-27.08l-10.75-80.77q-2.5-17.87-5.38-43-2.69-23-5-47.78H1242l-1.92,93.15L1238,736.72h-31.88l8.07-231.67h46.67l8.45,62.56q2.88,19.94,5.38,41.25,2.88,23,4.8,43.31h.58l5.76-44q3.46-25.09,6-41.25l9.79-61.87h45.52l6.53,231.67H1320Z" transform="translate(-14.18 -20.44)"/><path class="cls-3" d="M1458.06,643.23h-46.48v42.62h52v50.87h-86.81V505.06h84.12v50.87h-49.36V593h46.48Z" transform="translate(-14.18 -20.44)"/><path class="cls-3" d="M1551.58,736.72l-9.41-37.81-10-40.22h-.38q-1.34,7.91-3.84,19.59l-13.25,58.43h-39.37l36.49-117.21-35.15-114.46h39.75l8.83,36.78q3.84,16.5,8.64,38.5h.38q3.46-18.22,7.68-38.15l7.87-37.12h39.56l-35.15,113.08,37.45,118.58Z" transform="translate(-14.18 -20.44)"/><path class="cls-3" d="M1642.61,505.06V736.72h-34.76V505.06Z" transform="translate(-14.18 -20.44)"/><path class="cls-3" d="M1765.14,730.54q-4,3.79-12.29,6.53a64.19,64.19,0,0,1-20.17,3.09q-34.38,0-53-34.72Q1663,674.51,1663,624.67q0-58.43,21.51-92.12,19.78-30.93,50.51-30.93a61.17,61.17,0,0,1,19.59,3.09q8.25,2.76,12.67,6.87l-6.72,49.15a39,39,0,0,0-10.18-5.84,40.83,40.83,0,0,0-13.83-2.41q-15.94,0-25.93,16.5-11.14,18.22-11.14,51.56,0,68.06,37.83,68.06,13.83,0,23-6.53Z" transform="translate(-14.18 -20.44)"/><path class="cls-3" d="M1889.2,702.35q-17.86,36.09-46.67,36.09-29.38,0-46.48-36.09-15.56-33-15.56-83.52,0-54,15.56-87.3,15.36-33,42.25-36.78v50.53q-10.18,3.79-15.94,23.37-5.57,18.91-5.57,48.12,0,31.28,6.91,50.87,7.49,20.62,19.59,20.62,12.29,0,19.59-20.62,7.1-19.93,7.11-51.21,0-29.56-6-48.81-6.15-19.25-16.9-22.69V494.4q27.65,1.72,43.79,37.12,15.36,33.34,15.36,83.52Q1906.29,668,1889.2,702.35Z" transform="translate(-14.18 -20.44)"/></svg>