<?xml version="1.0" encoding="utf-8"?>
<!-- Generator: Adobe Illustrator 21.0.1, SVG Export Plug-In . SVG Version: 6.00 Build 0)  -->
<svg version="1.1" id="Слой_1" xmlns="http://www.w3.org/2000/svg" xmlns:xlink="http://www.w3.org/1999/xlink" x="0px" y="0px"
	 viewBox="0 0 1920 1080" style="enable-background:new 0 0 1920 1080;" xml:space="preserve">
<style type="text/css">
	.st0{fill:#FFFFFF;stroke:#000000;stroke-miterlimit:10;}
	.st1{fill:#FFFFFF;}
	.st2{fill:#006649;}
	.st3{fill:#E3001C;}
	.st4{fill:#FFFFFF;stroke:#110B00;stroke-miterlimit:10;}
	.st5{fill:none;stroke:#110B00;stroke-miterlimit:10;}
	.st6{fill:#8F4620;}
	.st7{fill:#AB6D29;}
	.st8{fill:#FBC110;}
</style>
<path class="st0" d="M-825.9,226.5c3.4,1.6,8.5,4.4,10.9,5.6c6,3.1,22.5,1.2,26,7c2,13,88,79,105,70c0,0-1-6,3-8
	c2.7-1.4,10.5-0.7,14.1-0.2c1.2,0.1,2.3,0.7,3,1.7l1,1.3c1.1,1.4,2.9,2.2,4.7,2.2h7.4c1.1,0,2.2,0.3,3.2,0.9l1.2,0.7
	c1.5,0.9,2.7,2.3,3.3,4c1,2.9,2.6,8.8,4.1,11.4c2.1,3.7,8.1,9.9,11,13c1.4,1.6,5.2,4,6,6c1.9,4.6-1.1,15.1,0,20
	c0.6,2.7,3.5,7.7,5,10c2.8,4.3,7.9,15,13,16c3.6,0.7,11.1-3.8,13-7c1.3-2.1-1.8-8.3,0-10c4.1-3.7,17.1-0.5,22,2c2,1.1,4.6,5.2,6,7
	c2.5,3.3,7.3,10.2,9,14c2.8,6.4,3.4,21,7,27c1.9,3.2,9.5,6.6,11,10c2.8,6.4-3.4,21.9,0,28c2.2,3.8,11.4,6.6,15,9
	c3.1,2.1,9.1,6.7,12,9c1.8,1.4,6.9,3.7,7,6c0.2,4.1-8.9,8.5-11,12c-2,3.4-2.9,11.6-5,15c-0.9,1.5-4.3,3.4-5,5
	c-1.6,3.4-0.8,11.2-1,15c-0.3,4.7-1.1,14.2-1,19c0.1,6,0.9,18.1,2,24c1.3,6.9,6.7,20.1,8,27c1.3,6.9-0.6,21.5,2,28
	c1.6,3.9,7.7,10.3,11,13c4.2,3.4,16.2,5.4,19,10c1.6,2.6-2.1,9.9,0,12c4.1,4.1,17.8,2.5,23,0c1.4-0.7,2.5-4.4,4-5
	c3.7-1.6,12,0.9,16,1c3.2,0.1,10.7-2.3,13,0c1.6,1.6-1.6,7.4,0,9c2.5,2.5,11.2,2.1,14,0c3.1-2.4,1.5-12,4-15c2.3-2.7,10.4-3.5,13-6
	c4.3-4.1,9.6-15.2,11-21c0.9-3.6-0.9-11.4,0-15c0.5-2.2,1-4,3-3c17,9,41.1-6.1,54-3c5.9,1.4,20.1,4.3,22,10c1.6,4.6-6.5,12.9-9,17
	c-3.2,5.2-11.6,14.4-14,20c-2.1,4.9-2.4,15.9-4,21c-1.1,3.6-2.2,13.6-6,14c-3.9,0.4-5.1-12.8-9-13c-4.3-0.2-7.7,10.4-11,13
	c-3.1,2.4-10.1,6.9-14,7c-5.5,0.1-14.7-7.7-20-9c-3.4-0.9-10.8-2.4-14-1c-2.1,0.9-5.1,4.9-6,7c-1.5,3.7-2.1,12.1-1,16
	c1.5,5.3,15.5,13.1,13,18c-3,5.8-19.8-2-26,0c-4.1,1.3-11.8,6.3-14,10c-2.3,3.9,1,21-2,18c-31.3-31.3-28-43-43.8-44.2
	c-2.8-0.2-4-3.9-6.8-4c-3.8-0.1-9.1-0.2-11.4,0.2c-4,0.8-11,5.9-15,6c-6.1,0.1-17.7-5-23-8c-25.6-14.7-67.9-58.2-95-70
	c-3.7-1.6-12.4-1.2-16-3c-4.3-2.1-12.9-8.4-14-13c-0.7-3,4.7-9.4,3-12c-1.7-2.5-9.4-0.4-12-2c-8.2-5-21-21.6-23-31
	c-0.8-3.5,1.6-10.7,3-14c3.9-9.1,21.8-23.1,22-33c0.2-10.5-16.4-27.1-22-36c-2.7-4.3-11-17-11-17s-9.8-20.7-14-27
	c-3.5-5.2-14.6-13-16-19c-0.7-3,1.9-9.1,3-12c0.8-2.1,4.2-5.8,4-8c-0.3-3.4-5.8-8.4-8-11c-2.8-3.2-10.4-8.1-12-12
	c-1.6-3.9,2.4-13.5,0-17c-1.7-2.4-9.1-1.8-11-4c-4.4-5.2-3.6-20.3-5-27c-1.3-6.3-5.1-18.6-6-25c-1-7.2,2.1-22.4-1-29
	c-1.4-3-7.7-6.5-10-9c-3-3.3-6.6-14.6-11-14c-4.6,0.6-6,12.5-7,17c-1.2,5.4-1.7,16.5-1,22c0.5,4.2,3.6,12.1,5,16
	c3.4,9.4,13.7,27.1,15,37c0.5,4-3,12.1-2,16c0.8,3.3,6.5,8,8,11c2.2,4.4,5.3,14.1,6,19c1.1,8.2-3.8,25.2-1,33c0.9,2.5,6.8,5.4,7,8
	c0.2,3.3-7.8,7.8-7,11c1,3.9,11.5,4.9,14,8c3.1,3.9,7.5,14.2,6,19c-1.2,3.9-8.9,10-13,10c-3.2,0-8.6-5.1-10-8
	c-1.9-4.1,1.7-13.8,0-18c-1.6-3.9-9-9-12-12c-5-5-19.2-13-20-20c-0.9-7.9,16.5-19,17-27c0.2-3.6-3.9-10.1-6-13
	c-3-4.2-11.4-10.3-15-14c-4.7-4.8-13.6-13.7-16-20c-1.3-3.3-4.6-11.6-2-14c2.4-2.2,13.1,4.5,16,3c3.1-1.6,3.9-10.5,4-14
	c0.1-5.9-3.4-12.3-7-17c-1.9-2.4-8.8-6.3-10-9c-2.5-5.5,0-17,0-26c0-12.4-2.6-35-4-46.8C-830.2,227.2-827.9,225.6-825.9,226.5z"/>
<path class="st0" d="M-1586.9,335.5c3.4,1.6,8.5,4.4,10.9,5.6c6,3.1,22.5,1.2,26,7c2,13,88,79,105,70c0,0-1-6,3-8
	c2.7-1.4,10.5-0.7,14.1-0.2c1.2,0.1,2.3,0.7,3,1.7l1,1.3c1.1,1.4,2.9,2.2,4.7,2.2h7.4c1.1,0,2.2,0.3,3.2,0.9l1.2,0.7
	c1.5,0.9,2.7,2.3,3.3,4c1,2.9,2.6,8.8,4.1,11.4c2.1,3.7,8.1,9.9,11,13c1.4,1.6,5.2,4,6,6c1.9,4.6-1.1,15.1,0,20
	c0.6,2.7,3.5,7.7,5,10c2.8,4.3,7.9,15,13,16c3.6,0.7,11.1-3.8,13-7c1.3-2.1-1.8-8.3,0-10c4.1-3.7,17.1-0.5,22,2c2,1.1,4.6,5.2,6,7
	c2.5,3.3,7.3,10.2,9,14c2.8,6.4,3.4,21,7,27c1.9,3.2,9.5,6.6,11,10c2.8,6.4-3.4,21.9,0,28c2.2,3.8,11.4,6.6,15,9
	c3.1,2.1,9.1,6.7,12,9c1.8,1.4,6.9,3.7,7,6c0.2,4.1-8.9,8.5-11,12c-2,3.4-2.9,11.6-5,15c-0.9,1.5-4.3,3.4-5,5
	c-1.6,3.4-0.8,11.2-1,15c-0.3,4.7-1.1,14.2-1,19c0.1,6,0.9,18.1,2,24c1.3,6.9,6.7,20.1,8,27c1.3,6.9-0.6,21.5,2,28
	c1.6,3.9,7.7,10.3,11,13c4.2,3.4,16.2,5.4,19,10c1.6,2.6-2.1,9.9,0,12c4.1,4.1,17.8,2.5,23,0c1.4-0.7,2.5-4.4,4-5
	c3.7-1.6,12,0.9,16,1c3.2,0.1,10.7-2.3,13,0c1.6,1.6-1.6,7.4,0,9c2.5,2.5,11.2,2.1,14,0c3.1-2.4,1.5-12,4-15c2.3-2.7,10.4-3.5,13-6
	c4.3-4.1,9.6-15.2,11-21c0.9-3.6-0.9-11.4,0-15c0.5-2.2,1-4,3-3c17,9,41.1-6.1,54-3c5.9,1.4,20.1,4.3,22,10c1.6,4.6-6.5,12.9-9,17
	c-3.2,5.2-11.6,14.4-14,20c-2.1,4.9-2.4,15.9-4,21c-1.1,3.6-2.2,13.6-6,14c-3.9,0.4-5.1-12.8-9-13c-4.3-0.2-7.7,10.4-11,13
	c-3.1,2.4-10.1,6.9-14,7c-5.5,0.1-14.7-7.7-20-9c-3.4-0.9-10.8-2.4-14-1c-2.1,0.9-5.1,4.9-6,7c-1.5,3.7-2.1,12.1-1,16
	c1.5,5.3,15.5,13.1,13,18c-3,5.8-19.8-2-26,0c-4.1,1.3-11.8,6.3-14,10c-2.3,3.9,1,21-2,18c-31.3-31.3-28-43-43.8-44.2
	c-2.8-0.2-4-3.9-6.8-4c-3.8-0.1-9.1-0.2-11.4,0.2c-4,0.8-11,5.9-15,6c-6.1,0.1-17.7-5-23-8c-25.6-14.7-67.9-58.2-95-70
	c-3.7-1.6-12.4-1.2-16-3c-4.3-2.1-12.9-8.4-14-13c-0.7-3,4.7-9.4,3-12c-1.7-2.5-9.4-0.4-12-2c-8.2-5-21-21.6-23-31
	c-0.8-3.5,1.6-10.7,3-14c3.9-9.1,21.8-23.1,22-33c0.2-10.5-16.4-27.1-22-36c-2.7-4.3-11-17-11-17s-9.8-20.7-14-27
	c-3.5-5.2-14.6-13-16-19c-0.7-3,1.9-9.1,3-12c0.8-2.1,4.2-5.8,4-8c-0.3-3.4-5.8-8.4-8-11c-2.8-3.2-10.4-8.1-12-12
	c-1.6-3.9,2.4-13.5,0-17c-1.7-2.4-9.1-1.8-11-4c-4.4-5.2-3.6-20.3-5-27c-1.3-6.3-5.1-18.6-6-25c-1-7.2,2.1-22.4-1-29
	c-1.4-3-7.7-6.5-10-9c-3-3.3-6.6-14.6-11-14c-4.6,0.6-6,12.5-7,17c-1.2,5.4-1.7,16.5-1,22c0.5,4.2,3.6,12.1,5,16
	c3.4,9.4,13.7,27.1,15,37c0.5,4-3,12.1-2,16c0.8,3.3,6.5,8,8,11c2.2,4.4,5.3,14.1,6,19c1.1,8.2-3.8,25.2-1,33c0.9,2.5,6.8,5.4,7,8
	c0.2,3.3-7.8,7.8-7,11c1,3.9,11.5,4.9,14,8c3.1,3.9,7.5,14.2,6,19c-1.2,3.9-8.9,10-13,10c-3.2,0-8.6-5.1-10-8
	c-1.9-4.1,1.7-13.8,0-18c-1.6-3.9-9-9-12-12c-5-5-19.2-13-20-20c-0.9-7.9,16.5-19,17-27c0.2-3.6-3.9-10.1-6-13
	c-3-4.2-11.4-10.3-15-14c-4.7-4.8-13.6-13.7-16-20c-1.3-3.3-4.6-11.6-2-14c2.4-2.2,13.1,4.5,16,3c3.1-1.6,3.9-10.5,4-14
	c0.1-5.9-3.4-12.3-7-17c-1.9-2.4-8.8-6.3-10-9c-2.5-5.5,0-17,0-26c0-12.4-2.6-35-4-46.8C-1591.2,336.2-1588.9,334.6-1586.9,335.5z"
	/>
<path class="st1" d="M676.1,528.5c0.5,8.3-18.2,17.3-22.4,24.5c-4.1,7-6,23.7-10.2,30.6c-1.9,3.1-8.7,6.9-10.2,10.2
	c-0.2,0.4-0.3,35-0.2,66.7c0,8,0,15.8,0,22.8c-27.7,28.6-52.4,53.7-69.1,69.6C536.5,779,489.5,829.6,443.6,880h0
	c-55.8-38.3-105-73.6-106.1-78.2c-1.5-6.1,9.6-19.2,6.1-24.5c-3.4-5.2-19.2-0.8-24.5-4.1c-16.8-10.3-42.7-44-46.9-63.2
	c-1.6-7.1,3.3-21.8,6.1-28.6c7.9-18.6,44.5-47.1,44.9-67.3c0.4-21.5-33.4-55.2-44.9-73.4c-5.5-8.8-22.4-34.7-22.4-34.7
	s-41.6-58.1-56.3-83.6c191.3-135.1,231.7-181.6,231.7-181.6c3.9,9.4,26.4,91.8,36.7,93.8c7.4,1.5,22.7-7.8,26.5-14.3
	c2.6-4.4-3.8-17,0-20.4c8.3-7.6,34.9-1.1,44.9,4.1c4.2,2.2,9.4,10.5,12.2,14.3c5.1,6.8,15,20.8,18.4,28.6c5.7,13,6.9,42.9,14.3,55.1
	c3.9,6.5,19.4,13.5,22.4,20.4c5.8,13.1-7,44.7,0,57.1c4.4,7.8,23.2,13.4,30.6,18.4c6.3,4.3,18.5,13.6,24.5,18.4
	C665.5,519.2,675.8,523.8,676.1,528.5z"/>
<path class="st2" d="M431.3,240.8c0,0-40.4,46.5-231.7,181.6c-2.7-4.7-4.5-8.3-4.9-10.2c-1.4-6.1,3.9-18.6,6.1-24.5
	c1.6-4.3,8.5-11.8,8.2-16.3c-0.6-6.9-11.8-17.2-16.3-22.4c-5.6-6.6-21.2-16.5-24.5-24.5c-3.3-8,5-27.6,0-34.7
	c-3.4-4.9-18.6-3.6-22.4-8.2c-9.1-10.7-7.3-41.4-10.2-55.1c-2.7-12.8-10.5-38-12.2-51c-2-14.7,4.2-45.8-2-59.2
	c-2.9-6.2-15.7-13.3-20.4-18.4c-6.2-6.6-13.4-29.8-22.4-28.6c-9.3,1.3-12.3,25.5-14.3,34.7c-2.4,11-3.5,33.7-2,44.9
	c1.1,8.5,7.3,24.6,10.2,32.6c6.9,19.2,27.9,55.3,30.6,75.5c1.1,8.2-6.1,24.7-4.1,32.6c1.7,6.7,13.2,16.2,16.3,22.4
	c4.6,9.1,10.9,28.7,12.2,38.8c2.3,16.7-7.7,51.5-2,67.3c1.8,5.1,13.9,10.9,14.3,16.3c0.5,6.6-15.9,16-14.3,22.4
	c2,8,23.4,9.9,28.6,16.3c6.4,7.9,15.3,29.1,12.2,38.8c-2.5,8-18.2,20.5-26.5,20.4c-6.5-0.1-17.6-10.4-20.4-16.3
	c-4-8.3,3.5-28.2,0-36.7c-3.3-8-18.4-18.4-24.5-24.5c-10.2-10.2-39.2-26.5-40.8-40.8c-1.8-16.2,33.6-38.8,34.7-55.1
	c0.5-7.3-8-20.6-12.2-26.5c-6.1-8.5-23.3-21.1-30.6-28.6c-9.6-9.8-27.7-28-32.6-40.8c-2.6-6.7-9.3-23.7-4.1-28.6
	c4.9-4.5,26.7,9.2,32.6,6.1c6.3-3.3,8-21.5,8.2-28.6c0.3-12.1-6.8-25.2-14.3-34.7c-3.8-4.8-17.9-12.8-20.4-18.4c-5-11.2,0-34.7,0-53
	c0-25.2-5.3-71.4-8.1-95.4C6.5,6.3,11.2,3,15.3,4.9c7,3.3,17.4,8.9,22.3,11.5c12.2,6.4,45.9,2.5,53,14.3
	c4.1,26.5,179.5,161.2,214.2,142.8c0,0-2-12.2,6.1-16.3c5.5-2.8,21.5-1.3,28.8-0.5c2.4,0.3,4.6,1.5,6.2,3.4l2.1,2.7
	c2.3,2.9,5.8,4.6,9.5,4.6h15.1c2.3,0,4.5,0.6,6.5,1.8l2.4,1.5c3.1,1.8,5.4,4.7,6.6,8.1c2.1,5.8,5.2,18,8.3,23.3
	c4.3,7.5,16.6,20.1,22.4,26.5C422,231.8,429.7,236.8,431.3,240.8z"/>
<path class="st3" d="M1057.6,832.4c-6.5,10.6-23.7,29.3-28.6,40.8c-4.2,10-5,32.4-8.2,42.8c-2.3,7.4-4.5,27.8-12.2,28.6
	c-8,0.8-10.3-26.1-18.4-26.5c-8.7-0.4-15.6,21.2-22.4,26.5c-6.3,4.9-20.6,14.1-28.6,14.3c-11.2,0.2-29.9-15.6-40.8-18.4
	c-6.9-1.8-22-4.8-28.6-2c-4.3,1.8-10.5,9.9-12.2,14.3c-3.1,7.6-4.3,24.8-2,32.6c3.1,10.9,31.7,26.6,26.5,36.7c-6,11.8-40.4-4-53,0
	c-8.4,2.7-24.1,12.8-28.6,20.4c-4.7,8,2,42.8-4.1,36.7c-63.8-63.8-57.1-87.7-89.3-90.2c-5.7-0.4-8.2-8-13.9-8.2
	c-7.9-0.3-18.5-0.5-23.3,0.4c-8.1,1.6-22.4,12.1-30.6,12.2c-12.4,0.3-36.2-10.1-46.9-16.3c-26.5-15.2-91.2-57.8-148.8-97.2
	c45.8-50.5,92.8-101,120.3-127.2c16.8-16,41.5-41,69.1-69.6c0,16.2,0.1,28.2,0.2,28.8c2.7,14.1,13.8,40.9,16.3,55.1
	c2.6,14.1-1.3,43.9,4.1,57.1c3.3,8,15.7,21.1,22.4,26.5c8.5,6.9,33.1,11,38.8,20.4c3.2,5.2-4.3,20.2,0,24.5c8.3,8.3,36.4,5.1,46.9,0
	c2.9-1.4,5.2-8.9,8.2-10.2c7.5-3.3,24.5,1.8,32.6,2c6.6,0.2,21.8-4.7,26.5,0c3.3,3.2-3.2,15.1,0,18.4c5,5,22.9,4.3,28.6,0
	c6.3-4.8,3.1-24.5,8.2-30.6c4.7-5.6,21.2-7.2,26.5-12.2c8.8-8.3,19.5-31.1,22.4-42.8c1.8-7.4-1.8-23.2,0-30.6c1-4.4,2.1-8.3,6.1-6.1
	c34.7,18.4,83.8-12.3,110.2-6.1c12,2.8,40.9,8.7,44.9,20.4C1079.1,807,1062.7,824.1,1057.6,832.4z"/>
<path class="st4" d="M-1397,109.1c0.2,4.1-8.9,8.5-11,12c-2,3.4-2.9,11.6-5,15c-0.9,1.5-4.3,3.4-5,5c-0.1,0.2-0.1,17.1-0.1,32.7
	c0,3.9,0,7.8,0,11.2c-13.6,14-25.7,26.3-33.9,34.1c-13.4,12.8-36.5,37.6-59,62.3h0c-27.4-18.8-51.5-36.1-52-38.3
	c-0.7-3,4.7-9.4,3-12c-1.7-2.5-9.4-0.4-12-2c-8.2-5-20.9-21.6-23-31c-0.8-3.5,1.6-10.7,3-14c3.9-9.1,21.8-23.1,22-33
	c0.2-10.5-16.4-27.1-22-36c-2.7-4.3-11-17-11-17s-20.4-28.5-27.6-41c93.8-66.2,113.6-89,113.6-89c1.9,4.6,12.9,45,18,46
	c3.6,0.7,11.1-3.8,13-7c1.3-2.2-1.8-8.3,0-10c4.1-3.7,17.1-0.5,22,2c2.1,1.1,4.6,5.1,6,7c2.5,3.3,7.3,10.2,9,14c2.8,6.4,3.4,21,7,27
	c1.9,3.2,9.5,6.6,11,10c2.8,6.4-3.4,21.9,0,28c2.2,3.8,11.4,6.6,15,9c3.1,2.1,9.1,6.6,12,9C-1402.2,104.6-1397.1,106.8-1397,109.1z"
	/>
<path class="st2" d="M-1521-41.9c0,0-19.8,22.8-113.6,89c-1.3-2.3-2.2-4.1-2.4-5c-0.7-3,1.9-9.1,3-12c0.8-2.1,4.2-5.8,4-8
	c-0.3-3.4-5.8-8.4-8-11c-2.8-3.2-10.4-8.1-12-12c-1.6-3.9,2.4-13.5,0-17c-1.7-2.4-9.1-1.8-11-4c-4.4-5.2-3.6-20.3-5-27
	c-1.3-6.3-5.1-18.6-6-25c-1-7.2,2.1-22.4-1-29c-1.4-3-7.7-6.5-10-9c-3-3.3-6.6-14.6-11-14c-4.6,0.6-6,12.5-7,17
	c-1.2,5.4-1.7,16.5-1,22c0.5,4.2,3.6,12,5,16c3.4,9.4,13.7,27.1,15,37c0.5,4-3,12.1-2,16c0.8,3.3,6.5,8,8,11c2.2,4.5,5.3,14.1,6,19
	c1.1,8.2-3.8,25.2-1,33c0.9,2.5,6.8,5.3,7,8c0.3,3.3-7.8,7.8-7,11c1,3.9,11.5,4.9,14,8c3.1,3.9,7.5,14.3,6,19c-1.2,3.9-8.9,10-13,10
	c-3.2,0-8.6-5.1-10-8c-1.9-4.1,1.7-13.8,0-18c-1.6-3.9-9-9-12-12c-5-5-19.2-13-20-20c-0.9-7.9,16.5-19,17-27c0.2-3.6-3.9-10.1-6-13
	c-3-4.2-11.4-10.3-15-14c-4.7-4.8-13.6-13.7-16-20c-1.3-3.3-4.6-11.6-2-14c2.4-2.2,13.1,4.5,16,3c3.1-1.6,3.9-10.5,4-14
	c0.1-5.9-3.3-12.3-7-17c-1.8-2.4-8.8-6.3-10-9c-2.5-5.5,0-17,0-26c0-12.4-2.6-35-4-46.8c-0.3-2.2,2-3.8,4.1-2.9
	c3.4,1.6,8.5,4.4,10.9,5.6c6,3.1,22.5,1.2,26,7c2,13,88,79,105,70c0,0-1-6,3-8c2.7-1.4,10.5-0.7,14.1-0.2c1.2,0.1,2.3,0.8,3,1.7
	l1,1.3c1.1,1.4,2.9,2.2,4.7,2.2h7.4c1.1,0,2.2,0.3,3.2,0.9l1.2,0.7c1.5,0.9,2.7,2.3,3.3,4c1,2.9,2.6,8.8,4.1,11.4
	c2.1,3.7,8.1,9.9,11,13C-1525.6-46.3-1521.8-43.8-1521-41.9z"/>
<path class="st3" d="M-1205,268.1c-3.2,5.2-11.6,14.4-14,20c-2.1,4.9-2.4,15.9-4,21c-1.1,3.6-2.2,13.6-6,14c-3.9,0.4-5.1-12.8-9-13
	c-4.3-0.2-7.7,10.4-11,13c-3.1,2.4-10.1,6.9-14,7c-5.5,0.1-14.7-7.7-20-9c-3.4-0.9-10.8-2.4-14-1c-2.1,0.9-5.1,4.9-6,7
	c-1.5,3.7-2.1,12.1-1,16c1.5,5.3,15.5,13.1,13,18c-3,5.8-19.8-2-26,0c-4.1,1.3-11.8,6.3-14,10c-2.3,3.9,1,21-2,18
	c-31.3-31.3-28-43-43.8-44.2c-2.8-0.2-4-3.9-6.8-4c-3.8-0.1-9.1-0.2-11.4,0.2c-4,0.8-11,5.9-15,6c-6.1,0.1-17.7-5-23-8
	c-13-7.5-44.7-28.3-73-47.7c22.5-24.7,45.5-49.5,59-62.3c8.2-7.8,20.3-20.1,33.9-34.1c0,7.9,0,13.8,0.1,14.1c1.3,6.9,6.7,20.1,8,27
	c1.3,6.9-0.7,21.5,2,28c1.6,3.9,7.7,10.3,11,13c4.2,3.4,16.2,5.4,19,10c1.6,2.6-2.1,9.9,0,12c4.1,4.1,17.8,2.5,23,0
	c1.4-0.7,2.5-4.4,4-5c3.7-1.6,12,0.9,16,1c3.3,0.1,10.7-2.3,13,0c1.6,1.6-1.6,7.4,0,9c2.5,2.5,11.2,2.1,14,0c3.1-2.4,1.5-12,4-15
	c2.3-2.7,10.4-3.5,13-6c4.3-4.1,9.6-15.2,11-21c0.9-3.6-0.9-11.4,0-15c0.5-2.2,1-4,3-3c17,9,41.1-6,54-3c5.9,1.4,20.1,4.3,22,10
	C-1194.4,255.7-1202.5,264-1205,268.1z"/>
<path class="st5" d="M1138.5-670.5l5,16c2.3,10.1,2.1,20.1,0,30l-7,32c3.1,22.4-2.3,35.4-8,48c1-18.5,0.2-35.7-5-50
	c2.1-7.9,2.3-19.5,2-32c-0.3-6.7-3.4-11.3-8-15c3.4,32,4.5,68.1,2,80l-3,8l-3-33c-2.3-6.3-4.6-12.5-8-16c1.8-4.2,1.3-9.4,0-15
	c1.4-2.4,0.8-6.2,0-10l-4-12l3,50l-1,24c-0.3-8.8-1.3-17.2-5-24l-6-15c0.8-7.2-0.4-14.9-3-23l-4-12c-1.3-2.5-2.7-2.9-4-2l4,14
	c3,11.2,4,21.5,3,31l-8-24l-5-7l-7-12l3,17c1.1,6.5,4,13.6,8,21l-14-17c0.2-5.4-2.8-11.5-7-18c-3.5-4.2-7.6-6.2-12-7l8,19l8,14
	c-3.3,0.1-7.4-2.7-12-8c-1-4.4-3.7-8.4-8-12c-3-4.4-6.9-7.5-12-9l-7-6l-4-6c-1.3,4.5-2.7,8.2-5,8l4,9c2.4,1.9,3.6,4.9,4,9
	c1,4.3,0.6,8.6-1,13l86,65l-7,6c-4.7,2.7-9.3,2.7-14,0c-0.1,4.3-3.3,6.7-8,8c-4.2,1.5-8.5,0.4-13-3c-0.2,2.9-2.5,4.7-6,6
	c-4.4,1.7-8.5,0.2-12-5c-0.5,2.7-2.1,4.4-5,5l-24-23c1.6,4.3,1.4,8.3-1,12l-4-4c1.1,3.7,0.5,6.7-2,9l-6-5c1.7,3.7,1.8,7.4,0,11
	c-2.2-3.6-6.2-7.3-12-11l-3,6c-6.2-11.5-19.2-26-33-41c0.6,8-0.2,15.4-3,22l-10-10l-11,7c-4,1.9-8,1.7-12,0l3-7l-13,5l-1-9
	c0.8-5,3.3-7.9,8-8c-2.5-4.2-6.9-5.6-12-6l16-7l1-3c-2.4-3.8-6-6.6-11-8l3-5l5-2c-2.6-0.2-4.9-2.5-7-6l-1-13c1.4-1.7,0.3-3.3-2-5
	c-2.9,1.2-6.3-0.2-10-3c1.3-4.8,1.3-9.8,0-15l-4,4c2.1-4.4,2.4-9.1,1-14c-1.3-0.7-2.7,0.2-4,2c2.9-11.3,6.3-21.5,12-27
	c-0.5-3.1-3.6-3.7-7-4c4.2-0.1,8.5-7.1,13-17c1.4-3,0.1-4.8-2-6c3.3-3.2,5.2-6.7,5-11c-0.1-3-2.1-4-4.8-4.1
	c1.2-10.1,0.8-3.9-5.2-7.9s-24,0-24,0l-9-5l-7.1,1.4c0-1.3,0.1-2.4,0.1-2.4l13-15c4.6-5.5,7.2-12.1,7-20c3.1,3.8,4.9,7.4,5,11
	c3-4.6,4.7-9.9,5-16c2.3,4.7,3.2,9.3,3,14c4.6-4.4,7.6-11.4,9-21c3.3,2.9,4.8,6.3,5,10c2.7-1.6,4.2-4.7,4-10c4.7,3.1,7.6,6.9,7,12
	c9.7-0.5,18.6,2.5,27,8c2.3-0.1,4.2-1.1,5-4c1,5.8,5.2,12.7,10.9,20.1l14.9,25.4l-4-1c0,0-2,21,1,19.7c3-1.3,9.3-6.7,13.7-13.3
	c4.3-6.7,2.3-21.7,0-35.3s-10.7-17.7-19.3-25.7c-8.7-8-14-3.3-17.3-10.3c-3.3-7-0.8-11.5-0.8-11.5c1.3-3.3,3.1-6.2,6-8
	c18.4-3.3,36.8-1.5,55,6c13.5,4.4,28,11.8,43,21c6.4,1.8,12.2,2.3,17,1c0,4.6-1.3,8.2-5,10c14.4,9.4,27.1,19.7,34,33
	c11.4,14.6,22.2,33,32,56l11,10C1145.3-671.5,1142.5-670.4,1138.5-670.5z"/>
<path class="st5" d="M762.5-614.5c2.3-0.1,4.1-1.1,5-4"/>
<path class="st6" d="M-811.5,38.4l5,16c2.3,10.1,2.1,20.1,0,30l-7,32c3.1,22.4-2.3,35.4-8,48c1-18.5,0.2-35.7-5-50
	c2.1-7.9,2.3-19.5,2-32c-0.3-6.7-3.5-11.3-8-15c3.4,32,4.5,68.1,2,80l-3,8l-3-33c-2.3-6.3-4.6-12.5-8-16c1.8-4.2,1.3-9.4,0-15
	c1.5-2.4,0.8-6.2,0-10l-4-12l3,50l-1,24c-0.3-8.8-1.3-17.2-5-24l-6-15c0.8-7.2-0.4-14.9-3-23l-4-12c-1.3-2.5-2.7-2.9-4-2l4,14
	c3,11.2,4,21.5,3,31l-8-24l-5-7l-7-12l3,17c1.1,6.5,4,13.6,8,21l-14-17c0.2-5.4-2.8-11.5-7-18c-3.5-4.2-7.6-6.2-12-7l8,19l8,14
	c-3.3,0.1-7.4-2.7-12-8c-1-4.4-3.7-8.4-8-12c-3-4.4-6.9-7.5-12-9l-7-6l-4-6c-1.3,4.5-2.7,8.2-5,8l4,9c2.4,1.9,3.6,4.9,4,9
	c1,4.3,0.6,8.6-1,13l86,65l-7,6c-4.7,2.7-9.3,2.7-14,0c-0.1,4.3-3.3,6.7-8,8c-4.2,1.5-8.5,0.4-13-3c-0.2,2.9-2.5,4.7-6,6
	c-4.5,1.7-8.5,0.2-12-5c-0.5,2.7-2.1,4.4-5,5l-24-23c1.6,4.3,1.4,8.3-1,12l-4-4c1.1,3.7,0.5,6.7-2,9l-6-5c1.7,3.7,1.8,7.4,0,11
	c-2.2-3.6-6.2-7.3-12-11l-3,6c-6.2-11.5-19.2-26-33-41c0.6,8-0.2,15.4-3,22l-10-10l-11,7c-4,1.9-8,1.7-12,0l3-7l-13,5l-1-9
	c0.8-5,3.3-7.9,8-8c-2.5-4.2-6.9-5.6-12-6l16-7l1-3c-2.4-3.8-6-6.6-11-8l3-5l5-2c-2.6-0.2-4.9-2.5-7-6l-1-13c1.4-1.7,0.3-3.3-2-5
	c-2.9,1.2-6.3-0.2-10-3c1.3-4.8,1.3-9.8,0-15l-4,4c2.1-4.4,2.4-9.1,1-14c-1.3-0.7-2.7,0.2-4,2c2.9-11.3,6.3-21.5,12-27
	c-0.5-3.1-3.6-3.7-7-4c4.2-0.1,8.5-7.1,13-17c1.4-3,0.1-4.8-2-6c3.3-3.2,5.2-6.7,5-11c-0.2-3.6-2.9-4.3-6.5-4l0.5-6.1
	c0,0-2,2.3-5.5,1.7c-3.5-0.6-2-2.5-8.1-3.8c-6.1-1.3-13.3,1.8-13.3,1.8s-3,0-5.9-1s-4.9-2.6-4.9-2.6l-4.4,0.9h-2.2
	c0.2-2.3,0.2-4.9,0.2-4.9l13-15c4.6-5.5,7.2-12.1,7-20c3.1,3.8,4.9,7.4,5,11c3-4.6,4.7-9.9,5-16c2.3,4.7,3.2,9.3,3,14
	c4.6-4.4,7.6-11.4,9-21c3.3,2.9,4.8,6.3,5,10c2.7-1.6,4.2-4.7,4-10c4.7,3.1,7.6,6.9,7,12c9.7-0.5,18.6,2.5,27,8c2.3-0.1,4.2-1.1,5-4
	c1.1,6.8,6.7,15.1,14,24c1.7-8.3-0.2-16.4-9-24c-4-5.8-12.7-8.1-22-10c-5.7-2.2-7.4-6.7-6-13c3-4.7,7-8.2,13-9h9
	c1.3-3.3,3.1-6.2,6-8c18.4-3.3,36.8-1.5,55,6c13.5,4.4,28,11.8,43,21c6.4,1.8,12.2,2.3,17,1c0,4.6-1.3,8.2-5,10
	c14.4,9.4,27.1,19.7,34,33c11.4,14.6,22.2,33,32,56l11,10C-804.7,37.3-807.5,38.4-811.5,38.4z"/>
<path class="st7" d="M-959-11.8c-4.3,6.7-10.7,12-13.7,13.3c-3,1.3-1-19.7-1-19.7l4,1l-11.8-21.5c1,1.3-1.1-1.3,0,0
	c1.7-8.3-0.2-16.4-9-24c-4-5.8-12.7-8.1-22-10c-5.7-2.2-7.4-6.7-6-13c3-4.7,7-8.2,13-9h9c0,0-2.5,4.5,0.8,11.5
	c3.3,7,8.7,2.3,17.3,10.3c8.7,8,17,12,19.3,25.7S-954.7-18.5-959-11.8z"/>
<path class="st5" d="M968.5-747.5c-1.1-1.3-2.1-2.6-3.1-3.9l-5.4-14.3l-7.4-8l-26.3-11L920-810l34.3-7.7l-0.8,14.2h-9
	c-6,0.8-10,4.3-13,9c-1.4,6.3,0.3,10.8,6,13c9.3,1.9,18,4.2,22,10C968.3-763.9,970.2-755.8,968.5-747.5z"/>
<path class="st8" d="M-1041.5-23.8l-0.5,6.1c-0.2,0-0.3,0-0.5,0c-3.4,4.5-9.1,7.4-17,9c-8.3-2.3-14.9-0.5-19.9,4.8
	c-0.7,0.7-1.1,1.7-1.1,2.8v5.5c0,0-11.1-3-13-6c-8-7,0-14,0-14s6-8.4,7-8c0.4,0.2,0.7-1.3,0.8-3.1h2.2l4.4-0.9c0,0,2,1.6,4.9,2.6
	s5.9,1,5.9,1s7.1-3.1,13.3-1.8c6.1,1.3,4.6,3.2,8.1,3.8C-1043.5-21.4-1041.5-23.8-1041.5-23.8z"/>
<path class="st8" d="M-1073.2-29.9c0,0-1.3-2.5,0-5.3s9.5-5.3,9.5-5.3s1.8,1.8,0,5.3S-1070.2-29.4-1073.2-29.9z"/>
<g>
	<path class="st6" d="M-1433.5,117.8l2.8,9c1.3,5.7,1.2,11.3,0,16.9l-3.9,18c1.7,12.6-1.3,19.9-4.5,27.1c0.6-10.4,0.1-20.1-2.8-28.2
		c1.2-4.4,1.3-11,1.1-18c-0.2-3.8-1.9-6.4-4.5-8.5c1.9,18,2.6,38.4,1.1,45.1l-1.7,4.5l-1.7-18.6c-1.3-3.5-2.6-7-4.5-9
		c1-2.3,0.7-5.3,0-8.5c0.8-1.4,0.4-3.5,0-5.6l-2.3-6.8l1.7,28.2l-0.6,13.5c-0.1-5-0.7-9.7-2.8-13.5l-3.4-8.5c0.4-4-0.2-8.4-1.7-13
		l-2.3-6.8c-0.8-1.4-1.5-1.6-2.3-1.1l2.3,7.9c1.7,6.3,2.3,12.1,1.7,17.5l-4.5-13.5l-2.8-3.9l-3.9-6.8l1.7,9.6
		c0.6,3.7,2.2,7.7,4.5,11.8l-7.9-9.6c0.1-3-1.6-6.5-3.9-10.2c-2-2.4-4.3-3.5-6.8-3.9l4.5,10.7l4.5,7.9c-1.9,0.1-4.2-1.5-6.8-4.5
		c-0.5-2.5-2.1-4.7-4.5-6.8c-1.7-2.5-3.9-4.3-6.8-5.1l-3.9-3.4l-2.3-3.4c-0.7,2.5-1.5,4.6-2.8,4.5l2.3,5.1c1.3,1,2,2.8,2.3,5.1
		c0.6,2.4,0.3,4.9-0.6,7.3l48.5,36.7l-3.9,3.4c-2.6,1.5-5.3,1.5-7.9,0c-0.1,2.4-1.9,3.8-4.5,4.5c-2.4,0.8-4.8,0.2-7.3-1.7
		c-0.1,1.6-1.4,2.7-3.4,3.4c-2.5,0.9-4.8,0.1-6.8-2.8c-0.3,1.5-1.2,2.5-2.8,2.8l-13.5-13c0.9,2.4,0.8,4.7-0.6,6.8l-2.3-2.3
		c0.6,2.1,0.3,3.8-1.1,5.1l-3.4-2.8c1,2.1,1,4.2,0,6.2c-1.2-2-3.5-4.1-6.8-6.2l-1.7,3.4c-3.5-6.5-10.8-14.7-18.6-23.1
		c0.3,4.5-0.1,8.7-1.7,12.4l-5.6-5.6l-6.2,3.9c-2.3,1.1-4.5,0.9-6.8,0l1.7-3.9l-7.3,2.8l-0.6-5.1c0.4-2.8,1.8-4.4,4.5-4.5
		c-1.4-2.4-3.9-3.2-6.8-3.4l9-3.9l0.6-1.7c-1.4-2.2-3.4-3.7-6.2-4.5l1.7-2.8l2.8-1.1c-1.5-0.1-2.8-1.4-3.9-3.4l-0.6-7.3
		c0.8-0.9,0.1-1.9-1.1-2.8c-1.6,0.7-3.5-0.1-5.6-1.7c0.7-2.7,0.8-5.6,0-8.5l-2.3,2.3c1.2-2.5,1.4-5.1,0.6-7.9
		c-0.8-0.4-1.5,0.1-2.3,1.1c1.6-6.4,3.5-12.1,6.8-15.2c-0.3-1.7-2-2.1-3.9-2.3c2.3-0.1,4.8-4,7.3-9.6c0.8-1.7,0.1-2.7-1.1-3.4
		c1.9-1.8,2.9-3.8,2.8-6.2c-0.1-2-1.6-2.4-3.7-2.3l0.3-3.4c0,0-1.1,1.3-3.1,1c-2-0.3-1.1-1.4-4.6-2.1c-3.5-0.7-7.5,1-7.5,1
		s-1.7,0-3.3-0.6c-1.6-0.6-2.7-1.5-2.7-1.5l-2.5,0.5h-1.3c0.1-1.3,0.1-2.8,0.1-2.8l7.3-8.5c2.6-3.1,4.1-6.8,3.9-11.3
		c1.8,2.1,2.7,4.2,2.8,6.2c1.7-2.6,2.6-5.6,2.8-9c1.3,2.6,1.8,5.3,1.7,7.9c2.6-2.5,4.3-6.4,5.1-11.8c1.9,1.6,2.7,3.5,2.8,5.6
		c1.5-0.9,2.4-2.7,2.3-5.6c2.7,1.7,4.3,3.9,3.9,6.8c5.5-0.3,10.5,1.4,15.2,4.5c1.3,0,2.3-0.6,2.8-2.3c0.6,3.8,3.8,8.5,7.9,13.5
		c1-4.7-0.1-9.3-5.1-13.5c-2.3-3.3-7.2-4.6-12.4-5.6c-3.2-1.2-4.2-3.8-3.4-7.3c1.7-2.6,3.9-4.6,7.3-5.1h5.1c0.7-1.9,1.7-3.5,3.4-4.5
		c10.4-1.9,20.7-0.8,31,3.4c7.6,2.5,15.8,6.7,24.3,11.8c3.6,1,6.9,1.3,9.6,0.6c0,2.6-0.7,4.6-2.8,5.6c8.1,5.3,15.3,11.1,19.2,18.6
		c6.5,8.2,12.5,18.6,18,31.6l6.2,5.6C-1429.6,117.2-1431.2,117.9-1433.5,117.8z"/>
	<path class="st7" d="M-1516.7,89.5c-2.4,3.8-6,6.8-7.7,7.5c-1.7,0.8-0.6-11.1-0.6-11.1l2.3,0.6l-6.7-12.1c0.6,0.7-0.6-0.7,0,0
		c1-4.7-0.1-9.3-5.1-13.5c-2.3-3.3-7.2-4.6-12.4-5.6c-3.2-1.2-4.2-3.8-3.4-7.3c1.7-2.6,3.9-4.6,7.3-5.1h5.1c0,0-1.4,2.5,0.5,6.5
		c1.9,3.9,4.9,1.3,9.8,5.8c4.9,4.5,9.6,6.8,10.9,14.5C-1515.4,77.3-1514.2,85.8-1516.7,89.5z"/>
	<path class="st8" d="M-1563.2,82.8l-0.3,3.4c-0.1,0-0.2,0-0.3,0c-1.9,2.5-5.1,4.2-9.6,5.1c-4.7-1.3-8.4-0.3-11.2,2.7
		c-0.4,0.4-0.6,1-0.6,1.6v3.1c0,0-6.2-1.7-7.3-3.4c-4.5-3.9,0-7.9,0-7.9s3.4-4.7,3.9-4.5c0.2,0.1,0.4-0.7,0.4-1.7h1.3l2.5-0.5
		c0,0,1.1,0.9,2.7,1.5c1.6,0.6,3.3,0.6,3.3,0.6s4-1.8,7.5-1c3.5,0.7,2.6,1.8,4.6,2.1C-1564.3,84.1-1563.2,82.8-1563.2,82.8z"/>
	<path class="st8" d="M-1581.1,79.3c0,0-0.7-1.4,0-3s5.4-3,5.4-3s1,1,0,3S-1579.4,79.6-1581.1,79.3z"/>
</g>
<g>
	<path class="st6" d="M611.4,531l5.8,18.4c2.7,11.6,2.4,23.1,0,34.5l-8.1,36.8c3.5,25.8-2.7,40.7-9.2,55.2
		c1.2-21.3,0.2-41.1-5.8-57.5c2.4-9.1,2.6-22.4,2.3-36.8c-0.4-7.7-4-13-9.2-17.3c3.9,36.8,5.2,78.4,2.3,92l-3.5,9.2l-3.5-38
		c-2.6-7.2-5.3-14.3-9.2-18.4c2.1-4.8,1.5-10.8,0-17.3c1.7-2.8,0.9-7.1,0-11.5l-4.6-13.8l3.5,57.5l-1.2,27.6
		c-0.3-10.1-1.5-19.8-5.8-27.6l-6.9-17.3c0.9-8.2-0.4-17.1-3.5-26.5l-4.6-13.8c-1.6-2.9-3.1-3.3-4.6-2.3l4.6,16.1
		c3.4,12.9,4.6,24.8,3.5,35.7l-9.2-27.6l-5.8-8.1l-8.1-13.8l3.5,19.6c1.3,7.5,4.6,15.6,9.2,24.2l-16.1-19.6
		c0.2-6.2-3.2-13.3-8.1-20.7c-4-4.8-8.7-7.2-13.8-8.1l9.2,21.9l9.2,16.1c-3.8,0.2-8.5-3.1-13.8-9.2c-1.1-5.1-4.3-9.6-9.2-13.8
		c-3.4-5.1-7.9-8.7-13.8-10.4l-8.1-6.9l-4.6-6.9c-1.4,5.2-3.1,9.5-5.8,9.2l4.6,10.4c2.7,2.1,4.2,5.7,4.6,10.4
		c1.2,4.9,0.7,9.9-1.2,15l98.9,74.8l-8.1,6.9c-5.4,3.1-10.7,3.1-16.1,0c-0.1,5-3.8,7.7-9.2,9.2c-4.8,1.7-9.8,0.5-15-3.5
		c-0.3,3.3-2.9,5.5-6.9,6.9c-5.1,1.9-9.8,0.2-13.8-5.8c-0.6,3.1-2.4,5.1-5.8,5.8l-27.6-26.5c1.9,4.9,1.6,9.6-1.2,13.8l-4.6-4.6
		c1.3,4.3,0.6,7.8-2.3,10.4l-6.9-5.8c2,4.3,2.1,8.5,0,12.7c-2.5-4.2-7.2-8.4-13.8-12.7l-3.5,6.9c-7.1-13.2-22.1-30-38-47.2
		c0.7,9.2-0.3,17.7-3.5,25.3L388.2,653l-12.7,8.1c-4.6,2.2-9.2,1.9-13.8,0l3.5-8.1l-15,5.8l-1.2-10.4c0.9-5.8,3.7-9.1,9.2-9.2
		c-2.9-4.8-7.9-6.5-13.8-6.9l18.4-8.1l1.2-3.5c-2.8-4.4-6.9-7.6-12.7-9.2l3.5-5.8l5.8-2.3c-3-0.3-5.6-2.9-8.1-6.9l-1.2-15
		c1.6-1.9,0.3-3.8-2.3-5.8c-3.3,1.4-7.2-0.2-11.5-3.5c1.5-5.6,1.6-11.3,0-17.3l-4.6,4.6c2.4-5.1,2.8-10.5,1.2-16.1
		c-1.6-0.8-3.1,0.3-4.6,2.3c3.3-13,7.2-24.8,13.8-31.1c-0.6-3.5-4.2-4.2-8.1-4.6c4.8-0.1,9.8-8.2,15-19.6c1.6-3.5,0.2-5.5-2.3-6.9
		c3.8-3.6,6-7.8,5.8-12.7c-0.2-4.1-3.3-4.9-7.5-4.6l0.6-7c0,0-2.3,2.7-6.3,2c-4-0.7-2.3-2.9-9.3-4.4c-7.1-1.5-15.3,2.1-15.3,2.1
		s-3.5,0-6.8-1.2c-3.3-1.2-5.6-3-5.6-3l-5,1.1h-2.6c0.2-2.6,0.3-5.7,0.3-5.7l15-17.3c5.3-6.4,8.3-13.9,8.1-23
		c3.6,4.3,5.6,8.5,5.8,12.7c3.4-5.3,5.4-11.4,5.8-18.4c2.6,5.4,3.6,10.7,3.5,16.1c5.3-5,8.7-13.1,10.4-24.2
		c3.9,3.3,5.5,7.2,5.8,11.5c3.1-1.8,4.8-5.4,4.6-11.5c5.4,3.5,8.7,7.9,8.1,13.8c11.2-0.6,21.4,2.9,31.1,9.2c2.7-0.1,4.8-1.3,5.8-4.6
		c1.3,7.8,7.7,17.4,16.1,27.6c2-9.6-0.2-18.9-10.4-27.6c-4.6-6.7-14.6-9.3-25.3-11.5c-6.6-2.5-8.5-7.8-6.9-15c3.5-5.4,8-9.4,15-10.4
		h10.4c1.5-3.8,3.5-7.1,6.9-9.2c21.2-3.8,42.3-1.7,63.3,6.9c15.6,5,32.2,13.6,49.5,24.2c7.4,2,14,2.6,19.6,1.2
		c0,5.3-1.5,9.4-5.8,11.5c16.6,10.8,31.2,22.7,39.1,38c13.2,16.8,25.5,37.9,36.8,64.4l12.7,11.5C619.3,529.8,616,531.1,611.4,531z"
		/>
	<path class="st7" d="M441.7,473.3c-5,7.7-12.3,13.8-15.7,15.3c-3.5,1.5-1.2-22.6-1.2-22.6l4.6,1.2l-13.6-24.7c1.1,1.5-1.2-1.5,0,0
		c2-9.6-0.2-18.9-10.4-27.6c-4.6-6.7-14.6-9.3-25.3-11.5c-6.6-2.5-8.5-7.8-6.9-15c3.5-5.4,8-9.4,15-10.4h10.4c0,0-2.9,5.2,1,13.2
		c3.8,8.1,10,2.7,20,11.9c10,9.2,19.6,13.8,22.2,29.5C444.4,448.4,446.7,465.6,441.7,473.3z"/>
	<path class="st8" d="M346.8,459.5l-0.6,7c-0.2,0-0.4,0-0.6,0c-3.9,5.1-10.5,8.5-19.6,10.4c-9.6-2.6-17.1-0.6-22.9,5.5
		c-0.8,0.9-1.3,2-1.3,3.2v6.3c0,0-12.7-3.4-15-6.9c-9.2-8.1,0-16.1,0-16.1s6.9-9.7,8.1-9.2c0.5,0.2,0.7-1.5,0.9-3.5h2.6l5-1.1
		c0,0,2.3,1.9,5.6,3c3.3,1.2,6.8,1.2,6.8,1.2s8.2-3.6,15.3-2.1c7,1.5,5.3,3.7,9.3,4.4C344.5,462.2,346.8,459.5,346.8,459.5z"/>
	<path class="st8" d="M310.4,452.5c0,0-1.4-2.9,0-6c1.4-3.2,10.9-6,10.9-6s2,2,0,6C319.3,450.5,313.8,453.1,310.4,452.5z"/>
</g>
<g>
	<path class="st2" d="M766.4,312.5h-40.1v35.1h44.9v41.9h-74.8V198.6h72.5v41.9h-42.5v30.6h40.1V312.5z"/>
	<path class="st2" d="M907.1,321c-0.2-10.4-0.4-22.2-0.5-35.4c-0.1-11.9-0.2-25.7-0.2-41.3H906c-1.7,11.7-3.6,24.7-5.8,39.1
		c-2,12.3-4,24.2-6,35.7l-11.1,66.5h-23.3l-9.3-66.5c-1.4-9.8-3-21.6-4.6-35.4c-1.5-12.6-3-25.8-4.3-39.4h-0.3l-1.7,76.7l-1.8,68.5
		h-27.5l7-190.9h40.2l7.3,51.5c1.7,11,3.2,22.3,4.6,34c1.7,12.7,3,24.5,4.1,35.7h0.5l5-36.2c2-13.8,3.7-25.1,5.1-34l8.4-51h39.2
		l5.6,190.9h-29L907.1,321z"/>
	<path class="st2" d="M1010.6,198.6v190.9h-30V198.6H1010.6z"/>
	<path class="st2" d="M1152.6,380.7c-5,2.8-10.7,5.2-17.1,7.1c-7.7,2.5-14.9,3.7-21.5,3.7c-20.6,0-36.3-8.6-46.8-25.8
		c-10.6-17.2-15.9-40.1-15.9-68.8c0.1-32.1,6.5-57.1,19.2-75c11.8-16.8,27.1-25.2,46-25.2c7.1,0,13.6,0.9,19.7,2.8
		c5.2,1.7,9.4,3.9,12.6,6.5l-6,41.1c-3.4-2.6-7.1-4.6-10.9-5.9c-4.5-1.5-9.7-2.3-15.6-2.3c-9.8,0-17.7,4.3-23.7,13
		c-6.6,9.6-9.9,23.7-9.9,42.2c0,17.4,3,31.2,8.9,41.6c5.8,9.8,13.4,14.7,22.7,14.7c4.9,0,8-0.6,9.4-1.7v-32.8h-14.9v-39.6h43.7
		V380.7z"/>
	<path class="st2" d="M1224.5,195.2l0.2,0.3v84.7h8.9c7.1,0,12.2-4.4,15.4-13.3c0.9-3.4,1.3-6.5,1.3-9.3V255c0-8.7-2.5-15-7.6-19
		c-2.2-1.5-4.8-2.3-7.8-2.3h-2.3l-0.2-0.3v-37.7l0.2-0.6h0.5c24.1,0,38.9,11,44.5,32.8c1.9,7.2,2.8,15.3,2.8,24.4
		c0,17-4.9,31.2-14.6,42.8c-2.8,2.6-4.4,4-4.8,4v0.6c2.3,2.1,4.2,4.2,5.6,6.5c4.2,7,7.4,18.3,9.8,34c3.5,24,6.3,40.6,8.3,49.8h-0.2
		h-30.6c-1.4-3.6-3.5-14-6.1-31.1c-2-15.5-3.6-25.4-5-29.7c-2.2-7.7-6.3-11.6-12.3-11.6h-6v72.2l-0.3,0.3h-29.5l-0.3-0.3v-190
		c0-0.4,3.4-1.1,10.1-2.3C1214.1,196,1220.7,195.2,1224.5,195.2z"/>
	<path class="st2" d="M1396,197.8c0.3,0,1.4,5.5,3.1,16.4l30.5,174.7l-0.2,0.3h-32.1c-0.2,0-1.1-5.2-2.6-15.6l-4.6-28.9h-22.5v-0.3
		l4.5-37.7h13.9l-10.8-71.9h-0.2l-20,154l-0.2,0.3h-30.6l-0.3-0.6l32.4-190.9H1396z"/>
	<path class="st2" d="M1475.8,241.7h-28.5v-43h87.4v43h-29v147.8h-30V241.7z"/>
	<path class="st2" d="M1603.2,198.6v190.9h-30V198.6H1603.2z"/>
	<path class="st2" d="M1737.6,361.2c-10.3,19.8-23.7,29.7-40.2,29.7c-16.9,0-30.2-9.9-40.1-29.7c-8.9-18.1-13.4-41.1-13.4-68.8
		c0-29.6,4.5-53.6,13.4-71.9c8.8-18.1,21-28.2,36.4-30.3v41.6c-5.9,2.1-10.4,8.5-13.7,19.3c-3.2,10.4-4.8,23.6-4.8,39.6
		c0,17.2,2,31.1,6,41.9c4.3,11.3,9.9,17,16.9,17c7.1,0,12.7-5.7,16.9-17c4.1-10.9,6.1-25,6.1-42.2c0-16.2-1.7-29.6-5.1-40.2
		c-3.5-10.6-8.4-16.8-14.6-18.7v-41.6c15.9,0.9,28.5,11.1,37.7,30.6c8.8,18.3,13.2,41.3,13.2,68.8
		C1752.4,318.3,1747.5,342.3,1737.6,361.2z"/>
	<path class="st2" d="M1793.1,389.5V198.6h35.3l17.7,58.6c2.9,9.1,6,19.7,9.3,32c2.9,11.3,5.6,22.9,8.3,34.8h0.5
		c-1.5-23.6-2.3-50.3-2.3-80.1v-45.3h27.3v190.9h-31.5l-19-63.4c-3.4-11.1-6.6-22.3-9.6-33.4c-3.6-12.8-6.7-24.6-9.1-35.4h-0.7
		c0.8,24,1.2,52.4,1.2,85.2v47H1793.1z"/>
	<path class="st2" d="M728,549.9v39.6h16.9v37.4H728v39.9c0,15.5,3.1,23.2,9.4,23.2c3.1,0,5.5-0.4,7.1-1.1v38.8
		c-4.1,2.6-10,4-17.7,4c-8.6,0-15.4-4.2-20.4-12.7c-5.1-8.7-7.6-23.1-7.6-43.3v-48.7h-10.1v-37.4h10.1v-26.1L728,549.9z"/>
	<path class="st2" d="M827.5,712.4c-7.9,13.2-18.7,19.8-32.3,19.8c-12.5,0-22.6-6.5-30.3-19.5c-7.6-13-11.4-29.9-11.4-50.7
		c0-22.3,4-39.9,11.9-53c7.1-11.9,16.2-18.5,27.5-19.8v36c-6.1,3.6-9.1,15.4-9.1,35.4c0,10.4,0.9,18.8,2.8,25.2
		c2.2,7.4,5.4,11,9.4,11c4.5,0,7.9-3.8,10.1-11.3c2-6.2,3-14.5,3-24.9c0-18.9-2.9-30.5-8.6-34.8v-36.5c11.5,1.3,20.7,8.1,27.8,20.4
		c7.4,12.7,11.1,29.3,11.1,49.8C839.4,681.6,835.5,699.2,827.5,712.4z"/>
	<path class="st3" d="M1076.2,619.3c-0.4-16.6-0.6-35.5-0.8-56.6c-0.2-19-0.3-41.1-0.3-66.1h-0.8c-2.6,18.7-5.7,39.6-9.3,62.5
		c-3.2,19.6-6.4,38.6-9.5,57.1l-17.7,106.4h-37.3l-14.8-106.4c-2.3-15.7-4.8-34.6-7.4-56.6c-2.5-20.2-4.8-41.2-6.9-62.9h-0.5
		l-2.6,122.7l-2.9,109.6h-43.9l11.1-305.2h64.3l11.6,82.4c2.6,17.5,5.1,35.6,7.4,54.3c2.6,20.2,4.9,39.3,6.6,57.1h0.8l7.9-58
		c3.2-22,5.9-40.1,8.2-54.3l13.5-81.5h62.7l9,305.2h-46.3L1076.2,619.3z"/>
	<path class="st3" d="M1271.3,605.7h-64.1v56.2h71.7v67h-119.7V423.6h116v67h-68v48.9h64.1V605.7z"/>
	<path class="st3" d="M1402.9,728.9l-13-49.8l-13.8-53h-0.5c-1.2,6.9-3,15.6-5.3,25.8l-18.3,77h-54.3l50.3-154.4l-48.4-150.8h54.8
		l12.2,48.5c3.5,14.5,7.5,31.4,11.9,50.7h0.5c3.2-16,6.7-32.8,10.6-50.3l10.9-48.9h54.5l-48.4,149l51.6,156.2H1402.9z"/>
	<path class="st3" d="M1531,423.6v305.2h-47.9V423.6H1531z"/>
	<path class="st3" d="M1702.6,720.7c-3.7,3.3-9.4,6.2-16.9,8.6c-8.6,2.7-17.9,4.1-27.8,4.1c-31.6,0-56-15.2-73.1-45.7
		c-15.4-27.2-23-62.6-23-106.4c0-51.3,9.9-91.8,29.7-121.4c18.2-27.2,41.4-40.8,69.6-40.8c9.5,0,18.5,1.4,27,4.1
		c7.6,2.4,13.4,5.4,17.5,9.1l-9.3,64.8c-4.4-3.3-9.1-5.9-14-7.7c-6.2-2.1-12.5-3.2-19.1-3.2c-14.7,0-26.6,7.2-35.7,21.7
		c-10.2,16-15.4,38.6-15.4,67.9c0,59.8,17.4,89.7,52.2,89.7c12.7,0,23.3-2.9,31.8-8.6L1702.6,720.7z"/>
	<path class="st3" d="M1876.2,683.6c-16.4,31.7-37.9,47.6-64.3,47.6c-27,0-48.4-15.9-64.1-47.6c-14.3-29-21.4-65.7-21.4-110
		c0-47.4,7.1-85.7,21.4-115c14.1-29,33.5-45.1,58.2-48.5v66.6c-9.4,3.3-16.7,13.6-22,30.8c-5.1,16.6-7.7,37.7-7.7,63.4
		c0,27.5,3.2,49.8,9.5,67c6.9,18.1,15.9,27.2,27,27.2c11.3,0,20.3-9.1,27-27.2c6.5-17.5,9.8-40,9.8-67.5c0-26-2.7-47.4-8.2-64.3
		c-5.7-16.9-13.4-26.9-23.3-29.9v-66.6c25.4,1.5,45.5,17.8,60.4,48.9c14.1,29.3,21.2,66,21.2,110
		C1899.8,615.1,1891.9,653.4,1876.2,683.6z"/>
</g>
</svg>
