<?xml version="1.0" encoding="utf-8"?>
<!-- Generator: Adobe Illustrator 21.0.1, SVG Export Plug-In . SVG Version: 6.00 Build 0)  -->
<svg version="1.1" id="Слой_1" xmlns="http://www.w3.org/2000/svg" xmlns:xlink="http://www.w3.org/1999/xlink" x="0px" y="0px"
	 viewBox="0 0 2889 1080" style="enable-background:new 0 0 2889 1080;" xml:space="preserve">
<style type="text/css">
	.st0{fill:#FFFFFF;}
	.st1{fill:#006649;}
	.st2{fill:#E3001C;}
	.st3{fill:#8F4620;}
	.st4{fill:#AB6D29;}
	.st5{fill:#FBC110;}
</style>
<path class="st0" d="M670.3,527.5c0.5,8.3-18.3,17.4-22.5,24.5c-4.1,7-6,23.8-10.2,30.7c-1.9,3.1-8.7,6.9-10.2,10.2
	c-0.2,0.4-0.3,35-0.2,66.8c0,8,0,15.8,0,22.9c-27.7,28.7-52.5,53.7-69.3,69.7c-27.5,26.2-74.6,76.8-120.5,127.4h0
	C381.4,841.4,332.2,806,331,801.4c-1.5-6.1,9.6-19.2,6.1-24.5c-3.4-5.2-19.2-0.8-24.5-4.1c-16.8-10.3-42.8-44.1-47-63.4
	c-1.6-7.2,3.3-21.9,6.1-28.6c7.9-18.7,44.6-47.2,45-67.4c0.4-21.6-33.5-55.3-45-73.6c-5.5-8.8-22.5-34.7-22.5-34.7
	s-41.7-58.2-56.4-83.8c191.7-135.3,232.1-181.9,232.1-181.9c3.9,9.4,26.5,91.9,36.8,94c7.4,1.5,22.7-7.8,26.6-14.3
	c2.6-4.4-3.8-17,0-20.4c8.3-7.6,34.9-1.1,45,4.1c4.2,2.2,9.4,10.5,12.3,14.3c5.1,6.8,15,20.8,18.4,28.6c5.7,13.1,6.9,43,14.3,55.2
	c3.9,6.5,19.4,13.5,22.5,20.4c5.8,13.1-7.1,44.8,0,57.2c4.4,7.8,23.2,13.4,30.7,18.4c6.4,4.3,18.5,13.6,24.5,18.4
	C659.7,518.2,670,522.8,670.3,527.5z"/>
<path class="st1" d="M425.1,239.4c0,0-40.5,46.5-232.1,181.9c-2.7-4.7-4.5-8.3-4.9-10.2c-1.4-6.2,3.9-18.6,6.1-24.5
	c1.6-4.3,8.5-11.8,8.2-16.3c-0.6-6.9-11.8-17.2-16.3-22.5c-5.6-6.6-21.2-16.5-24.5-24.5c-3.3-8,5-27.6,0-34.7
	c-3.4-4.9-18.6-3.6-22.5-8.2c-9.1-10.7-7.3-41.5-10.2-55.2c-2.7-12.9-10.5-38.1-12.3-51.1c-2-14.7,4.2-45.8-2-59.3
	c-2.9-6.2-15.7-13.4-20.4-18.4c-6.2-6.6-13.5-29.9-22.5-28.6c-9.3,1.3-12.3,25.6-14.3,34.7c-2.4,11-3.5,33.8-2,45
	c1.1,8.5,7.3,24.6,10.2,32.7c6.9,19.2,28,55.4,30.7,75.6c1.1,8.2-6.2,24.7-4.1,32.7c1.7,6.7,13.2,16.3,16.3,22.5
	c4.6,9.1,10.9,28.8,12.3,38.8c2.3,16.7-7.7,51.6-2,67.4c1.8,5.1,13.9,10.9,14.3,16.3c0.5,6.6-15.9,16-14.3,22.5
	c2,8,23.4,9.9,28.6,16.3c6.4,7.9,15.3,29.1,12.3,38.8c-2.5,8-18.2,20.5-26.6,20.4c-6.5-0.1-17.6-10.4-20.4-16.3
	c-4-8.3,3.5-28.3,0-36.8c-3.3-8-18.4-18.4-24.5-24.5c-10.2-10.2-39.3-26.5-40.9-40.9c-1.8-16.2,33.7-38.9,34.7-55.2
	c0.5-7.3-8-20.6-12.3-26.6c-6.2-8.5-23.3-21.1-30.7-28.6c-9.6-9.8-27.8-28-32.7-40.9c-2.6-6.7-9.3-23.7-4.1-28.6
	c4.9-4.5,26.8,9.2,32.7,6.1c6.3-3.3,8-21.5,8.2-28.6c0.3-12.1-6.8-25.2-14.3-34.7c-3.8-4.8-17.9-12.8-20.4-18.4
	c-5-11.2,0-34.7,0-53.1C8.2,79.2,2.8,32.9,0,8.9c-0.5-4.5,4.2-7.8,8.3-5.8c7,3.3,17.5,9,22.3,11.5c12.2,6.4,46,2.5,53.1,14.3
	c4.1,26.6,179.8,161.4,214.6,143.1c0,0-2-12.3,6.1-16.3c5.5-2.8,21.5-1.3,28.9-0.5c2.4,0.3,4.6,1.5,6.2,3.4l2.1,2.7
	c2.3,2.9,5.8,4.6,9.5,4.6h15.2c2.3,0,4.5,0.6,6.5,1.8l2.5,1.5c3.1,1.8,5.4,4.7,6.6,8.1c2.1,5.8,5.2,18,8.3,23.4
	c4.4,7.5,16.6,20.2,22.5,26.6C415.7,230.3,423.4,235.4,425.1,239.4z"/>
<path class="st2" d="M1052.4,832c-6.5,10.6-23.8,29.4-28.6,40.9c-4.3,10.1-5,32.5-8.2,42.9c-2.3,7.4-4.5,27.8-12.3,28.6
	c-8,0.8-10.3-26.2-18.4-26.6c-8.7-0.4-15.6,21.2-22.5,26.6c-6.3,4.9-20.6,14.1-28.6,14.3c-11.2,0.2-30-15.7-40.9-18.4
	c-6.9-1.8-22-4.8-28.6-2c-4.4,1.8-10.5,9.9-12.3,14.3c-3.1,7.6-4.3,24.8-2,32.7c3.1,10.9,31.7,26.7,26.6,36.8c-6,11.8-40.5-4-53.1,0
	c-8.4,2.7-24.2,12.9-28.6,20.4c-4.7,8,2,42.9-4.1,36.8c-63.9-63.9-57.2-87.9-89.4-90.3c-5.7-0.4-8.2-8-13.9-8.2
	c-7.9-0.3-18.6-0.5-23.4,0.4c-8.1,1.6-22.4,12.1-30.7,12.3c-12.4,0.3-36.2-10.2-47-16.3c-26.5-15.2-91.4-57.9-149.1-97.4
	c45.9-50.6,93-101.2,120.5-127.4c16.8-16,41.5-41.1,69.3-69.7c0,16.2,0.1,28.3,0.2,28.9c2.7,14.1,13.8,41,16.3,55.2
	c2.6,14.1-1.3,43.9,4.1,57.2c3.3,8.1,15.7,21.1,22.5,26.6c8.6,6.9,33.2,11,38.8,20.4c3.2,5.3-4.3,20.2,0,24.5c8.3,8.3,36.4,5.1,47,0
	c2.9-1.4,5.2-8.9,8.2-10.2c7.5-3.3,24.5,1.8,32.7,2c6.6,0.2,21.8-4.7,26.6,0c3.3,3.2-3.2,15.1,0,18.4c5,5,22.9,4.4,28.6,0
	c6.3-4.8,3.1-24.6,8.2-30.7c4.7-5.6,21.3-7.2,26.6-12.3c8.8-8.3,19.6-31.1,22.5-42.9c1.8-7.4-1.8-23.2,0-30.7c1-4.5,2.1-8.3,6.1-6.1
	c34.7,18.4,84-12.4,110.4-6.1c12,2.8,41,8.7,45,20.4C1074,806.6,1057.6,823.6,1052.4,832z"/>
<g>
	<path class="st3" d="M605.4,530.1l5.8,18.4c2.7,11.6,2.4,23.1,0,34.6l-8.1,36.9c3.5,25.9-2.7,40.8-9.2,55.3
		c1.2-21.3,0.2-41.1-5.8-57.6c2.4-9.1,2.6-22.5,2.3-36.9c-0.4-7.7-4-13.1-9.2-17.3c3.9,36.9,5.2,78.5,2.3,92.2l-3.5,9.2l-3.5-38
		c-2.6-7.2-5.3-14.4-9.2-18.4c2.1-4.8,1.5-10.8,0-17.3c1.7-2.8,0.9-7.1,0-11.5l-4.6-13.8l3.5,57.6l-1.2,27.7
		c-0.3-10.2-1.5-19.8-5.8-27.7l-6.9-17.3c0.9-8.3-0.4-17.1-3.5-26.5l-4.6-13.8c-1.6-2.9-3.1-3.3-4.6-2.3l4.6,16.1
		c3.4,12.9,4.6,24.8,3.5,35.7l-9.2-27.7l-5.8-8.1l-8.1-13.8l3.5,19.6c1.3,7.5,4.6,15.6,9.2,24.2L521.3,590
		c0.2-6.2-3.2-13.3-8.1-20.7c-4-4.8-8.7-7.2-13.8-8.1l9.2,21.9l9.2,16.1c-3.8,0.2-8.5-3.1-13.8-9.2c-1.1-5.1-4.3-9.7-9.2-13.8
		c-3.4-5.1-7.9-8.7-13.8-10.4l-8.1-6.9l-4.6-6.9c-1.4,5.2-3.1,9.5-5.8,9.2l4.6,10.4c2.7,2.1,4.2,5.7,4.6,10.4
		c1.2,4.9,0.7,9.9-1.2,15l99.1,74.9l-8.1,6.9c-5.4,3.1-10.8,3.1-16.1,0c-0.1,5-3.8,7.7-9.2,9.2c-4.8,1.7-9.8,0.5-15-3.5
		c-0.3,3.3-2.9,5.5-6.9,6.9c-5.1,1.9-9.8,0.2-13.8-5.8c-0.6,3.1-2.4,5.1-5.8,5.8l-27.7-26.5c1.9,5,1.6,9.6-1.2,13.8l-4.6-4.6
		c1.3,4.3,0.6,7.8-2.3,10.4l-6.9-5.8c2,4.3,2.1,8.5,0,12.7c-2.5-4.2-7.2-8.4-13.8-12.7l-3.5,6.9c-7.1-13.2-22.1-30-38-47.3
		c0.7,9.2-0.3,17.8-3.5,25.4l-11.5-11.5l-12.7,8.1c-4.6,2.2-9.2,1.9-13.8,0l3.5-8.1l-15,5.8l-1.2-10.4c0.9-5.8,3.7-9.1,9.2-9.2
		c-2.9-4.8-7.9-6.5-13.8-6.9l18.4-8.1l1.2-3.5c-2.8-4.4-6.9-7.6-12.7-9.2l3.5-5.8l5.8-2.3c-3-0.3-5.6-2.9-8.1-6.9l-1.2-15
		c1.6-1.9,0.3-3.8-2.3-5.8c-3.3,1.4-7.2-0.2-11.5-3.5c1.5-5.6,1.6-11.4,0-17.3l-4.6,4.6c2.4-5.1,2.8-10.5,1.2-16.1
		c-1.6-0.8-3.1,0.3-4.6,2.3c3.3-13,7.2-24.8,13.8-31.1c-0.6-3.5-4.2-4.2-8.1-4.6c4.8-0.1,9.8-8.2,15-19.6c1.6-3.5,0.2-5.5-2.3-6.9
		c3.8-3.6,6-7.8,5.8-12.7c-0.2-4.1-3.3-4.9-7.5-4.6l0.6-7c0,0-2.3,2.7-6.3,2c-4-0.7-2.3-2.9-9.4-4.4c-7.1-1.5-15.3,2.1-15.3,2.1
		s-3.5,0-6.8-1.2c-3.3-1.2-5.6-3-5.6-3l-5,1.1h-2.6c0.2-2.6,0.3-5.7,0.3-5.7l15-17.3c5.3-6.4,8.3-13.9,8.1-23.1
		c3.6,4.3,5.6,8.6,5.8,12.7c3.4-5.3,5.4-11.4,5.8-18.4c2.6,5.4,3.6,10.7,3.5,16.1c5.3-5,8.7-13.1,10.4-24.2
		c3.9,3.3,5.5,7.2,5.8,11.5c3.1-1.8,4.8-5.4,4.6-11.5c5.4,3.5,8.7,7.9,8.1,13.8c11.2-0.6,21.5,2.9,31.1,9.2c2.7-0.1,4.8-1.3,5.8-4.6
		c1.3,7.9,7.7,17.4,16.1,27.7c2-9.6-0.2-18.9-10.4-27.7c-4.6-6.7-14.7-9.4-25.4-11.5c-6.6-2.5-8.5-7.8-6.9-15c3.5-5.4,8-9.4,15-10.4
		h10.4c1.5-3.8,3.5-7.2,6.9-9.2c21.2-3.8,42.4-1.7,63.4,6.9c15.6,5,32.3,13.6,49.6,24.2c7.4,2,14,2.6,19.6,1.2
		c0,5.3-1.5,9.5-5.8,11.5c16.6,10.9,31.2,22.8,39.2,38c13.2,16.8,25.5,38,36.9,64.5l12.7,11.5C613.3,528.9,610,530.2,605.4,530.1z"
		/>
	<path class="st4" d="M435.4,472.2c-5,7.7-12.3,13.8-15.8,15.4c-3.5,1.5-1.2-22.7-1.2-22.7l4.6,1.2l-13.6-24.8c1.1,1.5-1.2-1.5,0,0
		c2-9.6-0.2-18.9-10.4-27.7c-4.6-6.7-14.7-9.4-25.4-11.5c-6.6-2.5-8.5-7.8-6.9-15c3.5-5.4,8-9.4,15-10.4h10.4c0,0-2.9,5.2,1,13.3
		c3.8,8.1,10,2.7,20,11.9c10,9.2,19.6,13.8,22.3,29.6C438.1,447.3,440.4,464.6,435.4,472.2z"/>
	<path class="st5" d="M340.4,458.5l-0.6,7c-0.2,0-0.4,0-0.6,0c-3.9,5.1-10.5,8.5-19.6,10.4c-9.6-2.6-17.2-0.6-22.9,5.5
		c-0.8,0.9-1.3,2-1.3,3.2v6.3c0,0-12.8-3.4-15-6.9c-9.2-8.1,0-16.1,0-16.1s6.9-9.7,8.1-9.2c0.5,0.2,0.7-1.5,0.9-3.5h2.6l5-1.1
		c0,0,2.3,1.9,5.6,3c3.3,1.2,6.8,1.2,6.8,1.2s8.2-3.6,15.3-2.1c7.1,1.5,5.3,3.7,9.4,4.4C338.1,461.2,340.4,458.5,340.4,458.5z"/>
	<path class="st5" d="M303.9,451.4c0,0-1.4-2.9,0-6.1c1.4-3.2,10.9-6.1,10.9-6.1s2,2,0,6.1C312.8,449.4,307.3,452,303.9,451.4z"/>
</g>
<g>
	<path class="st1" d="M720.1,109.5H867v50H762.6V187h93.8v50h-93.8v29.3h108.2v51.2H720.1V109.5z"/>
	<path class="st1" d="M895.9,109.5h54.3l49.6,138.8h1.2l53.7-138.8h51.1v208h-42.4V186.6l-46.5,130.9h-34.1l-45.6-130.9v130.9h-41.3
		V109.5z"/>
	<path class="st1" d="M1132.8,109.5h42.4v208h-42.4V109.5z"/>
	<path class="st1" d="M1293.5,194.1h80.2v123.4h-26.3l-5.2-13.2c-15.6,12.3-33.1,18.4-52.5,18.4c-25.4,0-46.7-10-63.8-29.9
		c-17.1-19.9-25.7-46.3-25.7-79.2c0-32.8,8.5-59.2,25.5-79.2c17-19.9,38.3-29.9,63.9-29.9c18.9,0,34.9,4.5,48,13.5
		c13.2,9,24.5,22.9,33.9,41.7l-33.8,24.8c-6.3-11-12.9-18.7-19.8-23.1c-6.8-4.4-16.4-6.6-28.7-6.6c-14.4,0-25.9,5.2-34.3,15.6
		c-8.5,10.4-12.7,24.8-12.7,43.1c0,18.6,4.2,33,12.6,43.3c8.4,10.3,19.9,15.4,34.5,15.4c17.7,0,32.1-4.5,43.3-13.5v-16.9l-39.2-1.9
		V194.1z"/>
	<path class="st1" d="M1402.9,109.5h94.4c19.4,0,35.4,7.7,47.9,23.1c12.5,15.4,18.8,35.3,18.8,59.6c0,30.6-9.6,53.4-28.9,68.5
		l24.2,56.8h-46.2l-18.2-44.4h-49.6v44.4h-42.4V109.5z M1445.3,159.9v62.8h50.2c7.7,0,13.9-2.6,18.6-7.9c4.7-5.3,7.1-12.8,7.1-22.6
		c0-9.8-2.4-17.6-7.1-23.5c-4.7-5.9-10.9-8.8-18.6-8.8H1445.3z"/>
	<path class="st1" d="M1649.4,109.5h61.8l67.8,208h-45l-10.1-30.5h-88.3l-9.8,30.5h-45.6L1649.4,109.5z M1676.5,158.8l-25.4,80.1
		h56.3l-24.2-80.1H1676.5z"/>
	<path class="st1" d="M1769.4,109.5h166.8v49.6h-62v158.3h-42.7V159.2h-62V109.5z"/>
	<path class="st1" d="M1958.4,109.5h42.4v208h-42.4V109.5z"/>
	<path class="st1" d="M2179.8,135.5c17.7,20.6,26.5,46.6,26.5,78.2s-8.9,57.7-26.5,78.2c-17.7,20.6-38.8,30.8-63.2,30.8
		c-24.4,0-45.5-10.3-63.2-30.8c-17.7-20.6-26.5-46.6-26.5-78.2s8.8-57.7,26.5-78.2c17.7-20.6,38.8-30.8,63.2-30.8
		C2141,104.6,2162.1,114.9,2179.8,135.5z M2082.7,168.8c-8.9,11.4-13.4,26.4-13.4,44.9c0,18.6,4.5,33.5,13.4,44.9
		c8.9,11.4,20.2,17.1,33.9,17.1c13.5,0,24.7-5.7,33.6-17.1c8.9-11.4,13.4-26.4,13.4-44.9c0-18.6-4.5-33.5-13.4-44.9
		c-8.9-11.4-20.2-17.1-33.6-17.1C2102.9,151.6,2091.6,157.3,2082.7,168.8z"/>
	<path class="st1" d="M2232,109.5h38.7l85.4,125.6V109.5h42.1v208h-39l-85.4-125.6v125.6H2232V109.5z"/>
	<path class="st1" d="M2512.5,168.5H2625V187h-48.4v123.9H2561V187h-48.4V168.5z"/>
	<path class="st1" d="M2748.2,183.4c11.9,14.2,17.8,32.7,17.8,55.5s-5.9,41.3-17.8,55.5c-11.9,14.2-26.8,21.3-44.9,21.3
		c-18,0-33-7.1-44.9-21.3c-11.9-14.2-17.8-32.7-17.8-55.5s5.9-41.3,17.8-55.5c11.9-14.2,26.8-21.3,44.9-21.3
		C2721.4,162.1,2736.3,169.2,2748.2,183.4z M2656.6,238.9c0.1,18,4.6,32.3,13.3,42.7c8.7,10.4,19.9,15.6,33.5,15.6
		c13.4,0,24.5-5.3,33.4-15.8c8.8-10.5,13.2-24.7,13.2-42.6c0-17.9-4.4-32-13.2-42.6c-8.8-10.5-19.9-15.8-33.4-15.8
		c-13.6,0-24.7,5.2-33.5,15.6C2661.1,206.7,2656.7,220.9,2656.6,238.9z"/>
	<path class="st2" d="M725,396.3h75.5l69.1,193.1h1.6l74.7-193.1h71.1v289.5h-59V503.6l-64.7,182.2h-47.4l-63.5-182.2v182.2H725
		V396.3z"/>
	<path class="st2" d="M1175.2,396.3h204.4v69.6h-145.4v38.2h130.5v69.6h-130.5v40.8h150.6v71.2h-209.6V396.3z"/>
	<path class="st2" d="M1534.3,396.3h67.1l55.4,106.8h9.2l55-106.8h67.1l-73.5,137.1l76.3,152.3h-68.3l-56.2-114.1H1656l-55.4,114.1
		h-68.7l76.7-150.7L1534.3,396.3z"/>
	<path class="st2" d="M1940.3,396.3h59v289.5h-59V396.3z"/>
	<path class="st2" d="M2394.5,471.7l-45.8,34c-8.6-16.4-18.3-28.5-29.1-36.4c-10.8-7.9-24.4-11.8-40.8-11.8
		c-19.8,0-35.7,7.6-47.6,22.8c-11.9,15.2-17.9,35.5-17.9,61c0,25.1,6,45.4,18.1,60.7c12,15.4,27.8,23,47.4,23
		c30.5,0,53.7-15.9,69.5-47.6l45.8,33.5c-22.5,54.8-60.6,82.2-114.5,82.2c-36.4,0-66.3-13.8-89.8-41.4
		c-23.4-27.6-35.1-64.4-35.1-110.4c0-45.7,11.8-82.4,35.5-110.2c23.7-27.7,53.5-41.6,89.4-41.6
		C2333.2,389.5,2371.5,416.9,2394.5,471.7z"/>
	<path class="st2" d="M2756.3,432.4c24.6,28.6,36.9,64.9,36.9,108.9s-12.3,80.3-36.9,108.9c-24.6,28.6-54,42.9-88,42.9
		c-34,0-63.3-14.3-88-42.9c-24.6-28.6-36.9-64.9-36.9-108.9s12.3-80.3,36.9-108.9c24.6-28.6,53.9-42.9,88-42.9
		C2702.4,389.5,2731.7,403.8,2756.3,432.4z M2621.2,478.8c-12.5,15.9-18.7,36.7-18.7,62.5c0,25.8,6.2,46.7,18.7,62.5
		c12.4,15.9,28.2,23.8,47.2,23.8c18.7,0,34.3-7.9,46.8-23.8c12.4-15.9,18.7-36.7,18.7-62.5c0-25.8-6.2-46.7-18.7-62.5
		c-12.5-15.9-28-23.8-46.8-23.8C2649.4,454.9,2633.7,462.9,2621.2,478.8z"/>
</g>
</svg>
