<?xml version="1.0" encoding="utf-8"?>
<!-- Generator: Adobe Illustrator 21.0.1, SVG Export Plug-In . SVG Version: 6.00 Build 0)  -->
<svg version="1.1" id="Слой_1" xmlns="http://www.w3.org/2000/svg" xmlns:xlink="http://www.w3.org/1999/xlink" x="0px" y="0px"
	 viewBox="0 0 1920 1080" style="enable-background:new 0 0 1920 1080;" xml:space="preserve">
<style type="text/css">
	.st0{fill:#FFFFFF;stroke:#000000;stroke-miterlimit:10;}
	.st1{fill:#FFFFFF;}
	.st2{fill:#006649;}
	.st3{fill:#E3001C;}
	.st4{fill:none;stroke:#110B00;stroke-miterlimit:10;}
	.st5{fill:#8F4620;}
	.st6{fill:#AB6D29;}
	.st7{fill:#FBC110;}
</style>
<path class="st0" d="M-825.9,226.5c3.4,1.6,8.5,4.4,10.9,5.6c6,3.1,22.5,1.2,26,7c2,13,88,79,105,70c0,0-1-6,3-8
	c2.7-1.4,10.5-0.7,14.1-0.2c1.2,0.1,2.3,0.7,3,1.7l1,1.3c1.1,1.4,2.9,2.2,4.7,2.2h7.4c1.1,0,2.2,0.3,3.2,0.9l1.2,0.7
	c1.5,0.9,2.7,2.3,3.3,4c1,2.9,2.6,8.8,4.1,11.4c2.1,3.7,8.1,9.9,11,13c1.4,1.6,5.2,4,6,6c1.9,4.6-1.1,15.1,0,20
	c0.6,2.7,3.5,7.7,5,10c2.8,4.3,7.9,15,13,16c3.6,0.7,11.1-3.8,13-7c1.3-2.1-1.8-8.3,0-10c4.1-3.7,17.1-0.5,22,2c2,1.1,4.6,5.2,6,7
	c2.5,3.3,7.3,10.2,9,14c2.8,6.4,3.4,21,7,27c1.9,3.2,9.5,6.6,11,10c2.8,6.4-3.4,21.9,0,28c2.2,3.8,11.4,6.6,15,9
	c3.1,2.1,9.1,6.7,12,9c1.8,1.4,6.9,3.7,7,6c0.2,4.1-8.9,8.5-11,12c-2,3.4-2.9,11.6-5,15c-0.9,1.5-4.3,3.4-5,5
	c-1.6,3.4-0.8,11.2-1,15c-0.3,4.7-1.1,14.2-1,19c0.1,6,0.9,18.1,2,24c1.3,6.9,6.7,20.1,8,27c1.3,6.9-0.6,21.5,2,28
	c1.6,3.9,7.7,10.3,11,13c4.2,3.4,16.2,5.4,19,10c1.6,2.6-2.1,9.9,0,12c4.1,4.1,17.8,2.5,23,0c1.4-0.7,2.5-4.4,4-5
	c3.7-1.6,12,0.9,16,1c3.2,0.1,10.7-2.3,13,0c1.6,1.6-1.6,7.4,0,9c2.5,2.5,11.2,2.1,14,0c3.1-2.4,1.5-12,4-15c2.3-2.7,10.4-3.5,13-6
	c4.3-4.1,9.6-15.2,11-21c0.9-3.6-0.9-11.4,0-15c0.5-2.2,1-4,3-3c17,9,41.1-6.1,54-3c5.9,1.4,20.1,4.3,22,10c1.6,4.6-6.5,12.9-9,17
	c-3.2,5.2-11.6,14.4-14,20c-2.1,4.9-2.4,15.9-4,21c-1.1,3.6-2.2,13.6-6,14c-3.9,0.4-5.1-12.8-9-13c-4.3-0.2-7.7,10.4-11,13
	c-3.1,2.4-10.1,6.9-14,7c-5.5,0.1-14.7-7.7-20-9c-3.4-0.9-10.8-2.4-14-1c-2.1,0.9-5.1,4.9-6,7c-1.5,3.7-2.1,12.1-1,16
	c1.5,5.3,15.5,13.1,13,18c-3,5.8-19.8-2-26,0c-4.1,1.3-11.8,6.3-14,10c-2.3,3.9,1,21-2,18c-31.3-31.3-28-43-43.8-44.2
	c-2.8-0.2-4-3.9-6.8-4c-3.8-0.1-9.1-0.2-11.4,0.2c-4,0.8-11,5.9-15,6c-6.1,0.1-17.7-5-23-8c-25.6-14.7-67.9-58.2-95-70
	c-3.7-1.6-12.4-1.2-16-3c-4.3-2.1-12.9-8.4-14-13c-0.7-3,4.7-9.4,3-12c-1.7-2.5-9.4-0.4-12-2c-8.2-5-21-21.6-23-31
	c-0.8-3.5,1.6-10.7,3-14c3.9-9.1,21.8-23.1,22-33c0.2-10.5-16.4-27.1-22-36c-2.7-4.3-11-17-11-17s-9.8-20.7-14-27
	c-3.5-5.2-14.6-13-16-19c-0.7-3,1.9-9.1,3-12c0.8-2.1,4.2-5.8,4-8c-0.3-3.4-5.8-8.4-8-11c-2.8-3.2-10.4-8.1-12-12
	c-1.6-3.9,2.4-13.5,0-17c-1.7-2.4-9.1-1.8-11-4c-4.4-5.2-3.6-20.3-5-27c-1.3-6.3-5.1-18.6-6-25c-1-7.2,2.1-22.4-1-29
	c-1.4-3-7.7-6.5-10-9c-3-3.3-6.6-14.6-11-14c-4.6,0.6-6,12.5-7,17c-1.2,5.4-1.7,16.5-1,22c0.5,4.2,3.6,12.1,5,16
	c3.4,9.4,13.7,27.1,15,37c0.5,4-3,12.1-2,16c0.8,3.3,6.5,8,8,11c2.2,4.4,5.3,14.1,6,19c1.1,8.2-3.8,25.2-1,33c0.9,2.5,6.8,5.4,7,8
	c0.2,3.3-7.8,7.8-7,11c1,3.9,11.5,4.9,14,8c3.1,3.9,7.5,14.2,6,19c-1.2,3.9-8.9,10-13,10c-3.2,0-8.6-5.1-10-8
	c-1.9-4.1,1.7-13.8,0-18c-1.6-3.9-9-9-12-12c-5-5-19.2-13-20-20c-0.9-7.9,16.5-19,17-27c0.2-3.6-3.9-10.1-6-13
	c-3-4.2-11.4-10.3-15-14c-4.7-4.8-13.6-13.7-16-20c-1.3-3.3-4.6-11.6-2-14c2.4-2.2,13.1,4.5,16,3c3.1-1.6,3.9-10.5,4-14
	c0.1-5.9-3.4-12.3-7-17c-1.9-2.4-8.8-6.3-10-9c-2.5-5.5,0-17,0-26c0-12.4-2.6-35-4-46.8C-830.2,227.2-827.9,225.6-825.9,226.5z"/>
<path class="st0" d="M-1586.9,335.5c3.4,1.6,8.5,4.4,10.9,5.6c6,3.1,22.5,1.2,26,7c2,13,88,79,105,70c0,0-1-6,3-8
	c2.7-1.4,10.5-0.7,14.1-0.2c1.2,0.1,2.3,0.7,3,1.7l1,1.3c1.1,1.4,2.9,2.2,4.7,2.2h7.4c1.1,0,2.2,0.3,3.2,0.9l1.2,0.7
	c1.5,0.9,2.7,2.3,3.3,4c1,2.9,2.6,8.8,4.1,11.4c2.1,3.7,8.1,9.9,11,13c1.4,1.6,5.2,4,6,6c1.9,4.6-1.1,15.1,0,20
	c0.6,2.7,3.5,7.7,5,10c2.8,4.3,7.9,15,13,16c3.6,0.7,11.1-3.8,13-7c1.3-2.1-1.8-8.3,0-10c4.1-3.7,17.1-0.5,22,2c2,1.1,4.6,5.2,6,7
	c2.5,3.3,7.3,10.2,9,14c2.8,6.4,3.4,21,7,27c1.9,3.2,9.5,6.6,11,10c2.8,6.4-3.4,21.9,0,28c2.2,3.8,11.4,6.6,15,9
	c3.1,2.1,9.1,6.7,12,9c1.8,1.4,6.9,3.7,7,6c0.2,4.1-8.9,8.5-11,12c-2,3.4-2.9,11.6-5,15c-0.9,1.5-4.3,3.4-5,5
	c-1.6,3.4-0.8,11.2-1,15c-0.3,4.7-1.1,14.2-1,19c0.1,6,0.9,18.1,2,24c1.3,6.9,6.7,20.1,8,27c1.3,6.9-0.6,21.5,2,28
	c1.6,3.9,7.7,10.3,11,13c4.2,3.4,16.2,5.4,19,10c1.6,2.6-2.1,9.9,0,12c4.1,4.1,17.8,2.5,23,0c1.4-0.7,2.5-4.4,4-5
	c3.7-1.6,12,0.9,16,1c3.2,0.1,10.7-2.3,13,0c1.6,1.6-1.6,7.4,0,9c2.5,2.5,11.2,2.1,14,0c3.1-2.4,1.5-12,4-15c2.3-2.7,10.4-3.5,13-6
	c4.3-4.1,9.6-15.2,11-21c0.9-3.6-0.9-11.4,0-15c0.5-2.2,1-4,3-3c17,9,41.1-6.1,54-3c5.9,1.4,20.1,4.3,22,10c1.6,4.6-6.5,12.9-9,17
	c-3.2,5.2-11.6,14.4-14,20c-2.1,4.9-2.4,15.9-4,21c-1.1,3.6-2.2,13.6-6,14c-3.9,0.4-5.1-12.8-9-13c-4.3-0.2-7.7,10.4-11,13
	c-3.1,2.4-10.1,6.9-14,7c-5.5,0.1-14.7-7.7-20-9c-3.4-0.9-10.8-2.4-14-1c-2.1,0.9-5.1,4.9-6,7c-1.5,3.7-2.1,12.1-1,16
	c1.5,5.3,15.5,13.1,13,18c-3,5.8-19.8-2-26,0c-4.1,1.3-11.8,6.3-14,10c-2.3,3.9,1,21-2,18c-31.3-31.3-28-43-43.8-44.2
	c-2.8-0.2-4-3.9-6.8-4c-3.8-0.1-9.1-0.2-11.4,0.2c-4,0.8-11,5.9-15,6c-6.1,0.1-17.7-5-23-8c-25.6-14.7-67.9-58.2-95-70
	c-3.7-1.6-12.4-1.2-16-3c-4.3-2.1-12.9-8.4-14-13c-0.7-3,4.7-9.4,3-12c-1.7-2.5-9.4-0.4-12-2c-8.2-5-21-21.6-23-31
	c-0.8-3.5,1.6-10.7,3-14c3.9-9.1,21.8-23.1,22-33c0.2-10.5-16.4-27.1-22-36c-2.7-4.3-11-17-11-17s-9.8-20.7-14-27
	c-3.5-5.2-14.6-13-16-19c-0.7-3,1.9-9.1,3-12c0.8-2.1,4.2-5.8,4-8c-0.3-3.4-5.8-8.4-8-11c-2.8-3.2-10.4-8.1-12-12
	c-1.6-3.9,2.4-13.5,0-17c-1.7-2.4-9.1-1.8-11-4c-4.4-5.2-3.6-20.3-5-27c-1.3-6.3-5.1-18.6-6-25c-1-7.2,2.1-22.4-1-29
	c-1.4-3-7.7-6.5-10-9c-3-3.3-6.6-14.6-11-14c-4.6,0.6-6,12.5-7,17c-1.2,5.4-1.7,16.5-1,22c0.5,4.2,3.6,12.1,5,16
	c3.4,9.4,13.7,27.1,15,37c0.5,4-3,12.1-2,16c0.8,3.3,6.5,8,8,11c2.2,4.4,5.3,14.1,6,19c1.1,8.2-3.8,25.2-1,33c0.9,2.5,6.8,5.4,7,8
	c0.2,3.3-7.8,7.8-7,11c1,3.9,11.5,4.9,14,8c3.1,3.9,7.5,14.2,6,19c-1.2,3.9-8.9,10-13,10c-3.2,0-8.6-5.1-10-8
	c-1.9-4.1,1.7-13.8,0-18c-1.6-3.9-9-9-12-12c-5-5-19.2-13-20-20c-0.9-7.9,16.5-19,17-27c0.2-3.6-3.9-10.1-6-13
	c-3-4.2-11.4-10.3-15-14c-4.7-4.8-13.6-13.7-16-20c-1.3-3.3-4.6-11.6-2-14c2.4-2.2,13.1,4.5,16,3c3.1-1.6,3.9-10.5,4-14
	c0.1-5.9-3.4-12.3-7-17c-1.9-2.4-8.8-6.3-10-9c-2.5-5.5,0-17,0-26c0-12.4-2.6-35-4-46.8C-1591.2,336.2-1588.9,334.6-1586.9,335.5z"
	/>
<path class="st1" d="M660,539.6c0.5,7.9-17.4,16.5-21.4,23.3c-3.9,6.6-5.7,22.6-9.7,29.2c-1.8,2.9-8.3,6.6-9.7,9.7
	c-0.2,0.4-0.3,33.4-0.2,63.6c0,7.6,0,15.1,0,21.8c-26.4,27.3-49.9,51.2-65.9,66.4c-26.2,24.9-71,73.1-114.7,121.3h0
	c-53.2-36.5-100.1-70.1-101.2-74.6c-1.4-5.8,9.1-18.3,5.8-23.3c-3.2-4.9-18.3-0.8-23.3-3.9c-16-9.8-40.8-42-44.7-60.3
	c-1.5-6.8,3.1-20.8,5.8-27.2c7.5-17.8,42.4-44.9,42.8-64.2c0.4-20.5-31.9-52.7-42.8-70c-5.3-8.3-21.4-33.1-21.4-33.1
	s-39.7-55.4-53.6-79.8C388,309.6,426.5,265.3,426.5,265.3c3.7,9,25.2,87.5,35,89.5c7,1.4,21.6-7.4,25.3-13.6
	c2.5-4.2-3.6-16.2,0-19.5c7.9-7.2,33.2-1,42.8,3.9c4,2.1,9,10,11.7,13.6c4.8,6.5,14.3,19.8,17.5,27.2c5.4,12.4,6.6,40.9,13.6,52.5
	c3.7,6.2,18.5,12.8,21.4,19.5c5.5,12.4-6.7,42.6,0,54.5c4.2,7.4,22.1,12.8,29.2,17.5c6,4.1,17.6,12.9,23.3,17.5
	C649.8,530.7,659.7,535.1,660,539.6z"/>
<path class="st2" d="M418.8,245.9c0,0-38.5,44.3-220.9,173.1c-2.6-4.5-4.3-7.9-4.7-9.7c-1.4-5.9,3.8-17.7,5.8-23.3
	c1.5-4.1,8.1-11.2,7.8-15.6c-0.5-6.6-11.3-16.4-15.6-21.4c-5.4-6.3-20.2-15.7-23.3-23.3c-3.2-7.6,4.7-26.3,0-33.1
	c-3.3-4.7-17.7-3.4-21.4-7.8c-8.6-10.2-6.9-39.5-9.7-52.5c-2.6-12.2-10-36.2-11.7-48.6c-1.9-14,4-43.6-1.9-56.4
	c-2.8-5.9-15-12.7-19.5-17.5c-5.9-6.3-12.8-28.4-21.4-27.2c-8.9,1.2-11.7,24.3-13.6,33.1c-2.3,10.5-3.3,32.2-1.9,42.8
	c1.1,8.1,7,23.4,9.7,31.1c6.6,18.3,26.6,52.7,29.2,72c1,7.8-5.9,23.5-3.9,31.1c1.7,6.4,12.6,15.5,15.6,21.4
	c4.4,8.7,10.3,27.4,11.7,37c2.2,15.9-7.4,49.1-1.9,64.2c1.8,4.9,13.2,10.4,13.6,15.6c0.5,6.3-15.1,15.2-13.6,21.4
	c1.9,7.6,22.3,9.5,27.2,15.6c6.1,7.5,14.6,27.7,11.7,37c-2.4,7.6-17.3,19.5-25.3,19.5c-6.2-0.1-16.7-9.9-19.5-15.6
	c-3.8-7.9,3.3-26.9,0-35c-3.2-7.6-17.5-17.5-23.3-23.3c-9.7-9.7-37.4-25.2-38.9-38.9c-1.7-15.4,32.1-37,33.1-52.5
	c0.4-6.9-7.6-19.6-11.7-25.3c-5.9-8.1-22.2-20.1-29.2-27.2c-9.2-9.3-26.4-26.7-31.1-38.9c-2.4-6.4-8.9-22.6-3.9-27.2
	c4.6-4.3,25.5,8.8,31.1,5.8c6-3.1,7.6-20.5,7.8-27.2c0.3-11.5-6.5-24-13.6-33.1c-3.6-4.6-17.1-12.2-19.5-17.5
	c-4.8-10.6,0-33.1,0-50.6c0-24.1-5.1-68.1-7.7-91c-0.5-4.3,4-7.4,7.9-5.6c6.7,3.1,16.6,8.5,21.2,10.9c11.6,6.1,43.8,2.4,50.6,13.6
	c3.9,25.3,171.2,153.7,204.2,136.2c0,0-1.9-11.7,5.8-15.6c5.3-2.6,20.5-1.3,27.5-0.5c2.3,0.3,4.4,1.5,5.9,3.3l2,2.6
	c2.2,2.7,5.6,4.4,9.1,4.4h14.4c2.2,0,4.3,0.6,6.2,1.7l2.3,1.4c2.9,1.8,5.2,4.5,6.3,7.7c2,5.6,5,17.1,7.9,22.3
	c4.1,7.2,15.8,19.2,21.4,25.3C409.9,237.2,417.2,242.1,418.8,245.9z"/>
<path class="st3" d="M1033.4,848.9c-6.2,10.1-22.6,28-27.2,38.9c-4,9.6-4.7,30.9-7.8,40.8c-2.2,7.1-4.3,26.5-11.7,27.2
	c-7.6,0.8-9.8-24.9-17.5-25.3c-8.3-0.4-14.9,20.2-21.4,25.3c-6,4.7-19.6,13.5-27.2,13.6c-10.7,0.2-28.6-14.9-38.9-17.5
	c-6.6-1.7-20.9-4.6-27.2-1.9c-4.1,1.7-10,9.5-11.7,13.6c-2.9,7.2-4.1,23.6-1.9,31.1c3,10.4,30.2,25.4,25.3,35
	c-5.8,11.3-38.5-3.9-50.6,0c-8,2.5-23,12.2-27.2,19.5c-4.5,7.6,1.9,40.8-3.9,35c-60.8-60.8-54.5-83.6-85.1-86
	c-5.4-0.4-7.8-7.6-13.2-7.8c-7.5-0.3-17.7-0.4-22.2,0.4c-7.7,1.5-21.3,11.5-29.2,11.7c-11.8,0.3-34.5-9.7-44.7-15.6
	c-25.3-14.5-87-55.1-141.9-92.7c43.7-48.1,88.5-96.3,114.7-121.3c16-15.2,39.5-39.1,65.9-66.4c0,15.4,0.1,26.9,0.2,27.5
	c2.5,13.5,13.1,39,15.6,52.5c2.4,13.4-1.3,41.8,3.9,54.5c3.1,7.7,14.9,20.1,21.4,25.3c8.2,6.5,31.6,10.5,37,19.5
	c3,5-4.1,19.2,0,23.3c7.9,7.9,34.7,4.8,44.7,0c2.8-1.3,4.9-8.5,7.8-9.7c7.1-3.2,23.3,1.7,31.1,1.9c6.3,0.2,20.8-4.5,25.3,0
	c3.1,3.1-3.1,14.4,0,17.5c4.8,4.8,21.8,4.1,27.2,0c6-4.6,2.9-23.4,7.8-29.2c4.5-5.3,20.2-6.9,25.3-11.7c8.3-7.9,18.6-29.6,21.4-40.8
	c1.8-7.1-1.7-22.1,0-29.2c1-4.2,2-7.9,5.8-5.8c33.1,17.5,79.9-11.8,105-5.8c11.4,2.7,39,8.3,42.8,19.5
	C1053.9,824.7,1038.3,840.9,1033.4,848.9z"/>
<path class="st4" d="M1138.5-670.5l5,16c2.3,10.1,2.1,20.1,0,30l-7,32c3.1,22.4-2.3,35.4-8,48c1-18.5,0.2-35.7-5-50
	c2.1-7.9,2.3-19.5,2-32c-0.3-6.7-3.4-11.3-8-15c3.4,32,4.5,68.1,2,80l-3,8l-3-33c-2.3-6.3-4.6-12.5-8-16c1.8-4.2,1.3-9.4,0-15
	c1.4-2.4,0.8-6.2,0-10l-4-12l3,50l-1,24c-0.3-8.8-1.3-17.2-5-24l-6-15c0.8-7.2-0.4-14.9-3-23l-4-12c-1.3-2.5-2.7-2.9-4-2l4,14
	c3,11.2,4,21.5,3,31l-8-24l-5-7l-7-12l3,17c1.1,6.5,4,13.6,8,21l-14-17c0.2-5.4-2.8-11.5-7-18c-3.5-4.2-7.6-6.2-12-7l8,19l8,14
	c-3.3,0.1-7.4-2.7-12-8c-1-4.4-3.7-8.4-8-12c-3-4.4-6.9-7.5-12-9l-7-6l-4-6c-1.3,4.5-2.7,8.2-5,8l4,9c2.4,1.9,3.6,4.9,4,9
	c1,4.3,0.6,8.6-1,13l86,65l-7,6c-4.7,2.7-9.3,2.7-14,0c-0.1,4.3-3.3,6.7-8,8c-4.2,1.5-8.5,0.4-13-3c-0.2,2.9-2.5,4.7-6,6
	c-4.4,1.7-8.5,0.2-12-5c-0.5,2.7-2.1,4.4-5,5l-24-23c1.6,4.3,1.4,8.3-1,12l-4-4c1.1,3.7,0.5,6.7-2,9l-6-5c1.7,3.7,1.8,7.4,0,11
	c-2.2-3.6-6.2-7.3-12-11l-3,6c-6.2-11.5-19.2-26-33-41c0.6,8-0.2,15.4-3,22l-10-10l-11,7c-4,1.9-8,1.7-12,0l3-7l-13,5l-1-9
	c0.8-5,3.3-7.9,8-8c-2.5-4.2-6.9-5.6-12-6l16-7l1-3c-2.4-3.8-6-6.6-11-8l3-5l5-2c-2.6-0.2-4.9-2.5-7-6l-1-13c1.4-1.7,0.3-3.3-2-5
	c-2.9,1.2-6.3-0.2-10-3c1.3-4.8,1.3-9.8,0-15l-4,4c2.1-4.4,2.4-9.1,1-14c-1.3-0.7-2.7,0.2-4,2c2.9-11.3,6.3-21.5,12-27
	c-0.5-3.1-3.6-3.7-7-4c4.2-0.1,8.5-7.1,13-17c1.4-3,0.1-4.8-2-6c3.3-3.2,5.2-6.7,5-11c-0.1-3-2.1-4-4.8-4.1
	c1.2-10.1,0.8-3.9-5.2-7.9s-24,0-24,0l-9-5l-7.1,1.4c0-1.3,0.1-2.4,0.1-2.4l13-15c4.6-5.5,7.2-12.1,7-20c3.1,3.8,4.9,7.4,5,11
	c3-4.6,4.7-9.9,5-16c2.3,4.7,3.2,9.3,3,14c4.6-4.4,7.6-11.4,9-21c3.3,2.9,4.8,6.3,5,10c2.7-1.6,4.2-4.7,4-10c4.7,3.1,7.6,6.9,7,12
	c9.7-0.5,18.6,2.5,27,8c2.3-0.1,4.2-1.1,5-4c1,5.8,5.2,12.7,10.9,20.1l14.9,25.4l-4-1c0,0-2,21,1,19.7c3-1.3,9.3-6.7,13.7-13.3
	c4.3-6.7,2.3-21.7,0-35.3s-10.7-17.7-19.3-25.7c-8.7-8-14-3.3-17.3-10.3c-3.3-7-0.8-11.5-0.8-11.5c1.3-3.3,3.1-6.2,6-8
	c18.4-3.3,36.8-1.5,55,6c13.5,4.4,28,11.8,43,21c6.4,1.8,12.2,2.3,17,1c0,4.6-1.3,8.2-5,10c14.4,9.4,27.1,19.7,34,33
	c11.4,14.6,22.2,33,32,56l11,10C1145.3-671.5,1142.5-670.4,1138.5-670.5z"/>
<path class="st4" d="M762.5-614.5c2.3-0.1,4.1-1.1,5-4"/>
<path class="st5" d="M-811.5,38.4l5,16c2.3,10.1,2.1,20.1,0,30l-7,32c3.1,22.4-2.3,35.4-8,48c1-18.5,0.2-35.7-5-50
	c2.1-7.9,2.3-19.5,2-32c-0.3-6.7-3.5-11.3-8-15c3.4,32,4.5,68.1,2,80l-3,8l-3-33c-2.3-6.3-4.6-12.5-8-16c1.8-4.2,1.3-9.4,0-15
	c1.5-2.4,0.8-6.2,0-10l-4-12l3,50l-1,24c-0.3-8.8-1.3-17.2-5-24l-6-15c0.8-7.2-0.4-14.9-3-23l-4-12c-1.3-2.5-2.7-2.9-4-2l4,14
	c3,11.2,4,21.5,3,31l-8-24l-5-7l-7-12l3,17c1.1,6.5,4,13.6,8,21l-14-17c0.2-5.4-2.8-11.5-7-18c-3.5-4.2-7.6-6.2-12-7l8,19l8,14
	c-3.3,0.1-7.4-2.7-12-8c-1-4.4-3.7-8.4-8-12c-3-4.4-6.9-7.5-12-9l-7-6l-4-6c-1.3,4.5-2.7,8.2-5,8l4,9c2.4,1.9,3.6,4.9,4,9
	c1,4.3,0.6,8.6-1,13l86,65l-7,6c-4.7,2.7-9.3,2.7-14,0c-0.1,4.3-3.3,6.7-8,8c-4.2,1.5-8.5,0.4-13-3c-0.2,2.9-2.5,4.7-6,6
	c-4.5,1.7-8.5,0.2-12-5c-0.5,2.7-2.1,4.4-5,5l-24-23c1.6,4.3,1.4,8.3-1,12l-4-4c1.1,3.7,0.5,6.7-2,9l-6-5c1.7,3.7,1.8,7.4,0,11
	c-2.2-3.6-6.2-7.3-12-11l-3,6c-6.2-11.5-19.2-26-33-41c0.6,8-0.2,15.4-3,22l-10-10l-11,7c-4,1.9-8,1.7-12,0l3-7l-13,5l-1-9
	c0.8-5,3.3-7.9,8-8c-2.5-4.2-6.9-5.6-12-6l16-7l1-3c-2.4-3.8-6-6.6-11-8l3-5l5-2c-2.6-0.2-4.9-2.5-7-6l-1-13c1.4-1.7,0.3-3.3-2-5
	c-2.9,1.2-6.3-0.2-10-3c1.3-4.8,1.3-9.8,0-15l-4,4c2.1-4.4,2.4-9.1,1-14c-1.3-0.7-2.7,0.2-4,2c2.9-11.3,6.3-21.5,12-27
	c-0.5-3.1-3.6-3.7-7-4c4.2-0.1,8.5-7.1,13-17c1.4-3,0.1-4.8-2-6c3.3-3.2,5.2-6.7,5-11c-0.2-3.6-2.9-4.3-6.5-4l0.5-6.1
	c0,0-2,2.3-5.5,1.7c-3.5-0.6-2-2.5-8.1-3.8c-6.1-1.3-13.3,1.8-13.3,1.8s-3,0-5.9-1s-4.9-2.6-4.9-2.6l-4.4,0.9h-2.2
	c0.2-2.3,0.2-4.9,0.2-4.9l13-15c4.6-5.5,7.2-12.1,7-20c3.1,3.8,4.9,7.4,5,11c3-4.6,4.7-9.9,5-16c2.3,4.7,3.2,9.3,3,14
	c4.6-4.4,7.6-11.4,9-21c3.3,2.9,4.8,6.3,5,10c2.7-1.6,4.2-4.7,4-10c4.7,3.1,7.6,6.9,7,12c9.7-0.5,18.6,2.5,27,8c2.3-0.1,4.2-1.1,5-4
	c1.1,6.8,6.7,15.1,14,24c1.7-8.3-0.2-16.4-9-24c-4-5.8-12.7-8.1-22-10c-5.7-2.2-7.4-6.7-6-13c3-4.7,7-8.2,13-9h9
	c1.3-3.3,3.1-6.2,6-8c18.4-3.3,36.8-1.5,55,6c13.5,4.4,28,11.8,43,21c6.4,1.8,12.2,2.3,17,1c0,4.6-1.3,8.2-5,10
	c14.4,9.4,27.1,19.7,34,33c11.4,14.6,22.2,33,32,56l11,10C-804.7,37.3-807.5,38.4-811.5,38.4z"/>
<path class="st6" d="M-959-11.8c-4.3,6.7-10.7,12-13.7,13.3c-3,1.3-1-19.7-1-19.7l4,1l-11.8-21.5c1,1.3-1.1-1.3,0,0
	c1.7-8.3-0.2-16.4-9-24c-4-5.8-12.7-8.1-22-10c-5.7-2.2-7.4-6.7-6-13c3-4.7,7-8.2,13-9h9c0,0-2.5,4.5,0.8,11.5
	c3.3,7,8.7,2.3,17.3,10.3c8.7,8,17,12,19.3,25.7S-954.7-18.5-959-11.8z"/>
<path class="st4" d="M968.5-747.5c-1.1-1.3-2.1-2.6-3.1-3.9l-5.4-14.3l-7.4-8l-26.3-11L920-810l34.3-7.7l-0.8,14.2h-9
	c-6,0.8-10,4.3-13,9c-1.4,6.3,0.3,10.8,6,13c9.3,1.9,18,4.2,22,10C968.3-763.9,970.2-755.8,968.5-747.5z"/>
<path class="st7" d="M-1041.5-23.8l-0.5,6.1c-0.2,0-0.3,0-0.5,0c-3.4,4.5-9.1,7.4-17,9c-8.3-2.3-14.9-0.5-19.9,4.8
	c-0.7,0.7-1.1,1.7-1.1,2.8v5.5c0,0-11.1-3-13-6c-8-7,0-14,0-14s6-8.4,7-8c0.4,0.2,0.7-1.3,0.8-3.1h2.2l4.4-0.9c0,0,2,1.6,4.9,2.6
	s5.9,1,5.9,1s7.1-3.1,13.3-1.8c6.1,1.3,4.6,3.2,8.1,3.8C-1043.5-21.4-1041.5-23.8-1041.5-23.8z"/>
<path class="st7" d="M-1073.2-29.9c0,0-1.3-2.5,0-5.3s9.5-5.3,9.5-5.3s1.8,1.8,0,5.3S-1070.2-29.4-1073.2-29.9z"/>
<g>
	<path class="st5" d="M589,556.5l5.5,17.6c2.6,11.1,2.3,22,0,32.9l-7.7,35.1c3.4,24.6-2.5,38.8-8.8,52.7c1.1-20.3,0.2-39.2-5.5-54.8
		c2.3-8.6,2.5-21.4,2.2-35.1c-0.4-7.3-3.8-12.4-8.8-16.5c3.7,35.1,5,74.7,2.2,87.8l-3.3,8.8l-3.3-36.2c-2.5-6.9-5.1-13.7-8.8-17.6
		c2-4.6,1.4-10.3,0-16.5c1.6-2.7,0.9-6.8,0-11l-4.4-13.2l3.3,54.8l-1.1,26.3c-0.3-9.7-1.4-18.9-5.5-26.3l-6.6-16.5
		c0.8-7.9-0.4-16.3-3.3-25.2l-4.4-13.2c-1.5-2.7-2.9-3.1-4.4-2.2l4.4,15.4c3.3,12.3,4.4,23.6,3.3,34l-8.8-26.3l-5.5-7.7l-7.7-13.2
		l3.3,18.6c1.2,7.1,4.4,14.9,8.8,23l-15.4-18.6c0.2-5.9-3-12.7-7.7-19.7c-3.8-4.6-8.3-6.8-13.2-7.7l8.8,20.8l8.8,15.4
		c-3.7,0.2-8.1-3-13.2-8.8c-1.1-4.8-4.1-9.2-8.8-13.2c-3.3-4.8-7.5-8.3-13.2-9.9l-7.7-6.6l-4.4-6.6c-1.4,4.9-2.9,9-5.5,8.8l4.4,9.9
		c2.6,2,4,5.4,4.4,9.9c1.1,4.7,0.7,9.5-1.1,14.3l94.3,71.3l-7.7,6.6c-5.1,2.9-10.2,2.9-15.4,0c-0.1,4.7-3.6,7.3-8.8,8.8
		c-4.6,1.6-9.3,0.4-14.3-3.3c-0.2,3.2-2.8,5.2-6.6,6.6c-4.9,1.8-9.3,0.2-13.2-5.5c-0.6,2.9-2.3,4.8-5.5,5.5l-26.3-25.2
		c1.8,4.7,1.5,9.1-1.1,13.2l-4.4-4.4c1.2,4.1,0.6,7.4-2.2,9.9l-6.6-5.5c1.9,4.1,2,8.1,0,12.1c-2.4-4-6.8-8-13.2-12.1l-3.3,6.6
		c-6.8-12.6-21.1-28.6-36.2-45c0.6,8.8-0.3,16.9-3.3,24.1l-11-11l-12.1,7.7c-4.4,2.1-8.8,1.8-13.2,0l3.3-7.7l-14.3,5.5l-1.1-9.9
		c0.8-5.5,3.6-8.6,8.8-8.8c-2.7-4.6-7.5-6.2-13.2-6.6l17.6-7.7l1.1-3.3c-2.7-4.2-6.6-7.2-12.1-8.8l3.3-5.5l5.5-2.2
		c-2.8-0.3-5.4-2.8-7.7-6.6l-1.1-14.3c1.5-1.8,0.3-3.7-2.2-5.5c-3.1,1.3-6.9-0.2-11-3.3c1.4-5.3,1.5-10.8,0-16.5l-4.4,4.4
		c2.3-4.9,2.7-10,1.1-15.4c-1.5-0.7-2.9,0.3-4.4,2.2c3.1-12.4,6.9-23.6,13.2-29.6c-0.6-3.4-4-4-7.7-4.4c4.6-0.1,9.4-7.8,14.3-18.6
		c1.5-3.3,0.2-5.2-2.2-6.6c3.6-3.5,5.7-7.4,5.5-12.1c-0.2-3.9-3.2-4.7-7.1-4.4l0.5-6.7c0,0-2.2,2.6-6,1.9c-3.9-0.7-2.2-2.7-8.9-4.2
		c-6.7-1.4-14.5,2-14.5,2s-3.3,0-6.4-1.1c-3.1-1.1-5.3-2.9-5.3-2.9l-4.8,1h-2.4c0.2-2.5,0.2-5.4,0.2-5.4l14.3-16.5
		c5-6.1,7.9-13.2,7.7-21.9c3.4,4.1,5.3,8.2,5.5,12.1c3.2-5,5.1-10.9,5.5-17.6c2.5,5.1,3.5,10.2,3.3,15.4c5-4.8,8.3-12.5,9.9-23
		c3.7,3.2,5.3,6.9,5.5,11c3-1.7,4.6-5.2,4.4-11c5.2,3.4,8.3,7.5,7.7,13.2c10.7-0.6,20.4,2.8,29.6,8.8c2.5-0.1,4.6-1.2,5.5-4.4
		c1.2,7.5,7.3,16.6,15.4,26.3c1.9-9.1-0.2-18-9.9-26.3c-4.4-6.4-14-8.9-24.1-11c-6.3-2.4-8.1-7.4-6.6-14.3c3.3-5.1,7.6-9,14.3-9.9
		h9.9c1.4-3.6,3.4-6.8,6.6-8.8c20.2-3.6,40.3-1.6,60.3,6.6c14.8,4.8,30.7,13,47.2,23c7,1.9,13.4,2.5,18.6,1.1c0,5.1-1.4,9-5.5,11
		c15.8,10.3,29.7,21.7,37.3,36.2c12.5,16,24.3,36.2,35.1,61.4l12.1,11C596.5,555.3,593.3,556.5,589,556.5z"/>
	<path class="st6" d="M427.2,501.4c-4.8,7.3-11.7,13.2-15,14.6c-3.3,1.5-1.1-21.6-1.1-21.6l4.4,1.1l-13-23.6c1.1,1.4-1.2-1.4,0,0
		c1.9-9.1-0.2-18-9.9-26.3c-4.4-6.4-14-8.9-24.1-11c-6.3-2.4-8.1-7.4-6.6-14.3c3.3-5.1,7.6-9,14.3-9.9h9.9c0,0-2.7,4.9,0.9,12.6
		c3.7,7.7,9.5,2.6,19,11.3c9.5,8.8,18.6,13.2,21.2,28.2C429.7,477.7,431.9,494.1,427.2,501.4z"/>
	<path class="st7" d="M336.7,488.3l-0.5,6.7c-0.2,0-0.4,0-0.5,0c-3.7,4.9-10,8.1-18.6,9.9c-9.2-2.5-16.3-0.6-21.8,5.2
		c-0.8,0.8-1.2,1.9-1.2,3v6c0,0-12.1-3.3-14.3-6.6c-8.8-7.7,0-15.4,0-15.4s6.5-9.2,7.7-8.8c0.4,0.2,0.7-1.4,0.9-3.4h2.4l4.8-1
		c0,0,2.2,1.8,5.3,2.9c3.1,1.1,6.4,1.1,6.4,1.1s7.8-3.4,14.5-2c6.7,1.4,5.1,3.5,8.9,4.2C334.5,490.9,336.7,488.3,336.7,488.3z"/>
	<path class="st7" d="M301.9,481.6c0,0-1.4-2.7,0-5.8c1.4-3,10.4-5.8,10.4-5.8s1.9,1.9,0,5.8C310.4,479.7,305.2,482.2,301.9,481.6z"
		/>
</g>
<g>
	<path class="st2" d="M766.4,312.5h-40.1v35.1h44.9v41.9h-74.8V198.6h72.5v41.9h-42.5v30.6h40.1V312.5z"/>
	<path class="st2" d="M907.1,321c-0.2-10.4-0.4-22.2-0.5-35.4c-0.1-11.9-0.2-25.7-0.2-41.3H906c-1.7,11.7-3.6,24.7-5.8,39.1
		c-2,12.3-4,24.2-6,35.7l-11.1,66.5h-23.3l-9.3-66.5c-1.4-9.8-3-21.6-4.6-35.4c-1.5-12.6-3-25.8-4.3-39.4h-0.3l-1.7,76.7l-1.8,68.5
		h-27.5l7-190.9h40.2l7.3,51.5c1.7,11,3.2,22.3,4.6,34c1.7,12.7,3,24.5,4.1,35.7h0.5l5-36.2c2-13.8,3.7-25.1,5.1-34l8.4-51h39.2
		l5.6,190.9h-29L907.1,321z"/>
	<path class="st2" d="M1010.6,198.6v190.9h-30V198.6H1010.6z"/>
	<path class="st2" d="M1152.6,380.7c-5,2.8-10.7,5.2-17.1,7.1c-7.7,2.5-14.9,3.7-21.5,3.7c-20.6,0-36.3-8.6-46.8-25.8
		c-10.6-17.2-15.9-40.1-15.9-68.8c0.1-32.1,6.5-57.1,19.2-75c11.8-16.8,27.1-25.2,46-25.2c7.1,0,13.6,0.9,19.7,2.8
		c5.2,1.7,9.4,3.9,12.6,6.5l-6,41.1c-3.4-2.6-7.1-4.6-10.9-5.9c-4.5-1.5-9.7-2.3-15.6-2.3c-9.8,0-17.7,4.3-23.7,13
		c-6.6,9.6-9.9,23.7-9.9,42.2c0,17.4,3,31.2,8.9,41.6c5.8,9.8,13.4,14.7,22.7,14.7c4.9,0,8-0.6,9.4-1.7v-32.8h-14.9v-39.6h43.7
		V380.7z"/>
	<path class="st2" d="M1224.5,195.2l0.2,0.3v84.7h8.9c7.1,0,12.2-4.4,15.4-13.3c0.9-3.4,1.3-6.5,1.3-9.3V255c0-8.7-2.5-15-7.6-19
		c-2.2-1.5-4.8-2.3-7.8-2.3h-2.3l-0.2-0.3v-37.7l0.2-0.6h0.5c24.1,0,38.9,11,44.5,32.8c1.9,7.2,2.8,15.3,2.8,24.4
		c0,17-4.9,31.2-14.6,42.8c-2.8,2.6-4.4,4-4.8,4v0.6c2.3,2.1,4.2,4.2,5.6,6.5c4.2,7,7.4,18.3,9.8,34c3.5,24,6.3,40.6,8.3,49.8h-0.2
		h-30.6c-1.4-3.6-3.5-14-6.1-31.1c-2-15.5-3.6-25.4-5-29.7c-2.2-7.7-6.3-11.6-12.3-11.6h-6v72.2l-0.3,0.3h-29.5l-0.3-0.3v-190
		c0-0.4,3.4-1.1,10.1-2.3C1214.1,196,1220.7,195.2,1224.5,195.2z"/>
	<path class="st2" d="M1396,197.8c0.3,0,1.4,5.5,3.1,16.4l30.5,174.7l-0.2,0.3h-32.1c-0.2,0-1.1-5.2-2.6-15.6l-4.6-28.9h-22.5v-0.3
		l4.5-37.7h13.9l-10.8-71.9h-0.2l-20,154l-0.2,0.3h-30.6l-0.3-0.6l32.4-190.9H1396z"/>
	<path class="st2" d="M1475.8,241.7h-28.5v-43h87.4v43h-29v147.8h-30V241.7z"/>
	<path class="st2" d="M1603.2,198.6v190.9h-30V198.6H1603.2z"/>
	<path class="st2" d="M1737.6,361.2c-10.3,19.8-23.7,29.7-40.2,29.7c-16.9,0-30.2-9.9-40.1-29.7c-8.9-18.1-13.4-41.1-13.4-68.8
		c0-29.6,4.5-53.6,13.4-71.9c8.8-18.1,21-28.2,36.4-30.3v41.6c-5.9,2.1-10.4,8.5-13.7,19.3c-3.2,10.4-4.8,23.6-4.8,39.6
		c0,17.2,2,31.1,6,41.9c4.3,11.3,9.9,17,16.9,17c7.1,0,12.7-5.7,16.9-17c4.1-10.9,6.1-25,6.1-42.2c0-16.2-1.7-29.6-5.1-40.2
		c-3.5-10.6-8.4-16.8-14.6-18.7v-41.6c15.9,0.9,28.5,11.1,37.7,30.6c8.8,18.3,13.2,41.3,13.2,68.8
		C1752.4,318.3,1747.5,342.3,1737.6,361.2z"/>
	<path class="st2" d="M1793.1,389.5V198.6h35.3l17.7,58.6c2.9,9.1,6,19.7,9.3,32c2.9,11.3,5.6,22.9,8.3,34.8h0.5
		c-1.5-23.6-2.3-50.3-2.3-80.1v-45.3h27.3v190.9h-31.5l-19-63.4c-3.4-11.1-6.6-22.3-9.6-33.4c-3.6-12.8-6.7-24.6-9.1-35.4h-0.7
		c0.8,24,1.2,52.4,1.2,85.2v47H1793.1z"/>
	<path class="st2" d="M728,549.9v39.6h16.9v37.4H728v39.9c0,15.5,3.1,23.2,9.4,23.2c3.1,0,5.5-0.4,7.1-1.1v38.8
		c-4.1,2.6-10,4-17.7,4c-8.6,0-15.4-4.2-20.4-12.7c-5.1-8.7-7.6-23.1-7.6-43.3v-48.7h-10.1v-37.4h10.1v-26.1L728,549.9z"/>
	<path class="st2" d="M827.5,712.4c-7.9,13.2-18.7,19.8-32.3,19.8c-12.5,0-22.6-6.5-30.3-19.5c-7.6-13-11.4-29.9-11.4-50.7
		c0-22.3,4-39.9,11.9-53c7.1-11.9,16.2-18.5,27.5-19.8v36c-6.1,3.6-9.1,15.4-9.1,35.4c0,10.4,0.9,18.8,2.8,25.2
		c2.2,7.4,5.4,11,9.4,11c4.5,0,7.9-3.8,10.1-11.3c2-6.2,3-14.5,3-24.9c0-18.9-2.9-30.5-8.6-34.8v-36.5c11.5,1.3,20.7,8.1,27.8,20.4
		c7.4,12.7,11.1,29.3,11.1,49.8C839.4,681.6,835.5,699.2,827.5,712.4z"/>
	<path class="st3" d="M1076.2,619.3c-0.4-16.6-0.6-35.5-0.8-56.6c-0.2-19-0.3-41.1-0.3-66.1h-0.8c-2.6,18.7-5.7,39.6-9.3,62.5
		c-3.2,19.6-6.4,38.6-9.5,57.1l-17.7,106.4h-37.3l-14.8-106.4c-2.3-15.7-4.8-34.6-7.4-56.6c-2.5-20.2-4.8-41.2-6.9-62.9h-0.5
		l-2.6,122.7l-2.9,109.6h-43.9l11.1-305.2h64.3l11.6,82.4c2.6,17.5,5.1,35.6,7.4,54.3c2.6,20.2,4.9,39.3,6.6,57.1h0.8l7.9-58
		c3.2-22,5.9-40.1,8.2-54.3l13.5-81.5h62.7l9,305.2h-46.3L1076.2,619.3z"/>
	<path class="st3" d="M1271.3,605.7h-64.1v56.2h71.7v67h-119.7V423.6h116v67h-68v48.9h64.1V605.7z"/>
	<path class="st3" d="M1402.9,728.9l-13-49.8l-13.8-53h-0.5c-1.2,6.9-3,15.6-5.3,25.8l-18.3,77h-54.3l50.3-154.4l-48.4-150.8h54.8
		l12.2,48.5c3.5,14.5,7.5,31.4,11.9,50.7h0.5c3.2-16,6.7-32.8,10.6-50.3l10.9-48.9h54.5l-48.4,149l51.6,156.2H1402.9z"/>
	<path class="st3" d="M1531,423.6v305.2h-47.9V423.6H1531z"/>
	<path class="st3" d="M1702.6,720.7c-3.7,3.3-9.4,6.2-16.9,8.6c-8.6,2.7-17.9,4.1-27.8,4.1c-31.6,0-56-15.2-73.1-45.7
		c-15.4-27.2-23-62.6-23-106.4c0-51.3,9.9-91.8,29.7-121.4c18.2-27.2,41.4-40.8,69.6-40.8c9.5,0,18.5,1.4,27,4.1
		c7.6,2.4,13.4,5.4,17.5,9.1l-9.3,64.8c-4.4-3.3-9.1-5.9-14-7.7c-6.2-2.1-12.5-3.2-19.1-3.2c-14.7,0-26.6,7.2-35.7,21.7
		c-10.2,16-15.4,38.6-15.4,67.9c0,59.8,17.4,89.7,52.2,89.7c12.7,0,23.3-2.9,31.8-8.6L1702.6,720.7z"/>
	<path class="st3" d="M1876.2,683.6c-16.4,31.7-37.9,47.6-64.3,47.6c-27,0-48.4-15.9-64.1-47.6c-14.3-29-21.4-65.7-21.4-110
		c0-47.4,7.1-85.7,21.4-115c14.1-29,33.5-45.1,58.2-48.5v66.6c-9.4,3.3-16.7,13.6-22,30.8c-5.1,16.6-7.7,37.7-7.7,63.4
		c0,27.5,3.2,49.8,9.5,67c6.9,18.1,15.9,27.2,27,27.2c11.3,0,20.3-9.1,27-27.2c6.5-17.5,9.8-40,9.8-67.5c0-26-2.7-47.4-8.2-64.3
		c-5.7-16.9-13.4-26.9-23.3-29.9v-66.6c25.4,1.5,45.5,17.8,60.4,48.9c14.1,29.3,21.2,66,21.2,110
		C1899.8,615.1,1891.9,653.4,1876.2,683.6z"/>
</g>
</svg>
