<svg width="300" height="90" viewBox="0 0 300 90" fill="none" xmlns="http://www.w3.org/2000/svg">
<path fill-rule="evenodd" clip-rule="evenodd" d="M28.1 44.77H10.42C8.54 44.77 7.01 43.25 7 41.37C7 41.79 7.09 42.19 7.23 42.56C7.26 42.56 7.28 42.56 7.31 42.56C15.29 42.56 23.24 38.81 28.17 32.5C30.31 29.77 31.89 26.66 33.57 23.36C35.31 19.94 37.11 16.4 39.61 13.26C42.08 10.16 45.2 7.59 48.68 5.68C48.35 4.21 47.08 3.09 45.53 3.01C47.33 3.1 48.77 4.6 48.77 6.42V21.38C46.38 22.76 44.34 24.74 42.95 27.12C41.9 28.93 41.23 30.9 40.59 32.8C39.97 34.63 39.39 36.36 38.49 37.93C36.36 41.67 32.37 44.26 28.1 44.77ZM7 41.37C7 41.36 7 41.36 7 41.36C7 41.36 7 41.36 7 41.37ZM45.53 3.01C45.52 3.01 45.52 3.01 45.52 3.01C45.52 3.01 45.52 3.01 45.53 3.01ZM45.52 3.01C45.5 3.01 45.49 3.01 45.47 3.01C45.49 3.01 45.5 3.01 45.52 3.01ZM45.47 3.01L45.46 3L45.47 3.01ZM45.46 3H45.45H45.46ZM45.45 3H45.44H45.45ZM45.44 3C45.43 3 45.43 3 45.43 3H45.44ZM45.43 3H45.42H45.43Z" fill="url(#paint0_linear_5_2)"/>
<path fill-rule="evenodd" clip-rule="evenodd" d="M66.58 24.24H48.8C47.28 25.33 45.99 26.72 45.05 28.34C44.12 29.94 43.52 31.7 42.89 33.57C42.26 35.43 41.61 37.36 40.6 39.14C38.07 43.58 33.31 46.64 28.24 47.19V62.58C28.24 64.47 29.77 66 31.66 66H45.34C47.23 66 48.77 64.47 48.77 62.58V44.77H66.58C68.47 44.77 70 43.24 70 41.35V27.66C70 25.77 68.47 24.24 66.58 24.24Z" fill="url(#paint1_linear_5_2)"/>
<path fill-rule="evenodd" clip-rule="evenodd" d="M7 41.36C7 41.35 7 41.35 7 41.35C7 41.35 7 41.35 7 41.36ZM45.42 3H45.41H45.42ZM45.41 3H45.4H45.41ZM45.4 3H45.39H45.4ZM45.39 3H45.38H45.39ZM45.38 3C45.37 3 45.37 3 45.37 3C45.37 3 45.37 3 45.38 3ZM45.37 3C45.36 3 45.36 3 45.36 3C45.36 3 45.36 3 45.37 3ZM45.36 3C45.35 3 45.35 3 45.34 3C45.35 3 45.35 3 45.36 3Z" fill="url(#paint2_linear_5_2)"/>
<path fill-rule="evenodd" clip-rule="evenodd" d="M7.31 42.56C7.28 42.56 7.26 42.56 7.23 42.56C7.09 42.19 7 41.79 7 41.37C7 41.36 7 41.36 7 41.36C7 41.35 7 41.35 7 41.35V27.66C7 25.77 8.53 24.24 10.42 24.24H28.24V6.42C28.24 4.54 29.77 3 31.66 3H45.34C45.35 3 45.35 3 45.36 3C45.36 3 45.36 3 45.37 3C45.37 3 45.37 3 45.38 3H45.39H45.4H45.41H45.42H45.43C45.43 3 45.43 3 45.44 3H45.45H45.46L45.47 3.01C45.49 3.01 45.5 3.01 45.52 3.01C45.52 3.01 45.52 3.01 45.53 3.01C47.08 3.09 48.35 4.21 48.68 5.68C45.2 7.59 42.08 10.16 39.61 13.26C37.11 16.4 35.31 19.94 33.57 23.36C31.89 26.66 30.31 29.77 28.17 32.5C23.24 38.81 15.29 42.56 7.31 42.56V42.56Z" fill="url(#paint3_linear_5_2)"/>
<path d="M96.7789 26.9981V31.5085L99.9817 32.115V36H87.6064V32.115L90.4492 31.5085V12.9172L87.6064 12.3107V8.40674H100.626L107.297 26.5811H107.411L113.892 8.40674H126.76V12.3107L123.898 12.9172V31.5085L126.76 32.115V36H114.404V32.115L117.379 31.5085V27.9077L117.531 14.926L117.417 14.9071L109.609 36H104.378L96.4568 15.1534L96.3241 15.1724L96.7789 26.9981ZM145.124 30.8642L145.276 27.8888H150.241V36H127.897V32.115L130.759 31.5085V12.9172L127.897 12.3107V8.40674H149.938V16.3663H144.916L144.764 13.5236H137.411V19.1901H146.223V24.288H137.411V30.8642H145.124ZM165.648 36H152.724V32.115L155.623 31.4138V13.0309L152.724 12.3107V8.40674H165.648C168.15 8.40674 170.355 8.9816 172.262 10.1313C174.183 11.281 175.686 12.8793 176.773 14.926C177.859 16.9728 178.403 19.3291 178.403 21.9949V22.4308C178.403 25.0966 177.859 27.4466 176.773 29.4807C175.686 31.5275 174.183 33.1257 172.262 34.2754C170.342 35.4251 168.137 36 165.648 36ZM165.307 13.4668H162.275V30.9589H165.307C166.697 30.9589 167.872 30.6052 168.832 29.8976C169.78 29.1901 170.494 28.1983 170.974 26.9223C171.466 25.6336 171.713 24.1364 171.713 22.4308V21.976C171.713 20.283 171.473 18.7921 170.993 17.5034C170.5 16.2274 169.78 15.2356 168.832 14.528C167.885 13.8205 166.71 13.4668 165.307 13.4668ZM195.402 13.5615V31.5085L198.283 32.115V36H185.87V32.115L188.75 31.5085V13.5615H184.486L184.316 16.5369H179.293V8.40674H204.935V16.5369H199.856L199.704 13.5615H195.402ZM218.655 36.398C216.748 36.398 214.992 36.0505 213.387 35.3557C211.795 34.6481 210.412 33.6627 209.237 32.3992C208.062 31.1358 207.152 29.6576 206.508 27.9646C205.876 26.259 205.56 24.4081 205.56 22.4118V21.976C205.56 19.9924 205.876 18.1541 206.508 16.4611C207.152 14.7681 208.062 13.2899 209.237 12.0265C210.399 10.763 211.776 9.77756 213.368 9.07004C214.96 8.36252 216.71 8.00876 218.618 8.00876C220.487 8.00876 222.225 8.36252 223.829 9.07004C225.434 9.77756 226.842 10.763 228.055 12.0265C229.256 13.2899 230.191 14.7681 230.86 16.4611C231.53 18.1541 231.865 19.9924 231.865 21.976V22.4118C231.865 24.4081 231.53 26.259 230.86 27.9646C230.191 29.6576 229.256 31.1358 228.055 32.3992C226.855 33.6627 225.453 34.6481 223.848 35.3557C222.244 36.0505 220.513 36.398 218.655 36.398ZM218.655 31.3569C220.033 31.3569 221.22 30.9842 222.218 30.2388C224.24 28.6974 225.251 26.0884 225.251 22.4118V21.938C225.251 20.2072 224.992 18.6595 224.474 17.295C223.943 15.9684 223.185 14.9323 222.199 14.1869C221.214 13.4415 220.02 13.0688 218.618 13.0688C217.127 13.0688 215.92 13.4352 214.998 14.168C214.05 14.9008 213.349 15.9305 212.894 17.257C212.439 18.5836 212.212 20.144 212.212 21.938V22.4118C212.212 24.2185 212.446 25.7852 212.913 27.1118C213.368 28.451 214.069 29.4933 215.017 30.2388C215.977 30.9842 217.19 31.3569 218.655 31.3569ZM247.879 36.398C245.491 36.398 243.425 36.0126 241.681 35.2419C239.925 34.4839 238.561 33.3658 237.588 31.8875C236.628 30.4093 236.148 28.6026 236.148 26.4674V12.9172L233.305 12.3107V8.40674H245.661V12.3107L242.8 12.9172V26.4674C242.8 27.5919 242.995 28.5079 243.387 29.2154C244.158 30.6557 245.642 31.3759 247.841 31.3759C248.965 31.3759 249.9 31.199 250.645 30.8452C252.162 30.1377 252.92 28.6784 252.92 26.4674V12.9172L250.077 12.3107V8.40674H262.433V12.3107L259.572 12.9172V26.4674C259.572 28.5647 259.079 30.3525 258.093 31.8307C257.108 33.3215 255.737 34.4586 253.981 35.2419C252.237 36.0126 250.203 36.398 247.879 36.398ZM283.564 24.4207L286.445 31.4706L289.06 32.1339V36H281.025L277.594 26.0505L273.065 25.9937V31.5085L275.927 32.115V36H263.551V32.115L266.413 31.5085V12.9172L263.551 12.3107V8.38779H277.121C279.319 8.38779 281.214 8.73523 282.806 9.43011C284.411 10.125 285.649 11.1168 286.521 12.4055C287.392 13.6815 287.828 15.1977 287.828 16.9538C287.828 18.571 287.392 20.0745 286.521 21.4643C286.141 22.0454 285.706 22.5887 285.213 23.0941C284.72 23.5995 284.171 24.0417 283.564 24.4207ZM273.065 13.4857V20.8957H277.196C278.485 20.8957 279.477 20.5988 280.172 20.005C280.867 19.3986 281.214 18.5268 281.214 17.3897C281.214 16.2147 280.86 15.2735 280.153 14.5659C279.445 13.8458 278.435 13.4857 277.121 13.4857H273.065Z" fill="#394657"/>
<path d="M93.864 45.864C96.104 45.864 97.736 46.304 98.76 47.184C99.784 48.064 100.296 49.304 100.296 50.904C100.296 51.608 100.176 52.288 99.936 52.944C99.712 53.584 99.336 54.16 98.808 54.672C98.28 55.184 97.576 55.592 96.696 55.896C95.816 56.184 94.736 56.328 93.456 56.328H91.488V63H89.328V45.864H93.864ZM93.672 47.712H91.488V54.48H93.216C94.304 54.48 95.208 54.368 95.928 54.144C96.648 53.904 97.184 53.528 97.536 53.016C97.888 52.504 98.064 51.832 98.064 51C98.064 49.896 97.712 49.072 97.008 48.528C96.304 47.984 95.192 47.712 93.672 47.712ZM115.475 56.544C115.475 57.616 115.331 58.568 115.043 59.4C114.771 60.216 114.371 60.912 113.843 61.488C113.331 62.064 112.699 62.504 111.947 62.808C111.211 63.096 110.387 63.24 109.475 63.24C108.627 63.24 107.843 63.096 107.123 62.808C106.403 62.504 105.779 62.064 105.251 61.488C104.723 60.912 104.307 60.216 104.003 59.4C103.715 58.568 103.571 57.616 103.571 56.544C103.571 55.12 103.811 53.92 104.291 52.944C104.771 51.952 105.459 51.2 106.355 50.688C107.251 50.16 108.315 49.896 109.547 49.896C110.715 49.896 111.739 50.16 112.619 50.688C113.515 51.2 114.211 51.952 114.707 52.944C115.219 53.92 115.475 55.12 115.475 56.544ZM105.755 56.544C105.755 57.552 105.883 58.432 106.139 59.184C106.411 59.92 106.827 60.488 107.387 60.888C107.947 61.288 108.659 61.488 109.523 61.488C110.387 61.488 111.099 61.288 111.659 60.888C112.219 60.488 112.627 59.92 112.883 59.184C113.155 58.432 113.291 57.552 113.291 56.544C113.291 55.52 113.155 54.648 112.883 53.928C112.611 53.208 112.195 52.656 111.635 52.272C111.091 51.872 110.379 51.672 109.499 51.672C108.187 51.672 107.235 52.104 106.643 52.968C106.051 53.832 105.755 55.024 105.755 56.544ZM129.095 50.136V61.224H130.967V67.464H128.927V63H119.975V67.464H117.959V61.224H118.991C119.727 60.2 120.335 59.088 120.815 57.888C121.311 56.672 121.679 55.408 121.919 54.096C122.175 52.768 122.311 51.448 122.327 50.136H129.095ZM124.199 51.792C124.135 52.88 123.967 54.008 123.695 55.176C123.423 56.328 123.071 57.432 122.639 58.488C122.223 59.544 121.735 60.456 121.175 61.224H127.055V51.792H124.199ZM134.208 63V50.136H136.32V55.416H139.656C140.776 55.416 141.696 55.552 142.416 55.824C143.136 56.096 143.672 56.504 144.024 57.048C144.376 57.576 144.552 58.248 144.552 59.064C144.552 59.864 144.376 60.56 144.024 61.152C143.688 61.744 143.152 62.2 142.416 62.52C141.696 62.84 140.744 63 139.56 63H134.208ZM139.368 61.296C140.28 61.296 141.024 61.144 141.6 60.84C142.176 60.52 142.464 59.968 142.464 59.184C142.464 58.4 142.2 57.872 141.672 57.6C141.144 57.312 140.384 57.168 139.392 57.168H136.32V61.296H139.368ZM146.688 63V50.136H148.8V63H146.688ZM173.062 53.376C173.062 54.176 172.822 54.8 172.342 55.248C171.862 55.696 171.246 56 170.494 56.16V56.256C171.294 56.368 171.99 56.656 172.582 57.12C173.174 57.568 173.47 58.272 173.47 59.232C173.47 59.776 173.366 60.28 173.158 60.744C172.966 61.208 172.662 61.608 172.246 61.944C171.83 62.28 171.294 62.544 170.638 62.736C169.982 62.912 169.19 63 168.262 63H162.718V50.136H168.238C169.15 50.136 169.966 50.24 170.686 50.448C171.422 50.64 171.998 50.976 172.414 51.456C172.846 51.92 173.062 52.56 173.062 53.376ZM171.286 59.232C171.286 58.496 171.006 57.968 170.446 57.648C169.886 57.328 169.062 57.168 167.974 57.168H164.83V61.296H168.022C169.078 61.296 169.886 61.144 170.446 60.84C171.006 60.52 171.286 59.984 171.286 59.232ZM170.926 53.64C170.926 53.032 170.702 52.592 170.254 52.32C169.822 52.032 169.11 51.888 168.118 51.888H164.83V55.416H167.734C168.774 55.416 169.566 55.272 170.11 54.984C170.654 54.696 170.926 54.248 170.926 53.64ZM194.225 63L188.585 47.976H188.489C188.521 48.296 188.545 48.704 188.561 49.2C188.593 49.696 188.617 50.24 188.633 50.832C188.649 51.408 188.657 52 188.657 52.608V63H186.665V45.864H189.857L195.137 59.904H195.233L200.609 45.864H203.777V63H201.641V52.464C201.641 51.904 201.649 51.352 201.665 50.808C201.681 50.248 201.705 49.728 201.737 49.248C201.769 48.752 201.793 48.336 201.809 48H201.713L196.001 63H194.225ZM213.838 49.896C214.942 49.896 215.886 50.136 216.67 50.616C217.47 51.096 218.078 51.776 218.494 52.656C218.926 53.52 219.142 54.536 219.142 55.704V56.976H210.334C210.366 58.432 210.734 59.544 211.438 60.312C212.158 61.064 213.158 61.44 214.438 61.44C215.254 61.44 215.974 61.368 216.598 61.224C217.238 61.064 217.894 60.84 218.566 60.552V62.4C217.91 62.688 217.262 62.896 216.622 63.024C215.982 63.168 215.222 63.24 214.342 63.24C213.126 63.24 212.046 62.992 211.102 62.496C210.174 62 209.446 61.264 208.918 60.288C208.406 59.296 208.15 58.088 208.15 56.664C208.15 55.256 208.382 54.048 208.846 53.04C209.326 52.032 209.99 51.256 210.838 50.712C211.702 50.168 212.702 49.896 213.838 49.896ZM213.814 51.624C212.806 51.624 212.006 51.952 211.414 52.608C210.838 53.248 210.494 54.144 210.382 55.296H216.934C216.934 54.56 216.822 53.92 216.598 53.376C216.374 52.832 216.03 52.408 215.566 52.104C215.118 51.784 214.534 51.624 213.814 51.624ZM230.745 50.136H233.049L227.553 56.328L233.505 63H231.057L225.249 56.472V63H223.137V50.136H225.249V56.376L230.745 50.136ZM241.252 63.24C240.116 63.24 239.1 63.008 238.204 62.544C237.324 62.08 236.628 61.36 236.116 60.384C235.62 59.408 235.372 58.16 235.372 56.64C235.372 55.056 235.636 53.768 236.164 52.776C236.692 51.784 237.404 51.056 238.3 50.592C239.212 50.128 240.244 49.896 241.396 49.896C242.052 49.896 242.684 49.968 243.292 50.112C243.9 50.24 244.396 50.4 244.78 50.592L244.132 52.344C243.748 52.2 243.3 52.064 242.788 51.936C242.276 51.808 241.796 51.744 241.348 51.744C240.484 51.744 239.772 51.928 239.212 52.296C238.652 52.664 238.236 53.208 237.964 53.928C237.692 54.648 237.556 55.544 237.556 56.616C237.556 57.64 237.692 58.512 237.964 59.232C238.236 59.952 238.644 60.496 239.188 60.864C239.732 61.232 240.412 61.416 241.228 61.416C241.932 61.416 242.548 61.344 243.076 61.2C243.62 61.056 244.116 60.88 244.564 60.672V62.544C244.132 62.768 243.652 62.936 243.124 63.048C242.612 63.176 241.988 63.24 241.252 63.24ZM250.335 57.984C250.335 58.128 250.327 58.336 250.311 58.608C250.311 58.864 250.303 59.144 250.287 59.448C250.271 59.736 250.255 60.016 250.239 60.288C250.223 60.544 250.207 60.752 250.191 60.912L257.079 50.136H259.671V63H257.703V55.416C257.703 55.16 257.703 54.824 257.703 54.408C257.719 53.992 257.735 53.584 257.751 53.184C257.767 52.768 257.783 52.456 257.799 52.248L250.959 63H248.343V50.136H250.335V57.984ZM272.093 50.136H274.397L268.901 56.328L274.853 63H272.405L266.597 56.472V63H264.485V50.136H266.597V56.376L272.093 50.136ZM282.407 49.896C283.511 49.896 284.455 50.136 285.239 50.616C286.039 51.096 286.647 51.776 287.063 52.656C287.495 53.52 287.711 54.536 287.711 55.704V56.976H278.903C278.935 58.432 279.303 59.544 280.007 60.312C280.727 61.064 281.727 61.44 283.007 61.44C283.823 61.44 284.543 61.368 285.167 61.224C285.807 61.064 286.463 60.84 287.135 60.552V62.4C286.479 62.688 285.831 62.896 285.191 63.024C284.551 63.168 283.791 63.24 282.911 63.24C281.695 63.24 280.615 62.992 279.671 62.496C278.743 62 278.015 61.264 277.487 60.288C276.975 59.296 276.719 58.088 276.719 56.664C276.719 55.256 276.951 54.048 277.415 53.04C277.895 52.032 278.559 51.256 279.407 50.712C280.271 50.168 281.271 49.896 282.407 49.896ZM282.383 51.624C281.375 51.624 280.575 51.952 279.983 52.608C279.407 53.248 279.063 54.144 278.951 55.296H285.503C285.503 54.56 285.391 53.92 285.167 53.376C284.943 52.832 284.599 52.408 284.135 52.104C283.687 51.784 283.103 51.624 282.383 51.624Z" fill="#394657"/>
<defs>
<linearGradient id="paint0_linear_5_2" x1="7.2" y1="3.2" x2="47.86" y2="43.86" gradientUnits="userSpaceOnUse">
<stop stop-color="#48B0E0"/>
<stop offset="1" stop-color="#427CC5"/>
</linearGradient>
<linearGradient id="paint1_linear_5_2" x1="41.01" y1="37.02" x2="68.76" y2="64.76" gradientUnits="userSpaceOnUse">
<stop stop-color="#48B0E0"/>
<stop offset="0.819608" stop-color="#427CC5"/>
<stop offset="1" stop-color="#427CC5"/>
</linearGradient>
<linearGradient id="paint2_linear_5_2" x1="41.01" y1="37.01" x2="68.76" y2="64.76" gradientUnits="userSpaceOnUse">
<stop stop-color="#48B0E0"/>
<stop offset="0.819608" stop-color="#2C62D6"/>
<stop offset="1" stop-color="#2C62D6"/>
</linearGradient>
<linearGradient id="paint3_linear_5_2" x1="7.2" y1="3.2" x2="47.86" y2="43.86" gradientUnits="userSpaceOnUse">
<stop stop-color="#76C4E8"/>
<stop offset="0.819608" stop-color="#6189E0"/>
<stop offset="1" stop-color="#6189E0"/>
</linearGradient>
</defs>
</svg>
